<svg xmlns="http://www.w3.org/2000/svg" width="226" height="188" fill="none" viewBox="0 0 226 188">
  <defs>
    <linearGradient id="a" x1="177.375" x2="78.308" y1="19.425" y2="180.626" gradientUnits="userSpaceOnUse">
      <stop stop-color="#4437FB"/>
      <stop offset="1" stop-color="#1405E6"/>
    </linearGradient>
    <linearGradient id="b" x1="177.375" x2="78.308" y1="19.425" y2="180.626" gradientUnits="userSpaceOnUse">
      <stop stop-color="#4437FB"/>
      <stop offset="1" stop-color="#1405E6"/>
    </linearGradient>
    <linearGradient id="c" x1="177.375" x2="78.308" y1="19.425" y2="180.626" gradientUnits="userSpaceOnUse">
      <stop stop-color="#4437FB"/>
      <stop offset="1" stop-color="#1405E6"/>
    </linearGradient>
    <linearGradient id="d" x1="177.375" x2="78.308" y1="19.425" y2="180.626" gradientUnits="userSpaceOnUse">
      <stop stop-color="#4437FB"/>
      <stop offset="1" stop-color="#1405E6"/>
    </linearGradient>
    <linearGradient id="e" x1="177.375" x2="78.308" y1="19.425" y2="180.626" gradientUnits="userSpaceOnUse">
      <stop stop-color="#4437FB"/>
      <stop offset="1" stop-color="#1405E6"/>
    </linearGradient>
    <linearGradient id="f" x1="177.375" x2="78.308" y1="19.425" y2="180.626" gradientUnits="userSpaceOnUse">
      <stop stop-color="#4437FB"/>
      <stop offset="1" stop-color="#1405E6"/>
    </linearGradient>
    <linearGradient id="g" x1="177.375" x2="78.308" y1="19.425" y2="180.626" gradientUnits="userSpaceOnUse">
      <stop stop-color="#4437FB"/>
      <stop offset="1" stop-color="#1405E6"/>
    </linearGradient>
    <linearGradient id="h" x1="177.375" x2="78.308" y1="19.425" y2="180.626" gradientUnits="userSpaceOnUse">
      <stop stop-color="#4437FB"/>
      <stop offset="1" stop-color="#1405E6"/>
    </linearGradient>
    <linearGradient id="i" x1="177.375" x2="78.308" y1="19.425" y2="180.626" gradientUnits="userSpaceOnUse">
      <stop stop-color="#4437FB"/>
      <stop offset="1" stop-color="#1405E6"/>
    </linearGradient>
    <linearGradient id="j" x1="177.375" x2="78.308" y1="19.425" y2="180.626" gradientUnits="userSpaceOnUse">
      <stop stop-color="#4437FB"/>
      <stop offset="1" stop-color="#1405E6"/>
    </linearGradient>
    <linearGradient id="k" x1="177.375" x2="78.308" y1="19.425" y2="180.626" gradientUnits="userSpaceOnUse">
      <stop stop-color="#4437FB"/>
      <stop offset="1" stop-color="#1405E6"/>
    </linearGradient>
    <linearGradient id="l" x1="177.375" x2="78.308" y1="19.425" y2="180.626" gradientUnits="userSpaceOnUse">
      <stop stop-color="#4437FB"/>
      <stop offset="1" stop-color="#1405E6"/>
    </linearGradient>
    <linearGradient id="m" x1="177.375" x2="78.308" y1="19.425" y2="180.626" gradientUnits="userSpaceOnUse">
      <stop stop-color="#4437FB"/>
      <stop offset="1" stop-color="#1405E6"/>
    </linearGradient>
    <linearGradient id="n" x1="177.375" x2="78.308" y1="19.425" y2="180.626" gradientUnits="userSpaceOnUse">
      <stop stop-color="#4437FB"/>
      <stop offset="1" stop-color="#1405E6"/>
    </linearGradient>
    <linearGradient id="o" x1="177.375" x2="78.308" y1="19.425" y2="180.626" gradientUnits="userSpaceOnUse">
      <stop stop-color="#4437FB"/>
      <stop offset="1" stop-color="#1405E6"/>
    </linearGradient>
    <linearGradient id="p" x1="177.375" x2="78.308" y1="19.425" y2="180.626" gradientUnits="userSpaceOnUse">
      <stop stop-color="#4437FB"/>
      <stop offset="1" stop-color="#1405E6"/>
    </linearGradient>
    <linearGradient id="q" x1="177.375" x2="78.308" y1="19.425" y2="180.626" gradientUnits="userSpaceOnUse">
      <stop stop-color="#4437FB"/>
      <stop offset="1" stop-color="#1405E6"/>
    </linearGradient>
    <linearGradient id="r" x1="177.375" x2="78.308" y1="19.425" y2="180.626" gradientUnits="userSpaceOnUse">
      <stop stop-color="#4437FB"/>
      <stop offset="1" stop-color="#1405E6"/>
    </linearGradient>
    <linearGradient id="s" x1="177.375" x2="78.308" y1="19.425" y2="180.626" gradientUnits="userSpaceOnUse">
      <stop stop-color="#4437FB"/>
      <stop offset="1" stop-color="#1405E6"/>
    </linearGradient>
    <linearGradient id="t" x1="177.375" x2="78.308" y1="19.425" y2="180.626" gradientUnits="userSpaceOnUse">
      <stop stop-color="#4437FB"/>
      <stop offset="1" stop-color="#1405E6"/>
    </linearGradient>
    <linearGradient id="u" x1="177.375" x2="78.308" y1="19.425" y2="180.626" gradientUnits="userSpaceOnUse">
      <stop stop-color="#4437FB"/>
      <stop offset="1" stop-color="#1405E6"/>
    </linearGradient>
    <linearGradient id="v" x1="177.375" x2="78.308" y1="19.425" y2="180.626" gradientUnits="userSpaceOnUse">
      <stop stop-color="#4437FB"/>
      <stop offset="1" stop-color="#1405E6"/>
    </linearGradient>
    <linearGradient id="w" x1="177.375" x2="78.308" y1="19.425" y2="180.626" gradientUnits="userSpaceOnUse">
      <stop stop-color="#4437FB"/>
      <stop offset="1" stop-color="#1405E6"/>
    </linearGradient>
    <linearGradient id="x" x1="177.375" x2="78.308" y1="19.425" y2="180.626" gradientUnits="userSpaceOnUse">
      <stop stop-color="#4437FB"/>
      <stop offset="1" stop-color="#1405E6"/>
    </linearGradient>
    <linearGradient id="y" x1="177.375" x2="78.308" y1="19.425" y2="180.626" gradientUnits="userSpaceOnUse">
      <stop stop-color="#4437FB"/>
      <stop offset="1" stop-color="#1405E6"/>
    </linearGradient>
    <linearGradient id="z" x1="177.375" x2="78.308" y1="19.425" y2="180.626" gradientUnits="userSpaceOnUse">
      <stop stop-color="#4437FB"/>
      <stop offset="1" stop-color="#1405E6"/>
    </linearGradient>
    <linearGradient id="A" x1="177.375" x2="78.308" y1="19.425" y2="180.626" gradientUnits="userSpaceOnUse">
      <stop stop-color="#4437FB"/>
      <stop offset="1" stop-color="#1405E6"/>
    </linearGradient>
    <linearGradient id="B" x1="177.375" x2="78.308" y1="19.425" y2="180.626" gradientUnits="userSpaceOnUse">
      <stop stop-color="#4437FB"/>
      <stop offset="1" stop-color="#1405E6"/>
    </linearGradient>
    <linearGradient id="C" x1="177.375" x2="78.308" y1="19.425" y2="180.626" gradientUnits="userSpaceOnUse">
      <stop stop-color="#4437FB"/>
      <stop offset="1" stop-color="#1405E6"/>
    </linearGradient>
    <linearGradient id="D" x1="177.375" x2="78.308" y1="19.425" y2="180.626" gradientUnits="userSpaceOnUse">
      <stop stop-color="#4437FB"/>
      <stop offset="1" stop-color="#1405E6"/>
    </linearGradient>
    <linearGradient id="E" x1="177.375" x2="78.308" y1="19.425" y2="180.626" gradientUnits="userSpaceOnUse">
      <stop stop-color="#4437FB"/>
      <stop offset="1" stop-color="#1405E6"/>
    </linearGradient>
    <linearGradient id="F" x1="177.375" x2="78.308" y1="19.425" y2="180.626" gradientUnits="userSpaceOnUse">
      <stop stop-color="#4437FB"/>
      <stop offset="1" stop-color="#1405E6"/>
    </linearGradient>
    <linearGradient id="G" x1="177.375" x2="78.308" y1="19.425" y2="180.626" gradientUnits="userSpaceOnUse">
      <stop stop-color="#4437FB"/>
      <stop offset="1" stop-color="#1405E6"/>
    </linearGradient>
    <linearGradient id="H" x1="177.375" x2="78.308" y1="19.425" y2="180.626" gradientUnits="userSpaceOnUse">
      <stop stop-color="#4437FB"/>
      <stop offset="1" stop-color="#1405E6"/>
    </linearGradient>
    <linearGradient id="I" x1="177.375" x2="78.308" y1="19.425" y2="180.626" gradientUnits="userSpaceOnUse">
      <stop stop-color="#4437FB"/>
      <stop offset="1" stop-color="#1405E6"/>
    </linearGradient>
    <linearGradient id="J" x1="177.375" x2="78.308" y1="19.425" y2="180.626" gradientUnits="userSpaceOnUse">
      <stop stop-color="#4437FB"/>
      <stop offset="1" stop-color="#1405E6"/>
    </linearGradient>
    <linearGradient id="K" x1="177.375" x2="78.308" y1="19.425" y2="180.626" gradientUnits="userSpaceOnUse">
      <stop stop-color="#4437FB"/>
      <stop offset="1" stop-color="#1405E6"/>
    </linearGradient>
    <linearGradient id="L" x1="177.375" x2="78.308" y1="19.425" y2="180.626" gradientUnits="userSpaceOnUse">
      <stop stop-color="#4437FB"/>
      <stop offset="1" stop-color="#1405E6"/>
    </linearGradient>
    <linearGradient id="M" x1="177.375" x2="78.308" y1="19.425" y2="180.626" gradientUnits="userSpaceOnUse">
      <stop stop-color="#4437FB"/>
      <stop offset="1" stop-color="#1405E6"/>
    </linearGradient>
    <linearGradient id="N" x1="177.375" x2="78.308" y1="19.425" y2="180.626" gradientUnits="userSpaceOnUse">
      <stop stop-color="#4437FB"/>
      <stop offset="1" stop-color="#1405E6"/>
    </linearGradient>
    <linearGradient id="O" x1="177.375" x2="78.308" y1="19.425" y2="180.626" gradientUnits="userSpaceOnUse">
      <stop stop-color="#4437FB"/>
      <stop offset="1" stop-color="#1405E6"/>
    </linearGradient>
    <linearGradient id="P" x1="177.375" x2="78.308" y1="19.425" y2="180.626" gradientUnits="userSpaceOnUse">
      <stop stop-color="#4437FB"/>
      <stop offset="1" stop-color="#1405E6"/>
    </linearGradient>
    <linearGradient id="Q" x1="177.375" x2="78.308" y1="19.425" y2="180.626" gradientUnits="userSpaceOnUse">
      <stop stop-color="#4437FB"/>
      <stop offset="1" stop-color="#1405E6"/>
    </linearGradient>
    <linearGradient id="R" x1="177.375" x2="78.308" y1="19.425" y2="180.626" gradientUnits="userSpaceOnUse">
      <stop stop-color="#4437FB"/>
      <stop offset="1" stop-color="#1405E6"/>
    </linearGradient>
    <linearGradient id="S" x1="177.375" x2="78.308" y1="19.425" y2="180.626" gradientUnits="userSpaceOnUse">
      <stop stop-color="#4437FB"/>
      <stop offset="1" stop-color="#1405E6"/>
    </linearGradient>
    <linearGradient id="T" x1="177.375" x2="78.308" y1="19.425" y2="180.626" gradientUnits="userSpaceOnUse">
      <stop stop-color="#4437FB"/>
      <stop offset="1" stop-color="#1405E6"/>
    </linearGradient>
    <linearGradient id="U" x1="177.375" x2="78.308" y1="19.425" y2="180.626" gradientUnits="userSpaceOnUse">
      <stop stop-color="#4437FB"/>
      <stop offset="1" stop-color="#1405E6"/>
    </linearGradient>
  </defs> <g opacity=".6">
    <path fill="url(#a)" d="M39.285 67.84c.633-1.583 1.524-3.424 2.359-3.338.575.058.546 1.266 1.524 2.906.432.748.69.92 2.906 3.135 2.905 2.934 3.135 3.28 3.912 3.395 1.38.201 3.078-.576 3.625-1.813.604-1.38-.69-2.847.143-3.883.403-.49 1.151-.777 1.669-.547 1.294.547.748 4.114.69 4.46a9.479 9.479 0 0 1-1.38 3.739c-.605.95-1.698 2.646-3.481 3.193-2.59.806-5.207-1.208-6.53-2.215-3.798-2.905-5.035-7.077-5.437-9.033Zm-.978 41.941a12.38 12.38 0 0 1 1.524-4.027c.46-.777 2.129-3.452 5.293-4.574 1.007-.374 2.33-.834 3.337-.144.777.547 1.209 1.698.978 2.647-.316 1.208-1.524 1.15-3.74 2.79-1.15.834-2.905 2.129-4.027 4.315-.661 1.266-.748 2.158-1.237 2.215-.776.058-1.582-1.697-2.128-3.222Zm.834-93.694c-1.007-.862-3.596-2.934-6.386-2.358-4.2.834-5.811 6.933-6.53 9.608-.49 1.812-.72 3.596-.605 10.298.23 11.996 1.122 11.565.46 15.506-1.064 6.587-3.394 7.335-2.962 12.427.172 2.043.748 4.171.345 7.71-.26 2.387-.806 4.142-.46 4.257.489.201 2.33-3.366 2.848-4.373 2.588-5.091 2.819-7.076 4.746-11.132 2.445-5.207 3.366-4.747 4.373-7.825.057-.201.115-.374.144-.575.316-1.611-.518-10.587-.633-11.622-.432-4.459-.633-6.703.633-8.573.517-.776 1.64-2.013 2.79-4.343.259-.518.661-1.295.95-2.13.949-2.732.575-5.465.287-6.875Zm.604 11.392c.316-.748.777-1.783 1.41-2.963 1.179-2.128 2.474-4.459 4.861-6.271 3.567-2.733 7.595-2.848 8.544-2.848 3.653 0 6.271 1.438 8.17 2.474 4.027 2.215 3.97 3.826 9.004 6.76 2.387 1.381 2.848 1.295 4.257 2.474.863.748 3.654 3.136 4.373 7.106.172.863.748 4.027-.46 4.746-1.381.806-3.021-3.97-7.94-5.437-2.906-.863-4.401.144-7.45-1.294-1.727-.806-2.906-1.899-3.683-2.733a17.925 17.925 0 0 1-2.129 4.027c-1.237 1.755-2.502 3.539-4.631 4.373-2.762 1.093-4.085-.575-5.639.575-.402.317-1.208 1.065-1.697 7.48a102.812 102.812 0 0 0-.23 4.861 20.55 20.55 0 0 1-4.085-4.056c-2.416-3.193-3.28-6.242-3.48-7.077-1.554-5.926.23-10.787.805-12.197Z"/>
    <path fill="url(#b)" d="M158.639 58.864c-.029.058-.432-.028-1.122-.316-.691-.259-1.669-.72-2.819-1.438-1.151-.69-2.417-1.669-3.711-2.877-1.295-1.208-2.561-2.704-3.682-4.401-2.244-3.424-3.481-6.962-4.057-9.551-.604-2.59-.661-4.229-.546-4.258.144-.028.431 1.583 1.208 4.085.748 2.503 2.042 5.898 4.2 9.206a28.5 28.5 0 0 0 3.51 4.315 26.587 26.587 0 0 0 3.48 2.934c2.072 1.525 3.596 2.158 3.539 2.301Zm13.002-10.442c.202.144-1.582 3.107-4.545 6.156a28.68 28.68 0 0 1-2.186 2.071 11.528 11.528 0 0 1-2.071 1.41c-.633.316-1.209.489-1.582.547-.403.057-.633.057-.633 0-.029-.144.776-.375 1.898-1.122a16.89 16.89 0 0 0 1.841-1.468c.662-.604 1.352-1.323 2.072-2.07 2.876-2.992 4.976-5.668 5.206-5.524Z"/>
    <path fill="url(#c)" d="M168.851 65.739c-.288.029-.518-2.273-1.841-4.689-1.295-2.445-3.078-3.884-2.906-4.114.058-.086.633.144 1.381.748.374.317.777.72 1.208 1.208.403.49.806 1.065 1.151 1.726.345.662.604 1.295.806 1.928.172.604.287 1.18.345 1.668.057.92-.029 1.496-.144 1.525Zm12.456-6.415c-.057.086-1.093-.288-2.445-1.467a13.954 13.954 0 0 1-2.1-2.301 18.118 18.118 0 0 1-1.899-3.309c-1.093-2.474-1.639-4.833-1.956-6.559-.316-1.697-.431-2.79-.316-2.819.115-.029.46 1.007.949 2.647.489 1.64 1.122 3.94 2.186 6.328 1.065 2.36 2.417 4.287 3.596 5.495 1.18 1.266 2.071 1.87 1.985 1.985Zm-9.464-17.203c-.087-.144.748-.575 1.409-1.783a6.2 6.2 0 0 0 .662-2.302 5.499 5.499 0 0 0-.489-2.819 3.434 3.434 0 0 0-.863-1.122 2.656 2.656 0 0 0-1.151-.546c-.834-.144-1.611.115-2.071.546-.489.432-.69.95-.805 1.324-.116.374-.116.604-.173.604-.058 0-.173-.202-.201-.662 0-.431.143-1.122.69-1.755.547-.633 1.553-1.093 2.675-.92.547.057 1.122.316 1.582.69.49.374.835.892 1.122 1.439a5.95 5.95 0 0 1 .489 3.308 6.245 6.245 0 0 1-.949 2.56c-.46.633-.949 1.036-1.323 1.237a1.49 1.49 0 0 1-.46.201c-.058.03-.115.03-.144 0Z"/>
    <path fill="url(#d)" d="M170.031 39.187c-.116.057-.374-.173-.547-.662a3.396 3.396 0 0 1-.201-.892c-.029-.345 0-.719.115-1.121.115-.374.259-.748.46-1.036.201-.288.403-.518.604-.69.403-.317.748-.403.805-.288.087.115-.086.374-.316.748-.115.172-.23.403-.345.661-.115.26-.23.547-.288.835a5.268 5.268 0 0 0-.144.892c-.028.287-.028.517-.028.747 0 .46 0 .748-.115.806Z"/>
    <path fill="url(#e)" d="M172.015 39.072c-.144 0-.23-.23-.345-.518a1.826 1.826 0 0 0-.23-.402.932.932 0 0 0-.374-.288c-.144-.057-.288-.086-.374-.057-.086 0-.201.086-.288.143-.086.087-.143.144-.172.23-.058.087-.087.144-.144.173-.058.029-.144 0-.23-.115-.087-.115-.115-.316-.058-.575a.979.979 0 0 1 .576-.662c.345-.173.748-.144 1.093.029.345.144.575.431.719.719.115.288.144.546.144.748-.029.374-.202.575-.317.575Zm-4.689-2.733c.058.03.058.202-.028.46-.087.288-.317.662-.691 1.036a3.312 3.312 0 0 1-1.668.892c-.346.058-.748.144-1.237 0a1.336 1.336 0 0 1-.633-.403c-.173-.172-.288-.345-.403-.517a4.047 4.047 0 0 1-.518-1.065 4.837 4.837 0 0 1-.287-1.064 5.603 5.603 0 0 1 0-1.841c.201-1.036.604-1.554.69-1.496.144.057-.029.633-.029 1.582 0 .92.202 2.215.95 3.366.086.143.172.287.258.374.087.086.144.144.259.172.202.087.518.058.777.029.547-.086 1.036-.316 1.41-.546.719-.49 1.006-1.036 1.15-.979Zm-13.721 10.299c.028.058-.029.172-.202.288-.172.115-.489.201-.863.172a2.076 2.076 0 0 1-1.208-.546c-.374-.346-.633-.835-.777-1.381a4.436 4.436 0 0 1 .087-2.647c.23-.633.546-.949.661-.892.115.058.058.46 0 1.036a7.115 7.115 0 0 0 .144 2.273c.115.402.288.748.489 1.006.201.26.46.403.719.518.489.173.863.03.95.173Zm-6.329-4.545c-.087.086-.345 0-.662-.288-.316-.259-.633-.72-.892-1.294a4.24 4.24 0 0 1-.316-1.525c.029-.403.115-.662.259-.662.259 0 .489.863.92 1.813.403 1.007.863 1.754.691 1.956Zm7.076-2.417c-.115.087-.345-.028-.632-.316a4.017 4.017 0 0 1-.835-1.266c-.23-.546-.345-1.093-.345-1.496 0-.402.086-.633.201-.661.259-.03.576.805 1.007 1.783.432.978.806 1.784.604 1.956Zm6.962 7.595c.086.057-.115.633-.719 1.352-.604.748-1.582 1.64-2.848 2.359a9.449 9.449 0 0 1-1.899.776c-.604.173-1.208.26-1.697.23-.489-.028-.892-.143-1.151-.287-.23-.144-.345-.259-.316-.316.057-.116.604.086 1.438-.058a6.268 6.268 0 0 0 1.439-.374 11.43 11.43 0 0 0 1.726-.806c2.387-1.265 3.826-3.049 4.027-2.876Zm-19.475-9.896c.029.057-.173.259-.633.403-.46.144-1.237.172-2.043-.23-.402-.202-.805-.46-1.15-.863a4.152 4.152 0 0 1-.806-1.439c-.374-1.122-.345-2.416-.057-3.653.144-.633.374-1.237.604-1.784a15.06 15.06 0 0 1 .834-1.524 12.75 12.75 0 0 1 1.87-2.215c1.208-1.122 2.129-1.583 2.186-1.496.087.115-.661.776-1.726 1.956a16.98 16.98 0 0 0-1.639 2.215c-.259.431-.518.92-.72 1.438a15.264 15.264 0 0 0-.546 1.611c-.259 1.122-.288 2.273-.029 3.193.144.46.345.892.575 1.209.259.345.576.575.863.776.633.374 1.237.46 1.669.432.46-.029.719-.115.748-.029Zm11.334-5.408c.029.057-.086.23-.345.546-.259.317-.662.72-1.208 1.18a8.964 8.964 0 0 1-2.187 1.38 3.987 3.987 0 0 1-1.582.346c-.575 0-1.237-.173-1.726-.547a4.502 4.502 0 0 1-1.179-1.294 5.768 5.768 0 0 1-.633-1.439c-.288-.949-.345-1.87-.202-2.617a4.048 4.048 0 0 1 .633-1.64c.058-.086.115-.144.173-.202l.144-.143c.086-.058.144-.087.172-.087.115.087-.431.806-.489 2.13-.028.66.087 1.438.374 2.272.288.805.777 1.697 1.525 2.215.719.546 1.668.46 2.474.172.805-.287 1.525-.719 2.1-1.093.575-.403 1.035-.719 1.352-.95.374-.172.575-.287.604-.23Zm-7.249 3.02c.057.115-.058.288-.288.49-.201.2-.489.402-.719.661-.23.23-.403.49-.518.69-.115.202-.201.374-.316.403-.115.029-.288-.144-.317-.518-.029-.345.115-.863.518-1.237.374-.374.805-.546 1.093-.575.288-.086.489-.029.547.086Z"/>
    <path fill="url(#f)" d="M154.151 34.124c-.086.259-.69.288-1.381.144a2.442 2.442 0 0 1-.489-.144 1.374 1.374 0 0 1-.201-.086c-.029-.03-.058-.03-.086-.03-.029 0-.029 0-.029-.028v-.029c-.029-.028-.058-.028-.058-.057l-.029-.029a5.888 5.888 0 0 0-.057-.058h-.029c-.029.03-.057.03-.086.058h-.086c-.029-.029-.058-.115-.029-.201.057-.173.201-.288.403-.317h.517c.173 0 .346.029.518.058.691.086 1.208.46 1.122.719Zm8.86-.575c.058.115-.489.604-1.582 1.093-.546.23-1.237.46-2.071.546a6.588 6.588 0 0 1-1.295-.028 3.914 3.914 0 0 1-1.352-.432 4.13 4.13 0 0 1-1.15-.805 4.272 4.272 0 0 1-.806-1.007 5.931 5.931 0 0 1-.777-2.014c-.23-1.208-.028-1.956.087-1.927.144 0 .201.719.546 1.754.173.518.432 1.122.863 1.698.202.287.432.575.72.805.287.26.604.49.949.633.345.173.719.288 1.093.345.374.058.748.087 1.093.087.719-.03 1.352-.173 1.899-.317 1.035-.288 1.697-.575 1.783-.431Zm-9.09-15.563c-.029.143-.978-.087-2.532-.087-1.524 0-3.653.288-5.695 1.381-2.043 1.093-3.481 2.704-4.315 3.97-.863 1.266-1.18 2.186-1.324 2.158-.115-.03 0-1.036.777-2.474a10.03 10.03 0 0 1 1.668-2.302 11.329 11.329 0 0 1 2.791-2.129c1.122-.575 2.244-.949 3.308-1.121a10.778 10.778 0 0 1 2.848-.087c1.582.115 2.503.576 2.474.69Zm17.461-.518c-.057.029-.23-.259-.546-.806-.317-.517-.748-1.294-1.381-2.128-.633-.835-1.496-1.784-2.646-2.503a7.313 7.313 0 0 0-1.928-.863c-.69-.201-1.467-.259-2.244-.201-.776.057-1.553.2-2.301.402-.719.202-1.41.46-2.042.777a11.245 11.245 0 0 0-2.992 2.129c-.748.748-1.237 1.467-1.582 1.956-.317.489-.518.805-.576.777-.057-.03 0-.374.259-.95.23-.575.691-1.38 1.41-2.243.719-.864 1.754-1.755 3.078-2.474a11.756 11.756 0 0 1 4.66-1.324 7.608 7.608 0 0 1 2.56.26c.806.23 1.525.603 2.158 1.035 1.266.834 2.129 1.927 2.733 2.848a11.34 11.34 0 0 1 1.15 2.359c.23.575.288.92.23.949Zm8.573 18.037c-.115-.029-.029-1.41.259-3.654.144-1.122.316-2.445.518-3.94.201-1.468.431-3.079.028-4.632-.402-1.554-1.438-2.82-2.531-3.74-1.093-.92-2.273-1.467-3.337-1.61a5.342 5.342 0 0 0-2.503.258c-.575.201-.863.403-.92.345-.029-.029.172-.345.748-.69.575-.345 1.524-.662 2.704-.604 1.208.057 2.589.604 3.797 1.582a9.877 9.877 0 0 1 1.697 1.755c.518.69.95 1.496 1.18 2.387.23.892.287 1.813.23 2.647a18.78 18.78 0 0 1-.317 2.359c-.259 1.467-.517 2.79-.719 3.912-.374 2.273-.719 3.653-.834 3.625Z"/>
    <path fill="url(#g)" d="M181.767 44.97c-.086-.115.432-.633.777-1.726.173-.547.259-1.208.259-1.956s-.115-1.611-.259-2.503c-.144-.892-.316-1.726-.575-2.416a5.68 5.68 0 0 0-.978-1.669c-.403-.403-.777-.805-.892-1.208-.115-.374-.029-.604.029-.575.057 0 .115.201.287.431.173.23.547.49 1.036.892a5.419 5.419 0 0 1 1.323 1.841c.345.777.576 1.668.719 2.589.144.92.23 1.812.202 2.675a5.98 5.98 0 0 1-.489 2.187c-.259.575-.604 1.007-.892 1.237-.317.172-.518.259-.547.201Z"/>
    <path fill="url(#h)" d="M176.129 50.78c.029-.144.633-.115 1.553-.288a7.264 7.264 0 0 0 1.525-.431c.547-.23 1.122-.547 1.611-1.007.489-.46.834-1.007 1.093-1.525.259-.546.374-1.064.46-1.496.144-.891.058-1.495.202-1.524.115-.029.431.546.46 1.582 0 .518-.086 1.15-.316 1.784a5.54 5.54 0 0 1-1.237 1.898c-.604.576-1.295.92-1.956 1.15a5.339 5.339 0 0 1-1.784.289c-1.036-.058-1.64-.317-1.611-.432Zm-29.716 58.253c-.029-.029.086-.173.288-.431.115-.144.258-.288.402-.489.144-.202.317-.432.518-.691.777-1.035 1.784-2.618 2.704-4.718.921-2.128 1.697-4.775 2.244-7.767.547-3.02.892-6.386 1.352-9.924.46-3.539 1.093-6.933 2.186-9.867 1.065-2.935 2.561-5.409 4.114-7.192 1.553-1.784 3.136-2.934 4.315-3.538.288-.144.547-.288.777-.374.23-.116.431-.173.604-.23.316-.116.518-.173.518-.144 0 .028-.144.144-.432.316-.144.086-.345.173-.546.316-.202.144-.461.288-.72.46-1.093.691-2.56 1.87-3.998 3.654-1.439 1.784-2.791 4.2-3.797 7.077-1.007 2.877-1.611 6.185-2.072 9.694-.46 3.51-.805 6.904-1.438 9.954-.604 3.049-1.467 5.753-2.474 7.882-1.007 2.129-2.129 3.711-3.021 4.689-.23.23-.431.46-.604.633-.172.172-.345.316-.46.431-.288.173-.46.288-.46.259Z"/>
    <path fill="url(#i)" d="M161.113 90.623c-.259.087-.978-1.582-1.899-3.596-.92-2.013-1.697-3.624-1.467-3.768.201-.144 1.381 1.323 2.33 3.394.949 2.072 1.295 3.913 1.036 3.97Zm-3.424 60.094c-.057 0-.172-.891-.316-2.474-.029-.402-.086-.834-.115-1.323-.029-.489-.058-1.007-.115-1.582-.058-1.151-.144-2.445-.202-3.884-.028-.719-.057-1.467-.086-2.272-.029-.777-.029-1.611-.029-2.445-.028-1.698 0-3.51 0-5.409.058-3.826.231-7.997.576-12.398s.834-8.544 1.352-12.341c.287-1.899.546-3.682.834-5.351.144-.834.288-1.64.432-2.416.143-.777.287-1.525.431-2.215.259-1.41.547-2.676.806-3.797.115-.547.23-1.065.345-1.554.115-.489.23-.92.316-1.294.403-1.554.662-2.417.719-2.417.058 0-.057.892-.345 2.474-.086.403-.144.834-.259 1.323-.086.49-.172 1.007-.287 1.583a233.449 233.449 0 0 0-.662 3.826c-.115.719-.23 1.438-.374 2.215-.115.776-.23 1.582-.374 2.416-.259 1.669-.489 3.452-.748 5.351a247.45 247.45 0 0 0-1.266 12.283 255.729 255.729 0 0 0-.661 12.341c-.029 1.899-.087 3.711-.087 5.38 0 .834-.028 1.668 0 2.445 0 .777 0 1.524.029 2.244 0 1.438.029 2.732.058 3.883 0 .575.028 1.093.028 1.582 0 .489.029.95.029 1.352.058 1.583.058 2.474-.029 2.474Zm36.678-16.167c-.115.029-.489-1.668-.805-4.459a44.335 44.335 0 0 1-.202-2.272 71.966 71.966 0 0 1-.115-2.618c-.028-1.841 0-3.883.115-6.041.144-2.129.374-4.171.662-5.983a48.34 48.34 0 0 1 .46-2.59c.144-.805.317-1.553.489-2.243.662-2.733 1.266-4.344 1.381-4.315.144.028-.23 1.726-.719 4.458-.115.691-.259 1.439-.374 2.244a50.645 50.645 0 0 0-.374 2.589 104.17 104.17 0 0 0-.575 5.926c-.144 2.1-.173 4.114-.202 5.955 0 .921 0 1.784.029 2.618 0 .805.058 1.582.086 2.272.144 2.733.288 4.459.144 4.459Zm-5.178 16.656c-.115-.028.461-1.956 1.582-4.976a161.24 161.24 0 0 1 2.129-5.236 183.76 183.76 0 0 1 2.906-6.271 130.33 130.33 0 0 1 3.25-6.127 139.89 139.89 0 0 1 2.877-4.862c1.726-2.733 2.905-4.315 2.992-4.258.115.087-.863 1.813-2.417 4.603-.776 1.41-1.697 3.078-2.704 4.948a230.858 230.858 0 0 0-3.164 6.127 226.956 226.956 0 0 0-2.963 6.214 171.564 171.564 0 0 0-2.301 5.149c-1.266 2.906-2.043 4.747-2.187 4.689Zm3.913 5.351c-.058-.029.172-.662.661-1.755a47.998 47.998 0 0 1 2.417-4.487c1.093-1.841 2.502-3.999 4.142-6.3 1.64-2.302 3.51-4.804 5.437-7.422 1.927-2.618 3.768-5.149 5.236-7.508 1.495-2.388 2.617-4.632 3.365-6.617a23.207 23.207 0 0 0 1.237-4.833c.029-.287.087-.546.115-.776.029-.23.029-.432.058-.576.029-.316.057-.489.115-.489.029 0 .057.173.086.489 0 .173.029.346.029.576 0 .23 0 .489-.029.805-.057 1.208-.287 2.963-.949 5.034-.662 2.072-1.755 4.43-3.251 6.847-1.467 2.445-3.279 4.977-5.235 7.623-1.956 2.618-3.826 5.092-5.495 7.364a153.13 153.13 0 0 0-4.286 6.157c-1.18 1.783-2.014 3.279-2.647 4.315-.604 1.006-.949 1.582-1.006 1.553Zm-12.485 9.321c-.115 0-.288-.863 0-2.244.143-.691.402-1.496.776-2.33.374-.835.892-1.726 1.467-2.589 1.18-1.755 2.359-3.194 3.136-4.287.806-1.064 1.266-1.783 1.381-1.726.115.058-.144.892-.834 2.071-.662 1.209-1.784 2.733-2.935 4.431-1.15 1.697-1.956 3.337-2.358 4.574-.403 1.265-.49 2.1-.633 2.1Z"/>
    <path fill="url(#j)" d="M185.363 161.964c.173.173-.604 1.266-1.841 2.273-1.237 1.036-2.474 1.582-2.589 1.352-.144-.23.805-1.093 2.014-2.1 1.179-.949 2.215-1.726 2.416-1.525Zm6.99 10.241c-.057.116-.719-.115-1.668-.719-.46-.287-1.007-.719-1.553-1.208a16.305 16.305 0 0 1-1.611-1.783 14.618 14.618 0 0 1-1.266-2.043c-.317-.662-.575-1.294-.719-1.812-.317-1.065-.346-1.784-.23-1.784.143-.029.374.604.834 1.554.23.489.518 1.035.863 1.668a21.04 21.04 0 0 0 1.237 1.899c.489.633.978 1.237 1.467 1.726.489.518.949.949 1.323 1.294.892.662 1.41 1.093 1.323 1.208Zm.144-.23c-.23.115-1.294-1.668-1.927-4.142-.489-1.841-.547-3.51-.46-4.2l.345-.058c0 .231-.029.374-.115.374-.058 0-.144-.086-.259-.287l.345-.058c.23.662.547 2.215 1.007 3.999.633 2.359 1.294 4.257 1.064 4.372Z"/>
    <path fill="url(#k)" d="M195.058 172.839c-.029.115-.202.23-.518.23-.317 0-.748-.086-1.151-.317-.403-.23-.719-.546-.863-.805-.144-.259-.172-.489-.086-.575.201-.144.748.201 1.41.575.632.374 1.236.633 1.208.892Z"/>
    <path fill="url(#l)" d="M195.403 173.068c-.029.058-.202 0-.403-.201-.201-.173-.46-.518-.661-.95-.202-.46-.346-1.006-.461-1.61-.115-.605-.201-1.237-.316-1.928-.374-2.761-.489-5.005-.23-5.034.259-.029.776 2.157 1.15 4.919.087.69.173 1.352.23 1.927.058.605.144 1.094.231 1.525.23.806.575 1.237.46 1.352Z"/>
    <path fill="url(#m)" d="M165.485 80.612c-.115.029-.46-.72-.69-2.014a16.682 16.682 0 0 1-.23-2.3c0-.864.028-1.842.115-2.82.201-1.985.575-3.74.863-5.005.287-1.266.517-2.043.661-2.014.115.028.115.834 0 2.129-.115 1.294-.374 3.049-.575 5.005-.086.978-.173 1.899-.201 2.733a28.814 28.814 0 0 0 0 2.244c.086 1.237.201 2.013.057 2.042Zm18.411-16.656c.086.115-.949.892-2.532 2.186-.402.317-.834.69-1.265 1.094-.461.402-.921.834-1.439 1.294-.978.95-2.042 1.985-3.078 3.164a64.133 64.133 0 0 0-2.79 3.424 40.9 40.9 0 0 0-1.122 1.582c-.345.489-.662.978-.949 1.41-1.122 1.725-1.755 2.847-1.899 2.79-.115-.058.317-1.266 1.323-3.107.259-.46.518-.95.863-1.467.317-.518.691-1.065 1.065-1.64a45.1 45.1 0 0 1 2.79-3.538 41.367 41.367 0 0 1 3.193-3.165c.518-.46 1.007-.891 1.525-1.265.489-.374.949-.72 1.381-1.036 1.726-1.266 2.876-1.812 2.934-1.726Zm-2.819-2.877c.029.058-.202.317-.662.748-.46.46-1.122 1.093-1.87 1.928a62.77 62.77 0 0 0-2.56 3.078c-.92 1.18-1.927 2.531-3.02 3.883a39.342 39.342 0 0 1-1.669 1.956c-.288.317-.633.662-1.179.835-.259.086-.576.057-.863-.03-.288-.085-.489-.287-.633-.46-.317-.373-.432-.776-.547-1.15-.086-.374-.144-.72-.201-1.064a11.411 11.411 0 0 1-.087-1.928c.058-1.18.288-2.1.518-2.733.23-.604.403-.92.461-.891.057.028 0 .373-.115 1.006a12.72 12.72 0 0 0-.202 2.647c.029.547.086 1.15.202 1.812.057.317.143.662.23.978.086.317.23.605.402.835.173.201.374.258.576.201.23-.058.489-.317.748-.604.517-.604 1.064-1.266 1.611-1.928 1.093-1.352 2.1-2.675 3.078-3.854.978-1.18 1.898-2.187 2.733-2.992a19.058 19.058 0 0 1 2.1-1.755c.604-.403.92-.575.949-.518Zm6.645 25.632c-.115.23-1.467-.173-3.136-.547-1.668-.374-3.049-.604-3.049-.863s1.496-.46 3.251-.057c1.783.402 3.02 1.237 2.934 1.467Z"/>
    <path fill="url(#n)" d="M204.206 118.987c-.144.057-.95-1.87-2.388-4.92-.173-.374-.374-.776-.575-1.208-.202-.403-.432-.834-.633-1.294a90.092 90.092 0 0 0-1.439-2.82 173.62 173.62 0 0 0-3.509-6.357c-2.589-4.459-5.092-8.4-6.847-11.277-1.783-2.876-2.848-4.689-2.733-4.775.115-.058 1.352 1.611 3.28 4.401a177.58 177.58 0 0 1 7.105 11.191 136.836 136.836 0 0 1 3.481 6.415c.489 1.007.978 1.956 1.381 2.876.201.461.403.892.604 1.324.173.431.345.834.518 1.237 1.266 3.135 1.841 5.178 1.755 5.207Zm10.701-8.142c-.058.029-.518-.661-1.208-1.984-.72-1.324-1.64-3.28-2.676-5.783-1.035-2.474-2.1-5.494-3.279-8.831-1.18-3.337-2.445-7.02-4.027-10.759-.806-1.87-1.64-3.653-2.561-5.35-.891-1.698-1.87-3.251-2.848-4.718-1.985-2.877-4.113-5.265-6.127-6.99a36.368 36.368 0 0 0-2.819-2.187c-.432-.288-.863-.546-1.237-.805-.403-.23-.748-.432-1.064-.605-.173-.086-.317-.172-.461-.258-.144-.087-.287-.144-.403-.202-.258-.115-.46-.23-.661-.316-.345-.173-.518-.288-.518-.317 0-.029.201.03.575.144.202.058.432.144.691.26l.431.172c.144.057.317.143.489.23.346.172.72.345 1.122.546.403.23.834.49 1.295.748a26.67 26.67 0 0 1 2.963 2.13c2.1 1.696 4.315 4.084 6.386 6.99 1.007 1.467 2.042 3.049 2.963 4.775a62.953 62.953 0 0 1 2.618 5.408c1.582 3.797 2.848 7.48 3.97 10.845 1.122 3.366 2.128 6.386 3.078 8.86a127.284 127.284 0 0 0 2.387 5.869c.633 1.352.978 2.1.921 2.128Zm-29.774-49.306c-.201.173-.863-.345-1.668-.95-.777-.603-1.468-1.064-1.381-1.323.057-.115.287-.143.661-.057a3.24 3.24 0 0 1 1.266.633c.46.345.777.719.978 1.035.202.345.259.576.144.662Zm19.878 15.448c-.259.086-1.467-3.452-3.797-7.336-.576-.978-1.151-1.898-1.755-2.646-.604-.748-1.208-1.381-1.755-1.813-1.122-.891-2.071-1.093-2.013-1.237 0-.028.057-.057.172-.057.115 0 .288 0 .489.057.432.087 1.036.288 1.726.69.662.404 1.381 1.036 2.043 1.813.661.777 1.294 1.726 1.87 2.704 1.179 2.014 2.013 3.97 2.473 5.408.518 1.439.662 2.388.547 2.417Zm-61.331 33.801c.058.086-1.093 1.208-3.193 2.704-.259.173-.547.374-.834.575-.288.202-.605.403-.921.604-.633.432-1.352.806-2.1 1.237a45.62 45.62 0 0 1-5.034 2.417c-1.841.748-3.654 1.323-5.293 1.783-.834.202-1.611.432-2.359.576-.374.086-.748.144-1.093.23-.345.057-.691.115-1.007.172-2.56.403-4.171.403-4.2.288-.029-.144 1.553-.374 4.056-.92.316-.058.633-.144.978-.231.345-.086.691-.172 1.064-.258.72-.173 1.496-.403 2.302-.633a66.121 66.121 0 0 0 5.178-1.813 62.998 62.998 0 0 0 4.977-2.301c.748-.403 1.467-.777 2.1-1.151.316-.201.632-.374.949-.546l.863-.518c2.157-1.41 3.481-2.33 3.567-2.215Zm14.096 3.164c.057.058-.317.461-.978 1.151l-.576.575c-.201.202-.46.403-.719.633-.518.46-1.093.978-1.783 1.496-.346.259-.691.547-1.065.834-.374.288-.776.547-1.208.863-.834.604-1.755 1.18-2.733 1.784a55.62 55.62 0 0 1-6.674 3.366 50.826 50.826 0 0 1-7.105 2.301c-1.122.259-2.186.518-3.193.662-.518.086-.978.172-1.467.23-.461.057-.921.115-1.352.172-.863.115-1.64.144-2.331.173-.345.029-.661.029-.949.057h-.805c-.978 0-1.496-.057-1.496-.115 0-.057.518-.143 1.496-.259.23-.028.517-.057.805-.086.288-.029.604-.086.949-.115.662-.086 1.439-.172 2.302-.316.431-.058.863-.144 1.323-.23.46-.087.921-.202 1.438-.288.978-.173 2.043-.46 3.136-.719 2.186-.604 4.545-1.352 6.962-2.33a64.113 64.113 0 0 0 6.587-3.222 67.895 67.895 0 0 0 2.733-1.669c.432-.287.834-.518 1.208-.805.374-.259.748-.518 1.093-.777.72-.489 1.324-.978 1.842-1.381.258-.201.517-.403.747-.575.231-.173.432-.345.633-.518.691-.633 1.122-.949 1.18-.892Z"/>
    <path fill="url(#o)" d="M137.294 125.23c-.058.086-.576-.087-1.266-.633-.173-.144-.345-.317-.518-.489-.172-.173-.345-.403-.518-.633a7.075 7.075 0 0 1-.891-1.669 7.677 7.677 0 0 1-.432-1.841c-.029-.287-.029-.575-.029-.834s.029-.489.058-.719c.144-.863.431-1.352.546-1.323.144.028.087.546.115 1.352 0 .201.029.431.058.661 0 .231.058.489.086.748a9.92 9.92 0 0 0 .432 1.64c.201.575.46 1.064.719 1.525.144.23.259.431.403.633.144.201.259.374.402.517.518.576.892.95.835 1.065Zm4.228-1.065c-.086.087-.546-.201-1.15-.776a12.158 12.158 0 0 1-1.985-2.676 12.274 12.274 0 0 1-.777-1.668c-.201-.547-.345-1.065-.374-1.496-.029-.46.058-.834.144-1.064.115-.231.23-.346.288-.317.115.058.028.547.23 1.266.086.374.259.805.489 1.266.23.489.489 1.006.805 1.553 1.18 2.186 2.503 3.711 2.33 3.912Zm57.333 21.432c.057.115-.259.46-.978.69-.691.259-1.812.345-2.906-.115-1.093-.46-1.841-1.294-2.157-1.956-.345-.691-.317-1.151-.201-1.18.143-.028.345.346.776.835a5.202 5.202 0 0 0 1.956 1.467c.863.345 1.784.374 2.417.316.633-.057 1.035-.172 1.093-.057Zm1.783-3.366c0 .115-.345.259-.92.345a5.608 5.608 0 0 1-2.33-.144c-.921-.259-1.669-.863-1.985-1.409-.345-.547-.345-.978-.23-1.007.115-.058.345.23.719.575s1.007.719 1.755.921c.776.23 1.524.287 2.071.374.575.115.92.23.92.345Zm-93.607-15.678c.057.115-.23.374-.662.777-.201.201-.46.46-.719.748a7.03 7.03 0 0 0-.748 1.006c-.23.374-.431.748-.604 1.094-.144.345-.288.661-.374.949-.201.547-.316.92-.431.92-.116 0-.259-.402-.202-1.064.029-.316.086-.719.23-1.122.144-.403.346-.863.604-1.294a7.09 7.09 0 0 1 .921-1.093 4.95 4.95 0 0 1 .949-.691c.576-.288 1.007-.316 1.036-.23Zm1.323 8.544c-.115.057-.431-.317-.805-.978-.374-.691-.777-1.698-1.036-2.848a12.247 12.247 0 0 1-.23-1.669c-.029-.518 0-1.007.086-1.409.087-.403.23-.719.345-.892.144-.201.231-.259.288-.23.115.057 0 .518 0 1.208s.173 1.697.403 2.819c.489 2.158 1.179 3.884.949 3.999Z"/>
    <path fill="url(#p)" d="M109.476 126.956c-.115.086-.288 0-.518-.058a2.556 2.556 0 0 0-.863-.086 3.243 3.243 0 0 0-.863.172c-.23.058-.403.144-.518.087-.115-.058-.115-.317.115-.605.116-.143.288-.287.49-.402.201-.115.46-.173.747-.173.259 0 .547.058.748.144.231.086.403.23.518.345.259.259.259.518.144.576Zm1.784 8.112c-.115.057-.432-.288-.835-.921a9.413 9.413 0 0 1-1.035-2.761 10.024 10.024 0 0 1-.23-2.935c.057-.748.23-1.208.345-1.208.259.029.316 1.813.805 3.912.461 2.158 1.18 3.798.95 3.913Zm4.602-.748c-.115.057-.431-.374-.863-1.093-.431-.719-.978-1.726-1.697-2.704a9.982 9.982 0 0 0-1.122-1.266 8.934 8.934 0 0 0-1.093-.863c-.662-.432-1.151-.662-1.122-.777.029-.115.575-.115 1.41.202.402.172.891.431 1.352.805.46.374.92.834 1.323 1.381.805 1.093 1.266 2.186 1.553 2.992.288.748.374 1.265.259 1.323Z"/>
    <path fill="url(#q)" d="M115.344 135.988c.029.116-.575.374-1.639.547-1.036.173-2.532.201-4.143-.086a11.84 11.84 0 0 1-2.215-.604c-.661-.23-1.237-.489-1.697-.806-.46-.288-.806-.604-.978-.863-.173-.259-.23-.431-.173-.46.115-.086.547.374 1.467.748.461.201 1.036.374 1.669.546.633.173 1.352.346 2.1.489 1.496.259 2.905.317 3.912.346 1.036.028 1.669 0 1.697.143Z"/>
    <path fill="url(#r)" d="M98.96 141.42c-1.412 2.057-2.386 3.841-2.176 3.985.21.144 1.523-1.407 2.934-3.464 1.411-2.057 2.385-3.841 2.176-3.985-.21-.143-1.524 1.407-2.935 3.464Z"/>
    <path fill="url(#s)" d="M105.825 141.247c-.303.7-.359 1.349-.126 1.45.233.101.668-.385.97-1.085.303-.7.359-1.349.126-1.45-.233-.101-.668.385-.97 1.085Z"/>
    <path fill="url(#t)" d="M124.636 145.855c-.23.144-1.668-1.582-3.452-3.711-1.755-2.129-3.193-3.884-2.992-4.085.173-.173 1.928 1.295 3.711 3.481 1.813 2.157 2.963 4.171 2.733 4.315Zm2.532-4.948c-.173.173-1.41-.748-2.819-1.927-1.41-1.209-2.532-2.244-2.388-2.446.144-.201 1.525.489 2.992 1.726s2.416 2.474 2.215 2.647Zm-66.51-9.378c-.028.057-.776-.403-2.128-1.237a64.535 64.535 0 0 1-2.388-1.64c-.92-.633-1.927-1.438-3.05-2.301-2.214-1.784-4.803-3.941-7.478-6.588a99.425 99.425 0 0 1-8.142-9.09 96.17 96.17 0 0 1-6.932-10.069c-.46-.805-.95-1.582-1.381-2.358-.432-.777-.834-1.554-1.237-2.273-.403-.748-.748-1.467-1.093-2.157a41.581 41.581 0 0 1-.95-2.014c-.575-1.295-1.064-2.503-1.38-3.596-.346-1.093-.547-2.043-.633-2.848a8.78 8.78 0 0 1-.087-1.841c.03-.432.058-.633.087-.633.086 0 .057.892.374 2.416.287 1.525 1.035 3.683 2.272 6.214.317.633.662 1.295 1.007 1.956.374.69.72 1.41 1.122 2.129.403.72.834 1.467 1.266 2.244.431.777.92 1.525 1.41 2.33 1.955 3.164 4.257 6.559 6.932 9.925a107.15 107.15 0 0 0 7.997 9.061c2.618 2.647 5.15 4.862 7.278 6.703 1.093.892 2.072 1.726 2.963 2.387.892.691 1.64 1.295 2.273 1.755 1.237.921 1.927 1.496 1.899 1.525Zm-21.345-46.66c-.258.029-.546-1.15-.489-2.647.058-1.495.46-2.646.69-2.589.26.03.288 1.209.231 2.647-.057 1.38-.173 2.56-.431 2.589Zm25.2 37.742c-.057.029-.489-.403-1.237-1.208a102.591 102.591 0 0 1-3.049-3.596c-1.266-1.525-2.704-3.394-4.286-5.494-1.582-2.1-3.28-4.43-5.006-6.933a232.713 232.713 0 0 1-4.717-7.106 179.836 179.836 0 0 1-3.625-5.954c-1.007-1.726-1.784-3.107-2.273-4.114-.517-.978-.776-1.553-.719-1.582.115-.058 1.438 2.013 3.567 5.35 1.065 1.669 2.33 3.654 3.769 5.84a446.8 446.8 0 0 0 4.746 7.048 461.145 461.145 0 0 0 4.92 6.933 553.9 553.9 0 0 0 4.113 5.581c2.416 3.193 3.884 5.149 3.797 5.235Zm-52.356 27.847c-.028 0-.057-.202-.057-.605v-1.208c.029-.172.029-.345.058-.546.057-.374.086-.806.143-1.266.087-.46.202-.949.317-1.467a28.12 28.12 0 0 1 1.093-3.51c.115-.316.23-.633.374-.978.144-.316.288-.661.431-1.007.317-.69.633-1.38.979-2.1a144.804 144.804 0 0 1 2.387-4.516c1.726-3.136 3.682-6.53 5.178-10.327a39.956 39.956 0 0 0 1.697-5.696c.432-1.87.69-3.711.892-5.495.374-3.538.432-6.731.432-9.435 0-2.704-.058-4.89-.087-6.387-.028-1.524 0-2.358.058-2.358s.173.834.316 2.33c.144 1.496.288 3.682.374 6.415.087 2.704.087 5.954-.23 9.522-.172 1.783-.431 3.682-.863 5.58-.431 1.928-.978 3.884-1.726 5.84-1.524 3.884-3.538 7.307-5.293 10.414-1.755 3.106-3.308 5.926-4.286 8.4a30.23 30.23 0 0 0-1.18 3.394c-.143.518-.258.978-.374 1.438-.086.461-.172.863-.23 1.237-.029.173-.057.346-.115.518-.029.173-.029.317-.057.461-.03.287-.058.517-.087.719-.086.431-.115.633-.143.633Z"/>
    <path fill="url(#u)" d="M47.857 156.154c0 .057-.517.086-1.41.057-.23 0-.488-.029-.747-.029-.288-.028-.576-.057-.892-.086-.633-.057-1.38-.115-2.186-.259-.403-.057-.835-.115-1.266-.201-.432-.058-.892-.173-1.38-.259-.95-.173-1.957-.432-2.993-.719a52.853 52.853 0 0 1-6.645-2.33 52.468 52.468 0 0 1-6.242-3.251c-.92-.575-1.784-1.122-2.56-1.697-.403-.288-.777-.547-1.122-.806-.346-.287-.69-.546-1.007-.805-.662-.489-1.208-1.007-1.669-1.439-.23-.23-.46-.402-.661-.604l-.547-.546c-.633-.662-.978-1.036-.92-1.093.057-.058.46.23 1.179.805.173.144.374.288.575.46.23.173.46.346.72.547.517.374 1.093.834 1.754 1.294.317.231.662.489 1.036.748.345.259.748.489 1.15.748.777.547 1.669 1.036 2.56 1.611 1.842 1.065 3.913 2.158 6.186 3.136a58.362 58.362 0 0 0 6.501 2.359c1.036.287 1.985.575 2.934.776.46.116.892.231 1.324.317.431.086.834.172 1.236.259a26.96 26.96 0 0 0 2.158.374c.316.057.604.115.892.144.259.028.518.086.748.115.805.201 1.294.316 1.294.374Zm3.136-4.517c-.115.029-.518-1.237-.748-3.337a81.16 81.16 0 0 1-.086-.834c-.03-.288-.03-.575-.058-.892-.029-.633-.029-1.294-.029-1.985.058-1.409.173-2.934.403-4.545a49.583 49.583 0 0 1 1.927-7.997c.662-2.014 1.151-3.193 1.266-3.164.115.028-.144 1.323-.633 3.337-.489 2.042-1.15 4.832-1.64 7.968a54.727 54.727 0 0 0-.488 4.43c-.03.69-.087 1.323-.058 1.956v.892c0 .288 0 .547.029.805.086 2.043.259 3.337.115 3.366Zm-.69 3.107c-.087-.086-.03-.316.086-.604.115-.288.259-.633.374-1.064.115-.403.172-.806.23-1.094.057-.287.115-.517.23-.546.115-.029.288.144.431.489.116.345.173.863 0 1.409-.143.547-.46.979-.747 1.209-.288.23-.518.287-.605.201Z"/>
    <path fill="url(#v)" d="M48.059 152.702c.028.057-.288.23-.892.431-.604.173-1.525.288-2.647.23-1.122-.057-2.416-.316-3.826-.633a41.56 41.56 0 0 1-4.516-1.381c-3.164-1.179-5.811-2.646-7.652-3.883-1.812-1.208-2.82-2.158-2.762-2.244.087-.115 1.208.604 3.107 1.669 1.899 1.064 4.545 2.416 7.623 3.567a64.972 64.972 0 0 0 4.402 1.438c1.38.374 2.617.69 3.682.834 2.129.259 3.423-.172 3.48-.028Zm8.17 20.482c-.173-.029.287-2.072.143-5.38-.057-1.668-.316-3.624-.719-5.782-.403-2.158-1.007-4.516-1.668-6.99-.662-2.474-1.295-4.833-1.755-7.02-.46-2.186-.777-4.171-.892-5.868-.115-1.697-.086-3.049 0-3.999.086-.949.201-1.467.259-1.438.144 0-.029 2.071.403 5.379.201 1.64.575 3.596 1.064 5.754.49 2.157 1.15 4.488 1.812 6.961.662 2.474 1.237 4.862 1.611 7.048.374 2.215.547 4.229.518 5.926-.029 1.698-.172 3.078-.374 3.999-.172.949-.345 1.438-.403 1.41Z"/>
    <path fill="url(#w)" d="M56.142 173.154c-.23.115-1.18-1.381-1.755-3.481-.575-2.1-.489-3.854-.23-3.883.26-.029.604 1.64 1.15 3.624.519 2.043 1.065 3.625.835 3.74Z"/>
    <path fill="url(#x)" d="M54.905 177.556c-.259-.058-.057-1.813-.144-3.913-.057-2.128-.373-3.854-.115-3.912.115-.029.374.374.605 1.064.23.691.431 1.698.46 2.82.029 1.122-.087 2.128-.26 2.848-.23.69-.43 1.121-.546 1.093ZM40.033 64.588c.057.115-1.036.748-2.82 1.726-1.783.978-4.257 2.301-6.645 4.2-1.179.95-2.243 1.956-3.106 2.963a18.191 18.191 0 0 0-2.014 2.848c-.978 1.726-1.294 2.963-1.467 2.934-.058 0-.058-.345.057-.92.116-.576.374-1.381.806-2.33.431-.95 1.093-2.014 1.956-3.107a20.42 20.42 0 0 1 3.164-3.136c2.503-1.956 5.063-3.222 6.933-4.056 1.87-.806 3.078-1.237 3.136-1.122Zm.863-.92c-.115-.087.575-.979 1.524-2.532.115-.201.23-.403.374-.604.116-.201.23-.432.374-.662.26-.46.49-.978.748-1.496a27.57 27.57 0 0 0 1.324-3.596c.345-1.323.604-2.589.748-3.768.057-.575.115-1.15.143-1.668 0-.26.03-.518.03-.748v-.69c0-1.784-.145-2.906 0-2.935.114-.029.488 1.064.66 2.905.03.23.03.46.058.72.03.258 0 .517.03.776.028.547-.03 1.122-.058 1.726a23.706 23.706 0 0 1-.69 3.941 20.771 20.771 0 0 1-1.44 3.711c-.287.547-.546 1.065-.862 1.525-.144.23-.288.46-.432.662-.144.2-.287.402-.431.604-1.122 1.467-2.014 2.215-2.1 2.128Z"/>
    <path fill="url(#y)" d="M50.36 55.585c-.086.086-.662-.374-1.352-1.323a6.536 6.536 0 0 1-.518-.806 15.163 15.163 0 0 1-.518-.978c-.345-.69-.633-1.496-.863-2.387a11.477 11.477 0 0 1-.374-2.503c0-.403-.028-.748 0-1.093 0-.345.03-.662.087-.95.143-1.179.431-1.84.546-1.812.144.029.087.748.115 1.841 0 .288 0 .576.029.92 0 .317.058.662.086 1.036.087.72.23 1.525.432 2.33.201.806.489 1.583.748 2.273.144.345.287.662.431.95l.403.805c.49 1.007.863 1.582.748 1.697Zm-.086 14.671c-.202-.172 1.122-1.927 2.474-4.228 1.352-2.302 2.243-4.316 2.474-4.23.115.03.057.605-.23 1.468-.26.863-.748 2.014-1.468 3.222a14.908 14.908 0 0 1-2.1 2.848c-.604.661-1.064 1.007-1.15.92Zm15.534 20.396c-.058-.029.029-.431.201-1.122.173-.72.432-1.726.604-3.02.087-.633.173-1.353.173-2.1.029-.748 0-1.554-.115-2.388a11.858 11.858 0 0 0-1.928-5.034c-1.093-1.611-2.416-2.963-3.653-4.143a113.023 113.023 0 0 0-3.423-3.078c-1.985-1.697-3.28-2.675-3.222-2.79.057-.087 1.496.69 3.624 2.272a50.7 50.7 0 0 1 3.596 2.963c1.295 1.18 2.705 2.532 3.855 4.258.576.863 1.065 1.783 1.38 2.704.346.92.519 1.87.634 2.762.115.891.086 1.754.029 2.531a15.98 15.98 0 0 1-.317 2.186c-.287 1.324-.633 2.33-.92 3.02-.26.634-.46 1.008-.518.979Z"/>
    <path fill="url(#z)" d="M61.895 111.363c-.115-.057.432-1.582 1.324-4.056.431-1.237.95-2.704 1.41-4.344.46-1.639.891-3.48 1.093-5.437.2-1.956.143-3.826-.116-5.494a17.457 17.457 0 0 0-1.265-4.315 34.04 34.04 0 0 0-1.324-2.79c-.345-.662-.517-1.036-.46-1.065.058-.029.317.259.748.863a20.127 20.127 0 0 1 1.611 2.704 16.18 16.18 0 0 1 1.496 4.459c.345 1.755.403 3.711.201 5.753-.201 2.043-.661 3.913-1.18 5.61a37.806 37.806 0 0 1-1.639 4.344c-1.007 2.387-1.783 3.826-1.898 3.768Zm-8.227-41.108c.058 0 .115.26.115.777 0 .259-.029.547-.086.92a3.218 3.218 0 0 1-.46 1.18A2.79 2.79 0 0 1 52 74.168c-.547.23-1.18.287-1.813.172-.633-.086-1.265-.374-1.812-.776-.547-.374-1.036-.863-1.496-1.352-3.538-4-5.523-7.854-5.293-7.969.23-.144 2.56 3.452 5.984 7.336.431.489.863.92 1.323 1.237.46.345.95.575 1.438.661.49.115.978.087 1.381-.057a1.95 1.95 0 0 0 .95-.69c.23-.288.373-.634.488-.95.115-.317.173-.575.23-.805.173-.46.23-.72.288-.72Z"/>
    <path fill="url(#A)" d="M56.085 72.096c.057.03.028.403-.115 1.122a12.31 12.31 0 0 1-.978 2.934 8.128 8.128 0 0 1-1.237 1.813 6.613 6.613 0 0 1-2.072 1.496c-.834.374-1.84.575-2.848.374-1.006-.173-1.927-.662-2.761-1.266-.806-.604-1.554-1.237-2.215-1.928a16.263 16.263 0 0 1-1.726-2.1 24.247 24.247 0 0 1-2.273-3.94 20.685 20.685 0 0 1-1.093-2.848c-.201-.69-.288-1.094-.23-1.094.057-.028.259.317.575.978.317.633.748 1.583 1.352 2.676a28.315 28.315 0 0 0 2.388 3.74 21.144 21.144 0 0 0 1.697 1.956 21.646 21.646 0 0 0 2.1 1.812c.748.547 1.553.978 2.359 1.122.805.144 1.61.029 2.33-.288a6.08 6.08 0 0 0 1.841-1.237c.49-.489.892-1.064 1.208-1.582.633-1.064.978-2.042 1.209-2.704.259-.69.431-1.064.489-1.036Z"/>
    <path fill="url(#B)" d="M52.892 72.47c-.26-.086.086-1.409-.03-2.991-.086-1.611-.575-2.848-.316-2.992.115-.057.374.202.662.72.288.517.547 1.294.604 2.214a5.77 5.77 0 0 1-.316 2.273c-.23.518-.49.805-.604.777Zm-4.603-33.916c-.058.03-.202-.115-.432-.402-.23-.26-.546-.69-1.007-.95a1.498 1.498 0 0 0-.805-.143c-.288.028-.604.172-.892.373-.546.432-.949 1.209-1.093 2.1-.345 1.755.317 3.51 1.093 4.316.374.402.834.517 1.151.517.316 0 .489-.115.546-.057.03.029-.086.259-.46.403-.201.057-.46.086-.748.057a2.228 2.228 0 0 1-.92-.431 3.772 3.772 0 0 1-.777-.863 4.784 4.784 0 0 1-.575-1.151 5.627 5.627 0 0 1-.23-2.963 4.249 4.249 0 0 1 .517-1.467c.26-.46.576-.863 1.007-1.15a2.424 2.424 0 0 1 1.352-.432c.46-.03.892.143 1.209.345.316.23.517.489.661.719.144.23.23.431.317.604.115.316.143.518.086.575Z"/>
    <path fill="url(#C)" d="M46.016 41.633c-.057-.116.058-.317.202-.605.115-.287.23-.719.143-1.121-.086-.403-.345-.777-.546-.978l-.058-.058c-.057.086.058-.115.058-.086v.057l-.029-.029c-.029-.028-.057-.028-.086-.057l-.058-.058-.028-.028h.028s0 .028-.028.028c0 .03-.03.03-.03.03l-.028.028c-.029 0-.029.029-.057 0-.03-.029-.058-.058-.058-.144 0-.058.029-.115.057-.173a.626.626 0 0 1 .26-.2c.057-.03.143-.03.23-.03.028 0 .057 0 .086.03h.087c.028 0 .057 0 .057.028.23.086.46.23.69.46.201.23.403.547.46.92.087.375.03.749-.086 1.036a2.07 2.07 0 0 1-.46.69c-.432.346-.748.346-.806.26Z"/>
    <path fill="url(#D)" d="M46.016 43.071c-.057.115-.316.115-.633-.115a1.283 1.283 0 0 1-.403-.575c-.086-.26-.143-.576-.057-.892.086-.403.345-.72.604-.892.259-.201.518-.259.72-.259h.172l.029.03c.144.114.143.258.115.316-.03.086-.058.143-.115.172-.058.029-.087.029-.115.029-.03-.029-.03-.029-.03-.058v-.086c0-.029-.028-.029-.028-.057h-.029l.058-.03.115.173c-.201.173-.46.49-.547.863-.057.288 0 .605.058.835.057.258.144.431.086.546ZM65.75 58.634c-.086-.115.863-.978 2.244-2.531.173-.202.345-.403.547-.605.172-.2.345-.46.546-.69.403-.46.748-1.007 1.15-1.553a35.797 35.797 0 0 0 2.273-3.798 33.45 33.45 0 0 0 1.698-4.084c.201-.662.402-1.266.546-1.87a9.26 9.26 0 0 0 .23-.863c.058-.288.116-.547.173-.806.431-2.014.547-3.308.69-3.308.116 0 .23 1.323-.057 3.423-.029.26-.086.547-.115.834-.058.288-.115.576-.173.892a18.965 18.965 0 0 1-.489 1.928 25.2 25.2 0 0 1-1.697 4.257 29 29 0 0 1-2.416 3.884c-.432.546-.835 1.093-1.266 1.553-.202.23-.403.46-.604.662-.202.201-.403.402-.604.575-1.468 1.496-2.59 2.186-2.676 2.1Zm-6.961 3.078c.028.115-.403.403-1.237.46-.835.087-1.985-.143-3.078-.776a9.587 9.587 0 0 1-2.36-2.014c-.517-.604-.747-1.007-.66-1.122.085-.086.517.173 1.121.633s1.41 1.122 2.359 1.669c.95.546 1.899.834 2.618.92.719.144 1.208.115 1.237.23Z"/>
    <path fill="url(#E)" d="M68.512 56.563c.086.115-.403.604-1.266 1.323-.863.72-2.1 1.64-3.624 2.474a18.42 18.42 0 0 1-2.215 1.007c-.72.259-1.381.431-1.928.518-1.122.172-1.84.115-1.84-.029 0-.144.66-.288 1.696-.633a38.878 38.878 0 0 0 1.784-.661 28.076 28.076 0 0 0 2.1-1.036c1.467-.806 2.733-1.64 3.682-2.215.892-.518 1.525-.834 1.611-.748Zm-4.027-9.206c-.115-.23.661-.862 1.352-1.87.69-.977 1.007-1.927 1.265-1.898.115.029.202.317.144.777a3.873 3.873 0 0 1-.661 1.668c-.403.576-.92 1.007-1.324 1.209-.402.2-.719.23-.776.114Zm-6.904.777c0 .26-.46.49-.979.69-.115.03-.2.087-.287.116-.029 0-.087.029-.144.057-.058.029-.086.029-.144.058-.086.086-.086.115-.172.144-.115.028-.317 0-.374-.23a.662.662 0 0 1 .057-.403.9.9 0 0 1 .345-.403c.115-.086.23-.144.374-.201.346-.144.69-.173.92-.115.26.057.404.172.404.287Z"/>
    <path fill="url(#F)" d="M64.37 53.052c.028.058-.087.173-.317.288a3.34 3.34 0 0 1-1.093.316c-.95.115-2.359-.115-3.596-.95-1.237-.805-2.014-1.869-2.503-2.646-.489-.776-.661-1.323-.575-1.41.115-.086.518.346 1.093 1.008.604.661 1.41 1.553 2.503 2.272a6.375 6.375 0 0 0 3.05 1.065c.833.057 1.38-.087 1.438.057Zm-3.136-12.974c-.23-.144 0-.863.345-1.697.345-.806.72-1.496.978-1.438.26.057.288.891-.115 1.783-.374.95-.978 1.496-1.208 1.352Z"/>
    <path fill="url(#G)" d="M70.74 42.027c-.302.938-.35 1.76-.109 1.839.242.078.683-.619.986-1.556.302-.938.35-1.761.109-1.84-.242-.077-.683.62-.986 1.557Z"/>
    <path fill="url(#H)" d="M56.396 39.716c-.264.318-.32.707-.124.87.195.162.568.037.832-.281s.32-.707.124-.87c-.195-.162-.568-.036-.832.281Z"/>
    <path fill="url(#I)" d="M58.27 41.201a.46.46 0 1 0 .001-.92.46.46 0 0 0 0 .92Z"/>
    <path fill="url(#J)" d="M71.763 46.58a.354.354 0 0 1-.374-.029.59.59 0 0 1-.288-.431.614.614 0 0 1 .086-.518c.087-.144.202-.201.346-.172.258.028.431.258.489.489.028.23-.03.517-.26.661Z"/>
    <path fill="url(#K)" d="M72.172 45.984c.038.283.273.486.525.452.252-.034.425-.291.387-.575-.038-.283-.273-.485-.525-.452-.252.034-.425.291-.387.575Z"/>
    <path fill="url(#L)" d="M66.297 33.319c-.086.086-.403-.087-.863-.26-.46-.172-1.093-.373-1.812-.344a4.236 4.236 0 0 0-1.784.489c-.46.23-.72.402-.834.316-.087-.086.029-.431.46-.863a3.383 3.383 0 0 1 2.129-.863c.95-.029 1.755.345 2.186.72.49.344.633.718.518.805Zm8.889 3.74c-.115.057-.345-.173-.662-.432-.345-.288-.834-.633-1.438-.834a3.386 3.386 0 0 0-.863-.202c-.288-.028-.518-.028-.633 0-.115 0-.201.087-.259.173-.029.029-.029.086-.057.115 0 .029-.03.086-.058.086-.029.03-.057.03-.115 0a.295.295 0 0 1-.144-.172.763.763 0 0 1-.029-.374 1.96 1.96 0 0 0 .087-.23c.028-.03.057-.087.086-.115 0-.03.058-.058.086-.087.144-.115.317-.172.49-.23.172-.029.345-.057.517-.057.374 0 .777.057 1.15.201.778.288 1.353.834 1.612 1.294.345.46.345.806.23.864ZM45.642 49.687c-.029.058-.345-.086-.892-.46-.517-.345-1.236-.95-2.013-1.812-.777-.835-1.582-1.956-2.273-3.309a19.532 19.532 0 0 1-1.668-4.631 22.956 22.956 0 0 1-.46-4.89 25.5 25.5 0 0 1 .373-3.97c.403-2.244.892-3.567 1.007-3.539.144.03-.115 1.41-.345 3.625-.23 2.215-.345 5.293.345 8.573.346 1.64.892 3.135 1.525 4.458a19.675 19.675 0 0 0 2.014 3.28c1.352 1.726 2.502 2.56 2.387 2.675ZM39.918 26.79c-.03.115-.202.201-.46.172a1.41 1.41 0 0 1-.835-.402c-.259-.26-.431-.576-.46-.806-.029-.259.029-.431.144-.46.115-.058.259.029.431.144.173.115.345.287.518.46.201.173.374.345.49.489.114.144.2.288.172.403Z"/>
    <path fill="url(#M)" d="M39.14 23.336c.058.115 0 .287-.085.46-.087.172-.173.403-.26.633-.086.259-.114.46-.143.661-.029.202-.086.346-.202.432-.115.058-.287 0-.46-.259a1.392 1.392 0 0 1-.086-1.093c.144-.432.431-.748.72-.863.258-.144.46-.086.517.029Zm4.172-7.882c-.029.057-.172.028-.403.028-.201 0-.517.03-.834.23-.316.173-.633.49-.978.95a10.64 10.64 0 0 0-.92 1.524 8.702 8.702 0 0 0-.806 3.107c-.086.834-.058 1.381-.173 1.41-.115.029-.374-.49-.489-1.41-.115-.92.03-2.215.633-3.51a6.977 6.977 0 0 1 1.093-1.668c.403-.46.892-.834 1.381-1.007.49-.172.95-.086 1.18.03.259.114.345.258.316.316Zm2.244 2.387c-.144 0-.259-.144-.374-.374-.144-.201-.288-.489-.49-.776-.2-.288-.43-.518-.574-.72-.173-.201-.288-.345-.23-.489.028-.115.258-.172.575-.086.316.086.719.316 1.007.72.287.402.402.862.402 1.179-.086.345-.201.546-.316.546Z"/>
    <path fill="url(#N)" d="M25.822 69.594c-.058 0-.087-.69.144-1.898.23-1.209.719-2.906 1.668-4.89.92-1.986 2.244-4.2 3.682-6.675.69-1.237 1.439-2.531 2.043-3.94.316-.691.604-1.41.863-2.158s.46-1.496.604-2.302c.316-1.582.316-3.135.172-4.66-.143-1.525-.431-2.992-.632-4.401-.202-1.41-.374-2.79-.346-4.114 0-.662.058-1.294.144-1.87.087-.604.202-1.18.345-1.697a13.456 13.456 0 0 1 2.273-4.66c.748-.978 1.266-1.41 1.323-1.381.058.057-.374.575-1.006 1.582a15.292 15.292 0 0 0-1.928 4.631 24.112 24.112 0 0 0-.288 1.64 18.08 18.08 0 0 0-.086 1.784c0 1.237.202 2.56.432 3.97.23 1.41.517 2.876.69 4.459.173 1.582.173 3.25-.144 4.919-.144.834-.374 1.64-.661 2.416a26.025 26.025 0 0 1-.892 2.244c-.662 1.438-1.41 2.761-2.129 3.998-1.467 2.474-2.848 4.632-3.826 6.53-1.007 1.9-1.582 3.539-1.899 4.69-.374 1.15-.489 1.812-.546 1.783Z"/>
    <path fill="url(#O)" d="M23.607 69.479c-.029.029-.173-.202-.432-.604-.23-.432-.575-1.065-.863-1.957-.604-1.754-.978-4.516-.546-7.795.201-1.64.575-3.424 1.007-5.322.431-1.87.92-3.884 1.208-6.013.316-2.128.316-4.372.086-6.673-.23-2.33-.72-4.718-1.208-7.163a203.276 203.276 0 0 1-.72-3.654c-.23-1.208-.402-2.445-.402-3.653.029-1.237.201-2.445.575-3.567a14.7 14.7 0 0 1 1.41-3.136c1.122-1.927 2.503-3.51 3.883-4.89 1.381-1.352 2.79-2.59 4.373-3.28 1.553-.719 3.193-.834 4.516-.46a4.613 4.613 0 0 1 1.669.892c.431.403.777.834.978 1.266.431.863.46 1.64.403 2.128-.087.49-.23.72-.26.72-.028 0 .03-.26.058-.72 0-.46-.086-1.18-.517-1.927a4.7 4.7 0 0 0-.95-1.093 3.952 3.952 0 0 0-1.525-.72c-1.208-.316-2.704-.143-4.113.547-1.439.69-2.762 1.87-4.085 3.222-1.323 1.38-2.647 2.934-3.711 4.775-1.036 1.841-1.784 3.97-1.784 6.243 0 1.15.173 2.301.403 3.48.23 1.18.46 2.388.72 3.625.488 2.446.977 4.862 1.208 7.25.23 2.387.201 4.717-.144 6.904-.317 2.186-.863 4.2-1.324 6.07-.46 1.87-.863 3.624-1.093 5.206-.489 3.222-.23 5.869.26 7.623.43 1.784 1.006 2.647.92 2.676Zm48.415-46.43c-.03.115-1.698-.259-4.057-1.611-1.18-.662-2.531-1.553-3.998-2.531a45.806 45.806 0 0 0-2.33-1.439 8.918 8.918 0 0 0-1.295-.604c-.23-.086-.46-.172-.661-.259-.23-.086-.46-.144-.69-.23-.95-.288-1.9-.489-2.82-.546-.46-.058-.92-.058-1.38-.058-.231 0-.461.029-.662.029-.23 0-.432.028-.662.057-1.726.173-3.222.576-4.43 1.093-1.209.49-2.129 1.065-2.762 1.439-.604.402-.95.633-1.007.604-.029-.058.23-.374.777-.892a12.944 12.944 0 0 1 2.704-1.755c1.237-.604 2.82-1.122 4.632-1.352.23-.028.46-.057.69-.057.23 0 .46-.03.72-.03.488 0 .977 0 1.466.059 1.007.057 2.014.258 3.02.575.26.086.49.172.749.23.23.086.489.201.719.288.489.201.92.431 1.352.661a31.03 31.03 0 0 1 2.388 1.525c1.467 1.035 2.733 1.956 3.854 2.675 2.158 1.41 3.711 1.985 3.683 2.129Zm8.975 15.361c-.144-.086.46-1.035.661-2.79.115-.863.087-1.898-.143-3.02a9.727 9.727 0 0 0-1.381-3.395 12.827 12.827 0 0 0-2.474-2.761 15.687 15.687 0 0 0-2.56-1.698c-1.554-.834-2.618-1.208-2.56-1.352.028-.115 1.15.029 2.847.748a13.97 13.97 0 0 1 2.79 1.64 11.696 11.696 0 0 1 2.733 2.934 9.993 9.993 0 0 1 1.439 3.768c.201 1.237.144 2.36-.058 3.28-.201.92-.517 1.61-.776 2.042-.26.432-.46.633-.518.605Z"/>
    <path fill="url(#P)" d="M82.032 39.188c0 .057-.23.143-.632.23a9.157 9.157 0 0 1-1.813.172c-.776 0-1.755-.115-2.733-.632-.489-.26-.92-.633-1.323-1.007-.403-.403-.777-.806-1.18-1.237-3.106-3.395-5.206-6.473-5.005-6.645.201-.173 2.618 2.646 5.696 6.012.777.834 1.467 1.668 2.244 2.129.777.46 1.61.633 2.33.719.72.086 1.323.086 1.755.115.431.057.661.086.661.144Zm-21-10.385c.116.057-.172 1.064-.834 2.618-.345.776-.776 1.697-1.41 2.646-.632.95-1.409 1.956-2.444 2.82a8.41 8.41 0 0 1-1.64 1.064c-.575.287-1.15.489-1.697.661a8.784 8.784 0 0 1-1.64.26c-.518 0-1.007-.03-1.438-.116-.864-.172-1.525-.489-1.928-.776-.23-.173-.345-.403-.316-.547.028-.144.143-.173.172-.173.029 0-.029.03 0 .144.029.086.144.201.317.288.431.144 1.035.374 1.84.431.403.03.835.03 1.295 0a7.41 7.41 0 0 0 1.467-.316c.49-.173 1.007-.374 1.525-.633s1.007-.604 1.467-.978c.95-.777 1.697-1.697 2.33-2.56a23.304 23.304 0 0 0 1.525-2.474c.777-1.496 1.266-2.417 1.41-2.36Z"/>
    <path fill="url(#Q)" d="M69.174 32.254c0 .115-.518.317-1.41.374a9.57 9.57 0 0 1-3.48-.46c-1.324-.403-2.417-1.064-3.108-1.64-.172-.143-.316-.259-.46-.402-.144-.144-.23-.288-.316-.403-.144-.288-.058-.46 0-.46.057 0 .115.115.287.23.087.057.202.144.317.201.144.086.316.173.518.259.748.403 1.783.892 3.02 1.294 2.445.835 4.603.748 4.632 1.007ZM84.219 36.8c-.144-.03 0-.69.086-1.755a16.15 16.15 0 0 0-.058-4.056c-.115-.777-.345-1.439-.69-1.985a10.787 10.787 0 0 0-1.064-1.467c-.69-.806-1.122-1.324-1.036-1.41.087-.086.662.23 1.525.95.403.373.892.834 1.323 1.466.201.317.403.662.575 1.065.144.402.26.805.317 1.237.259 1.697.057 3.25-.201 4.315-.288 1.093-.662 1.697-.777 1.64Zm-33.801 66.739c.028.144-.806.287-1.899.92-.547.317-1.18.748-1.812 1.324a25.096 25.096 0 0 0-1.985 1.956c-.662.719-1.266 1.438-1.755 2.157a14.924 14.924 0 0 0-1.15 1.956c-.576 1.151-.806 1.957-.95 1.928-.115-.029-.086-.863.345-2.158.23-.633.547-1.38 1.036-2.157.46-.777 1.064-1.554 1.783-2.33a26.39 26.39 0 0 1 2.13-1.985c.718-.547 1.409-.978 2.07-1.237a5.51 5.51 0 0 1 1.582-.403c.374-.086.576-.029.605.029Zm-5.265-2.043c.115.259-1.84 1.237-3.653 3.165-.92.949-1.611 1.927-2.1 2.646-.115.173-.23.345-.316.489-.087.144-.144.23-.202.346-.029.086-.057.172-.029.23 0 .057 0 .086-.028.115-.03.028-.26-.029-.288-.374-.029-.144.029-.345.086-.518.058-.173.115-.374.202-.575.345-.835 1.006-1.957 1.984-2.992a10.06 10.06 0 0 1 2.877-2.129c.834-.431 1.41-.518 1.467-.403Zm54.025 21.202c0 .115-2.014.402-5.265.575-3.28.173-7.796.23-12.801-.086a113.637 113.637 0 0 1-7.02-.633c-2.157-.259-4.055-.518-5.666-.576a20.73 20.73 0 0 0-3.797.144c-.892.115-1.381.23-1.41.173-.029-.058.431-.288 1.352-.518.892-.23 2.244-.431 3.883-.46 1.669-.029 3.625.144 5.754.374 2.129.201 4.487.402 6.99.575 4.948.317 9.465.374 12.715.374 3.25-.029 5.265-.086 5.265.058Zm6.558 5.206c0 .029-.143.058-.46.087-.288.028-.719.028-1.266.057a39.01 39.01 0 0 0-4.66.547c-1.956.345-4.257.892-6.789 1.582-2.531.69-5.322 1.496-8.342 2.129-2.992.633-5.897 1.035-8.544 1.208-2.647.144-5.063.086-7.048-.144a30.072 30.072 0 0 1-4.689-.834c-1.093-.288-1.668-.518-1.64-.575.03-.173 2.446.489 6.387.747a51.19 51.19 0 0 0 6.933-.057 64.109 64.109 0 0 0 8.428-1.237c2.963-.633 5.754-1.41 8.314-2.071 2.56-.662 4.919-1.151 6.904-1.41 1.985-.259 3.625-.316 4.746-.259.576 0 1.007.087 1.295.115.259.058.431.087.431.115Zm16.944 2.331c-.057.028-.259-.288-.575-.863-.317-.576-.719-1.41-1.295-2.388-.575-.978-1.323-2.129-2.445-3.107-1.093-.978-2.56-1.697-4.229-2.042-1.668-.346-3.337-.403-4.861-.374-1.525 0-2.906.086-4.056.172-2.302.173-3.74.374-3.769.23-.029-.115 1.352-.546 3.682-.891a37.284 37.284 0 0 1 4.114-.374c1.553-.058 3.279-.058 5.092.345 1.783.374 3.452 1.208 4.631 2.33 1.18 1.122 1.899 2.359 2.445 3.423a21.877 21.877 0 0 1 1.065 2.56c.172.605.259.95.201.979Z"/>
    <path fill="url(#R)" d="M122.651 129.687c.087.087-.057.461-.46 1.007a10.051 10.051 0 0 1-1.841 1.813c-.403.287-.805.575-1.208.776-.403.202-.834.345-1.18.374a2.415 2.415 0 0 1-.863-.086c-.201-.086-.259-.173-.259-.23.029-.144.432-.115.95-.317.546-.201 1.208-.661 1.985-1.237 1.553-1.208 2.675-2.272 2.876-2.1Z"/>
    <path fill="url(#S)" d="M120.177 132.104c-.115.029-.316-.374-.546-.978-.23-.633-.489-1.496-.834-2.416-.173-.461-.374-.863-.547-1.237-.201-.374-.374-.691-.575-.95-.345-.517-.633-.863-.547-.949.058-.086.489.058 1.036.518.259.23.546.547.805.949.259.403.489.835.691 1.352.374 1.007.546 1.928.604 2.618.086.633.029 1.064-.087 1.093Zm-2.761 1.324c-.259 0-.345-1.64-1.208-3.366-.835-1.755-2.043-2.819-1.899-3.049.058-.087.489.057 1.036.489.287.201.575.517.863.863.287.374.575.805.805 1.294.23.489.403.978.489 1.438.086.461.144.863.144 1.237.057.691-.115 1.122-.23 1.094Zm-.345-12.083c-.144.231-2.82-1.409-6.243-3.164-.403-.23-.805-.374-1.122-.374-.316 0-.661.144-.978.345-.316.202-.604.461-.892.719-.287.231-.575.461-.805.633-1.007.777-1.669 1.209-1.755 1.122-.086-.086.432-.719 1.323-1.611.231-.23.461-.46.748-.719.259-.259.547-.546.921-.834.374-.259.834-.547 1.438-.575.604 0 1.122.23 1.554.46 3.48 1.783 5.954 3.797 5.811 3.998Zm-14.729-6.3c-.173.202-1.208-.431-2.474-1.208-1.266-.776-2.301-1.409-2.186-1.668.086-.23 1.352.057 2.675.863 1.323.834 2.158 1.812 1.985 2.013Zm2.647-3.279c-.173.201-1.065-.259-1.957-1.122-.891-.834-1.409-1.726-1.208-1.899.202-.172 1.007.403 1.87 1.209.834.834 1.467 1.611 1.295 1.812Z"/>
    <path fill="url(#T)" d="M118.145 111.238c1.614-2.065 2.761-3.866 2.561-4.023-.201-.156-1.672 1.391-3.286 3.456-1.615 2.065-2.761 3.867-2.561 4.023.2.157 1.671-1.391 3.286-3.456Z"/>
    <path fill="url(#U)" d="M120.347 115.12c.951-1.09 1.566-2.108 1.374-2.275-.191-.167-1.117.58-2.068 1.67-.95 1.089-1.565 2.107-1.374 2.275.192.167 1.118-.581 2.068-1.67Z"/>
  </g>
 
</svg>
