<svg xmlns="http://www.w3.org/2000/svg" width="22" height="28" fill="none" viewBox="0 0 22 28">
  <path fill="#fff" d="M20 14a1 1 0 1 0-2 0h2ZM3 25H2h1Zm1-11a1 1 0 1 0-2 0h2Zm3 13a1 1 0 1 0 2 0H7Zm1-10v-1a1 1 0 0 0-1 1h1Zm6 0h1a1 1 0 0 0-1-1v1Zm-1 10a1 1 0 1 0 2 0h-2ZM.348 14.842a1 1 0 1 0 1.304 1.516L.348 14.842Zm20 1.516a1 1 0 1 0 1.304-1.516l-1.304 1.516ZM12 1a1 1 0 1 0-2 0h2Zm2 3.75a1 1 0 1 0 0-2v2Zm-6-2a1 1 0 0 0 0 2v-2ZM18 14v11h2V14h-2Zm0 11a1 1 0 0 1-.293.707l1.414 1.414A3 3 0 0 0 20 25h-2Zm-.293.707A1 1 0 0 1 17 26v2a3 3 0 0 0 2.121-.879l-1.414-1.414ZM17 26H5v2h12v-2ZM5 26a1 1 0 0 1-.707-.293l-1.414 1.414A3 3 0 0 0 5 28v-2Zm-.707-.293A1 1 0 0 1 4 25H2a3 3 0 0 0 .879 2.121l1.414-1.414ZM4 25V14H2v11h2Zm5 2V17H7v10h2Zm-1-9h6v-2H8v2Zm5-1v10h2V17h-2Zm-11.348-.642 10-8.6-1.304-1.516-10 8.6 1.304 1.516Zm8.696-8.6 10 8.6 1.304-1.516-10-8.6-1.304 1.516ZM12 7V3.75h-2V7h2Zm0-3.25V1h-2v2.75h2Zm2-1h-3v2h3v-2Zm-3 0H8v2h3v-2Z"/>
</svg>
