<svg xmlns="http://www.w3.org/2000/svg" width="144" height="144" fill="none" viewBox="0 0 144 144">
 
  <defs>
    <linearGradient id="a" x1="63.579" x2="63.27" y1="55.713" y2="56.128" gradientUnits="userSpaceOnUse">
      <stop stop-color="#4437FB"/>
      <stop offset="1" stop-color="#1405E6"/>
    </linearGradient>
    <linearGradient id="b" x1="35.976" x2="35.698" y1="117.137" y2="117.483" gradientUnits="userSpaceOnUse">
      <stop stop-color="#4437FB"/>
      <stop offset="1" stop-color="#1405E6"/>
    </linearGradient>
    <linearGradient id="c" x1="105.372" x2="10.234" y1="8.436" y2="101.812" gradientUnits="userSpaceOnUse">
      <stop stop-color="#4437FB"/>
      <stop offset="1" stop-color="#1405E6"/>
    </linearGradient>
    <linearGradient id="d" x1="63.762" x2="63.524" y1="55.901" y2="56.065" gradientUnits="userSpaceOnUse">
      <stop stop-color="#4437FB"/>
      <stop offset="1" stop-color="#1405E6"/>
    </linearGradient>
    <linearGradient id="e" x1="95.038" x2="93.5" y1="111.565" y2="120.469" gradientUnits="userSpaceOnUse">
      <stop stop-color="#4437FB"/>
      <stop offset="1" stop-color="#1405E6"/>
    </linearGradient>
    <linearGradient id="f" x1="100.214" x2="96.541" y1="83.451" y2="83.921" gradientUnits="userSpaceOnUse">
      <stop stop-color="#4437FB"/>
      <stop offset="1" stop-color="#1405E6"/>
    </linearGradient>
    <linearGradient id="g" x1="81.905" x2="80.803" y1="54.174" y2="58.559" gradientUnits="userSpaceOnUse">
      <stop stop-color="#4437FB"/>
      <stop offset="1" stop-color="#1405E6"/>
    </linearGradient>
    <linearGradient id="h" x1="78.508" x2="74.284" y1="43.868" y2="48.608" gradientUnits="userSpaceOnUse">
      <stop stop-color="#4437FB"/>
      <stop offset="1" stop-color="#1405E6"/>
    </linearGradient>
    <linearGradient id="i" x1="84.432" x2="83.212" y1="33.452" y2="37.418" gradientUnits="userSpaceOnUse">
      <stop stop-color="#4437FB"/>
      <stop offset="1" stop-color="#1405E6"/>
    </linearGradient>
    <linearGradient id="j" x1="71.066" x2="67.371" y1="39.538" y2="43.118" gradientUnits="userSpaceOnUse">
      <stop stop-color="#4437FB"/>
      <stop offset="1" stop-color="#1405E6"/>
    </linearGradient>
    <linearGradient id="k" x1="83.479" x2="80.16" y1="37.795" y2="41.067" gradientUnits="userSpaceOnUse">
      <stop stop-color="#4437FB"/>
      <stop offset="1" stop-color="#1405E6"/>
    </linearGradient>
  </defs> <path fill="url(#a)" d="M63.437 55.685c.12.01.158.1.192.194.066.106.056.204-.03.294-.168-.032-.337-.061-.422-.238l.26-.25Z" opacity=".6"/>
  <path fill="url(#b)" d="M35.906 117.113c.123.105.218.244.071.37-.149.129-.267.03-.33-.135.153-.005.2-.126.259-.235Z" opacity=".6"/>
  <path fill="url(#c)" d="M125.274 74.461c-.016-2.046.001-4.093-.064-6.138-.096-2.972-1.236-5.499-3.407-7.543-.771-.725-1.622-1.349-2.519-1.912-3.782-2.372-7.893-3.932-12.231-4.909-2.319-.523-4.672-.853-7.055-.897-2.18-.04-4.328-.416-6.518-.515-.034-.154-.079-.279-.086-.406a14.92 14.92 0 0 1 .15-3.257c.1-.617.24-1.23.403-1.834.152-.566.43-.98 1.113-1.087.764-.12 1.383-.595 1.934-1.135.813-.797 1.4-1.747 1.865-2.777 1.04-2.308 1.409-4.73 1.163-7.242-.094-.956-.337-1.882-.793-2.74-.38-.713-.882-1.313-1.623-1.678-.143-.07-.322-.096-.308-.316 1.683-1.782 4.16-4.837 5.416-6.682.595-.873 1.154-1.767 1.549-2.753.672-1.68 1.003-3.41.762-5.224-.16-1.199-.64-2.28-1.219-3.322-1.123-2.02-2.394-3.947-3.723-5.836a12.652 12.652 0 0 0-2.576-2.723c-1.265-.986-2.7-1.476-4.305-1.521-1.183-.033-2.29.234-3.344.742-1.368.66-2.7 1.385-3.896 2.331-.58.46-1.23.594-1.942.583-.653-.01-1.204-.296-1.753-.604-.36-.202-.622-.473-.76-.87a4.616 4.616 0 0 0-.318-.723C80.134 1.587 78.615.409 76.373.362a8.31 8.31 0 0 0-1.964.198c-1.959.43-3.735 1.273-5.392 2.383-1.346.9-2.605 1.915-3.838 2.962-3.779 3.207-7.316 6.669-10.742 10.245-1.714 1.788-3.322 3.67-4.87 5.603-1.197 1.494-2.326 3.039-3.301 4.69-.57.965-1.106 1.948-1.551 2.98a10.345 10.345 0 0 0-.845 3.44c-.081 1.247.112 2.45.914 3.461.846 1.066 1.92 1.575 3.309 1.223a22.8 22.8 0 0 1 1.643-.353c1.367-.24 2.541.144 3.516 1.135.602.613.914 1.365 1.017 2.204.053.43.12.854.29 1.248.334.774.946 1.363 2.01 1.305.326-.018.655-.072.974-.148.902-.216 1.744-.594 2.578-.99.323-.153.619-.38.991-.416.116.15.068.313.056.468-.123 1.71-.222 3.422-.463 5.123-.144 1.013-.161 2.042.12 3.047.427 1.533 1.075 2.971 1.895 4.334.238.394.478.788.717 1.181.027.088.036.183.094.261l.018.088-.08-.034c-.097-.015-.2-.015-.292-.066-1.18-.517-2.301-1.135-3.328-1.92-.755-.577-1.162-1.326-1.229-2.273-.03-.428-.099-.852-.138-1.28-.087-.964-1.002-1.666-2.085-1.413a3.505 3.505 0 0 0-1.916 1.15 4.759 4.759 0 0 1-1.823 1.322c-.69.286-1.225.767-1.651 1.374-.114.162-.224.326-.335.49-.433.643-.967 1.154-1.708 1.445-.752.296-1.352.813-1.874 1.424-.171.2-.346.398-.516.6-.563.67-1.228 1.192-2.073 1.464-.218.07-.427.173-.635.272-.966.456-1.419 1.24-1.443 2.289-.015.665.1 1.316.28 1.953.264.935.83 1.638 1.706 2.076.235.118.48.216.718.33.178.086.352.181.575.297-2.866 1.012-5.138 2.695-6.963 5.004-1.362 1.721-2.453 3.591-3.2 5.658a26.655 26.655 0 0 0-1.05 3.707c-.556 2.715-1.006 5.447-1.268 8.209-.25 2.637-.216 5.275-.038 7.911.124 1.843.317 3.681.5 5.52.152 1.509.29 3.022.513 4.522.546 3.686 1.137 7.366 1.71 11.048.05.229-.034.31-.26.236-1.247-1.097-2.636-1.964-4.148-2.657-.939-.431-1.904-.748-2.923-.87-1.762-.21-3.44.059-4.875 1.169-2.168 1.678-3.717 3.822-4.592 6.427-.407 1.214-.327 2.406.348 3.527.262.433.593.801 1.057 1.011.781.353 1.574.709 2.429.81.756.09 1.356.392 1.934.88 1.175.993 2.47 1.769 4.081 1.788.45.006.832.189 1.174.465.36.29.7.605 1.075.873.962.687 2.02 1.106 3.227 1.047 1.631-.079 2.975-.772 4.101-1.928.127-.13.19-.355.464-.309.146.427.292.863.445 1.298.634 1.804 1.263 3.613 2.153 5.309 1.497 2.853 3.656 5.068 6.531 6.552 1.489.769 3.093 1.206 4.753 1.203a14.536 14.536 0 0 0 6.846-1.709c2.99-1.587 5.351-3.832 6.736-6.991.093-.211.193-.419.291-.628.125-.266.192-.597.392-.781.244-.224.549.084.836.096.165.006.328.038.493.05 1.71.126 3.419.295 5.132.367 4.913.208 9.83.303 14.747.342 2.276.018 4.554.042 6.829-.117 2.271-.158 4.545-.286 6.818-.403a33.877 33.877 0 0 0 6.636-1.031c1.996-.509 3.87-1.301 5.519-2.567.527-.405 1.012-.851 1.411-1.381.637-.845 1.156-1.768 1.642-2.703.469-.905.834-1.864 1.285-2.779 1.419-2.884 2.353-5.937 3.165-9.032a18.22 18.22 0 0 0 .373-1.84c.26-1.661.507-3.325.74-4.99.225-1.6.42-3.205.639-4.806.367-2.679.725-5.36 1.121-8.034.265-1.796.542-3.59.643-5.402.096-1.713.158-3.43.162-5.145.007-3.333-.036-6.666-.062-9.999ZM78.294 7.046c.016-.05.08-.097.134-.124.117-.057.192.033.212.119.096.408.176.82.262 1.23.336.541.763.987 1.338 1.278a6.37 6.37 0 0 0 3.463-.35c.088-.035.191-.032.288-.047.929-.459 3.176-1.579 3.176-1.579a375.168 375.168 0 0 1 .193-.12c.06-.023 1.001-.46 1.001-.46s.104-.031.1-.031c.067-.108 2.09-.656 2.365-.578.638-.133 1.138-.069 1.8 0 .239-.084.468-.022.696.043.186-.027.357-.003.492.143.789.055 1.514.287 2.152.766 1.193.612 2.152 1.489 2.918 2.584l.001.006c.016.11.104.16.183.22.989 1.187 1.477 2.569 1.594 4.095.193.473.201.966.157 1.464-.06.068-.032.149.002.2.079.856.101 1.713-.007 2.569l-.011.397a.92.92 0 0 1-.125.682l-.064.51a.828.828 0 0 1-.145.648c-.311 1.953-.908 3.785-2.246 5.303a.814.814 0 0 1-.147.168l-.023.027c-.449.695-1.093 1.115-1.88 1.324-.505.134-.984.056-1.4-.265-.185-.143-.313-.345-.225-.602.018-.053.081-.095.131-.132.067-.05.141-.04.165.03.104.309.325.48.629.558.337.087.65-.026.96-.135.315-.11.58-.303.827-.521.196-.173.385-.352.577-.527.033-.155.14-.251.262-.335a1.91 1.91 0 0 1 .153-.193l.008-.012a.4.4 0 0 0 .175-.244c.991-1.632 1.46-3.445 1.83-5.292a1.363 1.363 0 0 1 .125-.787.613.613 0 0 1 .026-.055l.049-.542v-2.775c-.065-.29-.462-2.727-.6-3.198-.255-.86-.746-1.598-1.22-2.345-.341-.353-.678-.71-1.024-1.06-.605-.609-1.315-1.085-2.01-1.581l-1.834-.57a.411.411 0 0 1-.176-.048l-.714-.156-2.327.005c-.239.023-.9.13-.983.18.08-.034-1.296.57-1.86.785-.107.04-.209.09-.306.148-.967.574-1.932 1.152-3.014 1.498-1.31.627-2.668.937-4.118.608-.154-.035-.294-.137-.44-.208a1.613 1.613 0 0 1-1.014-.913c-.388-.43-.48-.972-.56-1.516a.66.66 0 0 1 .028-.287Zm4.917 19.852c-.05-.515-.32-.77-.832-.782a2.874 2.874 0 0 0-1.243.242c-.358.159-.72.309-1.079.463-.233.177-.463.36-.702.528-.078.054-.187.076-.263-.016-.07-.085-.058-.19.009-.266a1.55 1.55 0 0 1 .725-.482c.636-.502 1.373-.761 2.162-.879a2.37 2.37 0 0 1 .684.015c.515.076.83.401.932.894.066.318.057.654.065.982.008.295-.032.594-.006.887.041.465.203.829.825.694.095-.021.196-.02.294-.028l1.193-.559 3.488-2.02c.122-.008.203-.08.27-.173l.016-.01c.502-.433 1.088-.73 1.672-1.03.116-.06.255-.105.328.055.07.153-.05.249-.159.313-.48.284-.967.558-1.452.835-1.105.762-2.233 1.486-3.46 2.043-.128 0-.213.075-.285.172l-.028.011a2.99 2.99 0 0 1-1.178.58c-.246.187-.536.239-.832.262-.599.048-.93-.177-1.064-.773-.064-.283-.056-.584-.065-.878-.011-.36.02-.722-.015-1.08ZM59.6 36.813c-.389.075-1.056.02-1.655-.059a1.994 1.994 0 0 1-1.642-1.387 15.699 15.699 0 0 1-.25-.868 28.754 28.754 0 0 0-.31-1.295 2.51 2.51 0 0 0-.226-.545 1.422 1.422 0 0 0-1.057-.704c-.621-.084-1.224-.002-1.868.147-.249.057-1.608.25-1.776.268-.278.127-1.405.049-1.562.009-.436-.093-.64-.404-.746-.803a2.317 2.317 0 0 1-.027-.971c.097-.615.808-2.214.934-2.44 1.11-1.986 6.359-8.53 7.032-9.125.233-.274.455-.557.698-.82 2.008-2.18 4.139-4.234 6.285-6.274.64-.609 5.58-5.344 5.873-5.419.05-.013.13.03.162.073.03.04.067.118.04.142-.165.148-.37.305-.544.443-.983.939-3.805 3.672-4.036 3.9-2.062 2.028-4.134 4.048-6.192 6.081-.7.692-1.368 1.414-2.05 2.123-.687.79-2.526 2.892-2.574 2.967l-.001.003c-.056.042-.951 1.11-.98 1.21-.207.291-.404.59-.624.872a34.45 34.45 0 0 0-3.165 4.832c-.111.334-.246.662-.329 1.002-.145.598-.261 1.203.155 1.756.088.155.26.163.396.19l.893-.01c.081-.017.198-.002.279-.022.167-.006 2.852-.585 3.495-.52.638.065 1.05.362 1.583.832a.69.69 0 0 1 .177.264c.094.238.205.53.307.844.175.535.389 1.968.509 1.989.571.9 1.436 1.078 2.404.945a7.565 7.565 0 0 0 2.252-.666c.854-.409 1.693-.85 2.538-1.276.057-.045 1.173-.774 1.173-.774s.134-.105.195-.145c.113-.114 6.726-5.63 6.726-5.63s.283-.34.404-.22c.106.106.074.23-.011.336-.037.046-3.37 3.104-3.37 3.104a.705.705 0 0 0-.157.134c-.092.128-1.206 1.05-1.584 1.258-.07.045-.136.097-.194.157l-.041.027c-.085.112-.806.685-1.105.813-.07.033-.257.184-.257.184-.061.053-1.315.892-1.384.934-.031.059-3.196 1.823-4.793 2.134Zm2.49 14.002c-.4-1.11-.547-2.238-.387-3.404.22-1.603.382-3.208.375-4.829-.002-.427.083-.857.061-1.283-.016-.331.151-.473.394-.605.81-.441 1.632-.861 2.42-1.338a23.46 23.46 0 0 0 2.132-1.433c.708-.542 1.485-.693 2.33-.573 1.088.154 2.116.488 3.007 1.165.078.059.15.13.236.174.19.098.382.098.55-.047.175-.15.166-.351.114-.547-.074-.274-.296-.435-.516-.577-.725-.465-1.5-.823-2.346-1.012-.353-.08-.708-.152-1.225-.263.616-.467 1.08-.83 1.556-1.178 2.132-1.553 4.342-2.994 6.543-4.447a9.06 9.06 0 0 1 .942-.54c.234-.118.483-.235.738-.275.875-.14.988-.006.765.78-.072.253-.18.497-.24.752a1.89 1.89 0 0 0-.057.586c.049.602.459.975 1.058.928a4.935 4.935 0 0 0 1.06-.23 29.995 29.995 0 0 0 2.057-.696c1.41-.553 2.807-1.139 4.21-1.708.918-.373 1.778-.859 2.642-1.34.258-.143.521-.29.8-.379.448-.14.765.069.885.524.121.459.061.916.008 1.376-.075.659-.088 1.314.11 1.96.11.362.286.665.605.874.276.181.568.153.796-.1.199-.219.37-.464.564-.688.39-.453.828-.85 1.386-1.093.788-.343 1.473-.219 2.081.387.332.33.561.729.746 1.157.303.703.477 1.442.54 2.199.2 2.349-.194 4.6-1.19 6.739-.392.84-.88 1.625-1.559 2.27-.586.56-1.235.997-2.102.923-.354-.03-.532.172-.674.465a16.688 16.688 0 0 0-.988 2.474c-1.413 4.708-4.014 8.644-7.76 11.812-1.859 1.57-3.949 2.741-6.322 3.356-2.294.594-4.56.564-6.806-.263-.349-.128-.546-.313-.683-.634a9.38 9.38 0 0 0-.487-.971 8.292 8.292 0 0 0-2.758-2.92c-.25-.16-.51-.303-.76-.464-.637-.416-1.234-.882-1.698-1.492-1.304-1.714-2.415-3.535-3.152-5.573Zm28.512 14.16a21.991 21.991 0 0 1-2.077 2.887c-1.15 1.362-2.35 2.675-3.684 3.861-.52.463-1.068.885-1.703 1.174-1.457.66-2.858.617-4.224-.287a13.276 13.276 0 0 1-3.103-2.88 49.7 49.7 0 0 0-.62-.77c-.786-.954-1.682-1.765-2.862-2.208-.304-.114-.455-.306-.487-.654-.06-.621-.185-1.237-.275-1.856-.025-.17.09-.242.237-.211.61.129 1.214.301 1.829.404 2.168.36 4.267.03 6.316-.697 2.01-.714 3.805-1.802 5.446-3.153 2.66-2.19 4.711-4.87 6.32-7.903.138-.261.277-.524.418-.784.012-.021.048-.028.224-.125.103 2.254.221 4.424.296 6.597.084 2.433-.833 4.57-2.05 6.605Zm-45.566-.893c-.817-.387-1.278-1.015-1.434-1.883a8.914 8.914 0 0 1-.148-1.177c-.033-.73.244-1.312.972-1.549 1.473-.478 2.58-1.418 3.51-2.62a3.455 3.455 0 0 1 1.491-1.113c.9-.35 1.576-.965 2.073-1.766.507-.815 1.168-1.41 2.065-1.761.662-.26 1.154-.753 1.622-1.271.382-.425.818-.76 1.4-.872.533-.102.81.075.888.628.066.457.104.918.155 1.377a3.793 3.793 0 0 0 1.36 2.555c.58.494 1.2.929 1.875 1.279a192.85 192.85 0 0 0 4.229 2.15c.683.335 1.344.701 1.984 1.107 1.857 1.178 2.953 2.898 3.422 5.01.41 1.846.467 3.72.341 5.612-.114 1.714-.397 3.407-.56 5.114-.052.54-.068.538-.648.699-1.285.356-2.608.364-3.884.449-1.393-.055-2.74-.146-4.05-.534-.311-.092-.496-.241-.605-.567-.344-1.031-.73-2.048-1.096-3.072-.616-1.718-1.675-3.14-3.006-4.356-1.375-1.257-3.047-1.933-4.854-2.297-1.62-.327-3.272-.407-4.91-.593-.755-.086-1.492-.218-2.192-.55Zm-6.71 64.325c-1.003 1.636-2.471 2.415-4.373 2.384-.5-.009-.966-.186-1.434-.489.528-1.295 1.248-2.39 2.597-2.946.12-.05.24-.114.342-.194a.41.41 0 0 0 .157-.439.47.47 0 0 0-.334-.333c-.307-.095-.588.003-.856.135-.6.297-1.106.717-1.532 1.232a7.2 7.2 0 0 0-.956 1.497c-.085.178-.135.374-.327.503-.838-.608-1.565-1.457-2.73-1.336-.117-.309.04-.504.132-.694.546-1.134 1.149-2.228 2.236-2.958.236-.158.274-.413.146-.603-.167-.25-.433-.353-.682-.257-.284.11-.501.314-.711.526-.804.807-1.37 1.77-1.824 2.803-.131.297-.247.601-.393.961-.903-.312-1.57-.795-2.223-1.297-.157-.12-.29-.27-.443-.396-.618-.508-.613-.504-.342-1.197.358-.915.964-1.644 1.694-2.282.173-.152.366-.284.527-.447a.391.391 0 0 0 .083-.456.498.498 0 0 0-.373-.293c-.288-.053-.512.071-.718.249-.783.674-1.466 1.427-1.89 2.385-.08.181-.164.36-.233.545-.333.879-.333.888-1.253.637-.348-.095-.686-.232-1.025-.358-1.208-.452-1.806-1.405-1.667-2.686.042-.392.123-.777.26-1.155.79-2.162 2.11-3.946 3.851-5.426 1.17-.994 2.562-1.331 4.064-1.215.99.076 1.937.349 2.853.755 1.829.811 3.422 1.971 4.968 3.216.28.225.424.486.505.816a2711.56 2711.56 0 0 0 1.633 6.624c.119.48.249.957.377 1.435a.905.905 0 0 1-.106.754Zm86.006-45.56c-.043 2.144-.064 4.29-.165 6.433-.086 1.813-.357 3.61-.625 5.405-.4 2.675-.757 5.356-1.125 8.035-.215 1.569-.405 3.141-.624 4.709a335.45 335.45 0 0 1-.751 5.09c-.106.683-.224 1.369-.404 2.036-.81 2.992-1.704 5.956-3.087 8.749-.585 1.181-1.116 2.388-1.697 3.572-.59 1.202-1.403 2.22-2.499 3.016-1.547 1.124-3.276 1.82-5.111 2.287-1.89.481-3.809.804-5.754.935-2.601.175-5.204.346-7.808.448-3.431.135-6.865.126-10.297.044-2.904-.069-5.808-.141-8.712-.204-2.311-.05-4.613-.238-6.916-.417-.394-.031-.788-.061-1.154-.248-.127-.159-.024-.314.023-.457.803-2.453 1.286-4.979 1.688-7.52.263-1.661.489-3.329.672-5.001.208-1.902.397-3.808.51-5.717.199-3.361.33-6.725.497-10.087.136-2.736.281-5.472.424-8.208.048-.924.05-1.846-.072-2.767a3.296 3.296 0 0 0-.69-1.617c-.134-.172-.37-.211-.53-.11-.19.12-.243.303-.212.512a.719.719 0 0 0 .097.276c.435.678.455 1.441.42 2.2-.132 2.935-.288 5.868-.429 8.802-.074 1.549-.105 3.099-.21 4.648-.186 2.766-.266 5.539-.475 8.303-.34 4.51-.926 8.991-1.953 13.401-.547 2.351-1.313 4.626-2.525 6.735-.65 1.13-1.462 2.102-2.42 2.982-2.236 2.053-4.88 3.219-7.847 3.692-2.086.333-4.088-.019-5.958-.968-2.766-1.405-4.841-3.54-6.2-6.317-1.365-2.79-2.354-5.731-3.15-8.73-.627-2.357-1.202-4.728-1.778-7.098-.437-1.796-.716-3.623-.997-5.448-.438-2.835-.89-5.669-1.294-8.509-.218-1.535-.366-3.079-.519-4.622-.182-1.839-.367-3.678-.49-5.522-.166-2.471-.184-4.944.062-7.416a71 71 0 0 1 1.438-8.882c.743-3.235 2.131-6.154 4.32-8.678 1.341-1.545 2.92-2.77 4.78-3.608 1.489-.669 3.079-1.09 4.696-1.066 2.057.03 4.07.457 5.842 1.603 1.535.993 2.663 2.363 3.42 4.015.507 1.108.926 2.256 1.368 3.392.119.304.166.635.27.945.05.147-.002.25-.06.366-.742 1.501-.979 3.14-1.278 4.759-.204 1.102-.38 2.21-.578 3.313a7.237 7.237 0 0 1-.238.959c-.357 1.097-1.067 1.877-2.138 2.322-.395.164-.8.308-1.184.496-1.04.51-1.58 1.35-1.636 2.514-.03.638.038 1.25.294 1.837.08.182.136.376.235.545.5.854.32 1.634-.207 2.406a23.699 23.699 0 0 1-1.68 2.201c-2.106 2.421-4.01 4.99-5.66 7.741-1.58 2.636-2.952 5.371-3.946 8.288-.567 1.665-.902 3.374-1.075 5.118a85.938 85.938 0 0 0-.226 2.662c-.024.36-.019.727.104 1.078.125.359.396.557.64.468.287-.105.47-.396.344-.715-.155-.391-.15-.776-.103-1.167.165-1.375.308-2.755.529-4.121.37-2.298 1.212-4.447 2.192-6.543a50.541 50.541 0 0 1 7.07-11.056 89.41 89.41 0 0 0 2.174-2.696 8.71 8.71 0 0 0 .853-1.33c.397-.771.435-1.578.085-2.388-.143-.332-.274-.67-.419-1.003-.16-.372-.2-.759-.191-1.16.018-.84.373-1.456 1.156-1.797.301-.132.606-.256.912-.377 1.516-.6 2.484-1.684 2.925-3.253.26-.924.41-1.868.559-2.812.222-1.4.452-2.8.807-4.174.066-.256.125-.515.22-.76.142-.366.227-.819.495-1.054.319-.28.74.075 1.112.156 1.56.344 3.133.422 4.723.292.953-.078 1.893-.242 2.867-.407.184.482.185.876.133 1.271-.171 1.291-.15 2.563.278 3.815.163.477.076.974-.05 1.464-.156.605-.287 1.22-.389 1.836-.07.422-.08.855.01 1.28a.463.463 0 0 0 .508.373c.222-.018.376-.136.424-.349a2.98 2.98 0 0 0 .063-.588c.013-.697.1-1.381.31-2.048.274-.873.31-1.741.011-2.624-.268-.793-.294-1.617-.23-2.448.053-.69.118-1.383-.065-2.068-.025-.092-.061-.206-.029-.284.404-.968.31-2.013.475-3.018.279-1.694.412-3.406.419-5.126 0-.255.148-.338.383-.229.453.21.853.497 1.222.833.54.49.993 1.058 1.44 1.63a14.11 14.11 0 0 0 3.39 3.155c1.665 1.093 3.39 1.151 5.176.363a6.864 6.864 0 0 0 1.808-1.199c2.144-1.927 4.076-4.04 5.694-6.434.76-1.126 1.35-2.338 1.873-3.588.542-1.3.78-2.66.766-4.056-.013-1.287-.104-2.572-.15-3.858-.047-1.358-.227-1.222 1.187-1.117.986.073 1.962.266 2.946.36.886.084 1.778.11 2.668.156 3.609.181 7.129.808 10.554 1.99 2.783.961 5.471 2.107 7.954 3.705a16.649 16.649 0 0 1 2.131 1.608c2.074 1.866 3.136 4.219 3.222 6.983.075 2.407.083 4.819.047 7.228-.037 2.411.143 4.818.095 7.227Z" opacity=".6"/>
  <path fill="url(#d)" d="m63.599 56.172.03-.293c.058.07.128.134.166.214.017.035-.017.12-.055.15-.056.044-.114.007-.141-.07Z" opacity=".6"/>
  <path fill="url(#e)" d="M95.313 111.176c.594.007 1.183.05 1.774.131 1.314.18 2.33.86 3.209 1.798.206.22.376.461.412.771.021.175-.025.338-.164.441a.455.455 0 0 1-.555.001c-.13-.092-.222-.237-.326-.362-.791-.952-1.762-1.55-3.027-1.673a13.996 13.996 0 0 0-2.37-.016c-2.275.165-4.512.579-6.727 1.095-3.753.873-7.493 1.804-11.17 2.963-1.161.366-2.301.798-3.453 1.195a51.58 51.58 0 0 1-1.5.495 1.84 1.84 0 0 1-.483.079c-.23.007-.461-.197-.484-.414-.023-.223.103-.373.283-.474.083-.047.187-.056.28-.086.407-.129.826-.231 1.218-.395 3.048-1.275 6.225-2.141 9.415-2.962 1.978-.508 3.961-.996 5.949-1.463a46.48 46.48 0 0 1 6.335-1.049c.46-.042.922-.051 1.383-.075Z" opacity=".6"/>
  <path fill="url(#f)" d="M98.485 94.95c-.004-4.028.205-7.284.763-10.511.095-.552.214-1.1.34-1.645a1.02 1.02 0 0 1 .214-.433c.14-.158.344-.184.544-.098.211.09.302.27.254.48-.838 3.654-1.052 7.372-1.069 11.1-.01 2.341.042 4.687.332 7.016.08.654.2 1.304.293 1.956.042.293.081.588.091.883a.492.492 0 0 1-.4.49c-.203.032-.46-.126-.539-.35-.043-.123-.057-.256-.083-.385a29.452 29.452 0 0 1-.524-3.82c-.122-1.81-.17-3.625-.216-4.683Z" opacity=".6"/>
  <path fill="url(#g)" d="M78.292 57.491c-.788.023-1.625-.146-2.451-.374a5.01 5.01 0 0 1-1.742-.896 2.055 2.055 0 0 1-.663-.843 1.518 1.518 0 0 1-.097-.869c.056-.32.366-.575.614-.526.279.055.605.373.504.631-.224.57.122.79.497 1 .341.192.7.376 1.073.486 2.34.692 4.55.413 6.604-.939.192-.126.375-.27.578-.375a.44.44 0 0 1 .542.087c.158.159.19.458.034.63a3.2 3.2 0 0 1-.587.516c-1.467.955-3.062 1.5-4.906 1.472Z" opacity=".6"/>
  <path fill="url(#h)" d="M74.093 47.84c-.03-.377.1-.788.252-1.185.34-.889.756-1.748.978-2.68a.642.642 0 0 1 .141-.255c.134-.156.302-.27.514-.182.196.081.334.242.287.463-.082.384-.178.767-.3 1.14-.173.53-.386 1.047-.561 1.577-.113.341-.237.69-.273 1.043-.08.77.363 1.186 1.119 1.088.755-.097 1.466-.347 2.157-.66a3.7 3.7 0 0 1 .64-.236c.166-.04.323.031.416.191a.42.42 0 0 1-.01.465c-.09.132-.203.268-.338.346a7.163 7.163 0 0 1-3.075.964c-1.107.082-1.936-.824-1.947-2.078Z" opacity=".6"/>
  <path fill="url(#i)" d="M81.432 33.268c.838.004 1.62.215 2.345.638.749.437 1.355 1.038 1.924 1.675.308.344.308.685.058.87-.22.164-.496.11-.789-.163-.407-.38-.782-.804-1.22-1.145-1.286-1-2.69-1.104-4.17-.464-.373.16-.657.427-.945.697a.418.418 0 0 1-.454.094c-.21-.08-.342-.373-.256-.569.136-.312.377-.537.645-.73.854-.613 1.814-.9 2.862-.903Z" opacity=".6"/>
  <path fill="url(#j)" d="M70.12 39.397a1.216 1.216 0 0 0-1.46.16c-.224.2-.397.442-.501.724-.229.619-.412 1.25-.406 1.977-.027.412.069.862.243 1.292.334.825 1.028 1.291 1.827 1.25.918-.046 1.639-.608 1.893-1.474.413-1.408-.32-3.214-1.596-3.929Zm-.227 3.122c-.04.208-.148.362-.353.434-.197.068-.456-.045-.586-.25a1.522 1.522 0 0 1-.222-.848c.006-.586.156-.86.43-.88.239-.017.44.172.572.584.1.31.226.62.16.96Zm.912.521c-.171-.06-.274-.266-.235-.469.028-.148.15-.195.265-.25.139.019.3.27.295.456-.004.16-.19.312-.325.263Z" opacity=".6"/>
  <path fill="url(#k)" d="M84.08 39.632a4.524 4.524 0 0 0-.874-1.647c-.374-.457-.874-.561-1.43-.402-.438.125-.739.421-.944.818a3.37 3.37 0 0 0-.384 1.62c.018.712.196 1.373.67 1.92.674.778 1.745.776 2.41-.011.564-.667.802-1.415.551-2.298Zm-1.922.778c-.047.104-.147.212-.3.213a.366.366 0 0 1-.325-.181c-.24-.404-.357-.832-.188-1.3.074-.204.215-.324.43-.326a.387.387 0 0 1 .368.274c.083.242.122.5.174.721-.057.228-.081.426-.16.599Zm.911.665c-.184-.01-.26-.147-.241-.333.015-.142.087-.255.229-.242.182.017.243.17.26.32-.015.168-.123.261-.248.255Z" opacity=".6"/>
</svg>
