<svg xmlns="http://www.w3.org/2000/svg" width="146" height="143" fill="none" viewBox="0 0 146 143">
 
  <defs>
    <linearGradient id="a" x1="118.03" x2="27.181" y1="8.035" y2="129.324" gradientUnits="userSpaceOnUse">
      <stop stop-color="#4437FB"/>
      <stop offset="1" stop-color="#1405E6"/>
    </linearGradient>
    <linearGradient id="b" x1="118.03" x2="27.181" y1="8.035" y2="129.324" gradientUnits="userSpaceOnUse">
      <stop stop-color="#4437FB"/>
      <stop offset="1" stop-color="#1405E6"/>
    </linearGradient>
    <linearGradient id="c" x1="118.03" x2="27.181" y1="8.035" y2="129.324" gradientUnits="userSpaceOnUse">
      <stop stop-color="#4437FB"/>
      <stop offset="1" stop-color="#1405E6"/>
    </linearGradient>
    <linearGradient id="d" x1="118.03" x2="27.181" y1="8.035" y2="129.324" gradientUnits="userSpaceOnUse">
      <stop stop-color="#4437FB"/>
      <stop offset="1" stop-color="#1405E6"/>
    </linearGradient>
    <linearGradient id="e" x1="118.03" x2="27.181" y1="8.035" y2="129.324" gradientUnits="userSpaceOnUse">
      <stop stop-color="#4437FB"/>
      <stop offset="1" stop-color="#1405E6"/>
    </linearGradient>
    <linearGradient id="f" x1="118.03" x2="27.181" y1="8.035" y2="129.324" gradientUnits="userSpaceOnUse">
      <stop stop-color="#4437FB"/>
      <stop offset="1" stop-color="#1405E6"/>
    </linearGradient>
    <linearGradient id="g" x1="118.03" x2="27.181" y1="8.035" y2="129.324" gradientUnits="userSpaceOnUse">
      <stop stop-color="#4437FB"/>
      <stop offset="1" stop-color="#1405E6"/>
    </linearGradient>
    <linearGradient id="h" x1="118.03" x2="27.181" y1="8.035" y2="129.324" gradientUnits="userSpaceOnUse">
      <stop stop-color="#4437FB"/>
      <stop offset="1" stop-color="#1405E6"/>
    </linearGradient>
    <linearGradient id="i" x1="118.03" x2="27.181" y1="8.035" y2="129.324" gradientUnits="userSpaceOnUse">
      <stop stop-color="#4437FB"/>
      <stop offset="1" stop-color="#1405E6"/>
    </linearGradient>
    <linearGradient id="j" x1="118.03" x2="27.181" y1="8.035" y2="129.324" gradientUnits="userSpaceOnUse">
      <stop stop-color="#4437FB"/>
      <stop offset="1" stop-color="#1405E6"/>
    </linearGradient>
  </defs> <g opacity=".6">
    <path fill="url(#a)" d="M61.26 114.685a68.865 68.865 0 0 1-7.213 14.122 48.218 48.218 0 0 1-4.96 6.26c-.918.97-1.878 1.9-2.88 2.791a20.52 20.52 0 0 1-3.27 2.425 17.395 17.395 0 0 1-22.312-3.516 33.435 33.435 0 0 1-4.457-6.621 73.912 73.912 0 0 1-3.25-7.239 25.555 25.555 0 0 1-1.333-3.754c-.335-1.285-.6-2.582-.852-3.879-1.002-5.192-1.76-10.418-2.484-15.647-1.387-10.468-2.436-20.966-3.33-31.486l.355.61a8.952 8.952 0 0 1-1.956-2.102 12.44 12.44 0 0 1-1.29-2.438 15.897 15.897 0 0 1-1.064-5.307 22.933 22.933 0 0 1 .45-5.315 44.777 44.777 0 0 1 1.41-5.046c.494-1.632.967-3.285 1.29-4.93.078-.398.136-.801.174-1.207a3.08 3.08 0 0 0 .006-.526 4.062 4.062 0 0 1-.022-.765 5.156 5.156 0 0 1 1.07-2.683c.31-.406.703-.74 1.152-.984a2.548 2.548 0 0 1 1.57-.274c.503.083.98.284 1.391.587.412.277.762.636 1.03 1.053.48.86.6 1.873.334 2.821-.237.806-.42 1.626-.55 2.456l-.01-.079c.264 1.525.419 3.066.466 4.612a36.704 36.704 0 0 1-.127 4.606l-.155-.01a36.392 36.392 0 0 0-.148-4.568 32.88 32.88 0 0 0-.722-4.482l-.01-.04.001-.04a18.1 18.1 0 0 1 .457-2.604 2.866 2.866 0 0 0-.308-2.173 2.781 2.781 0 0 0-1.78-1.12 1.888 1.888 0 0 0-1.689.926 4.176 4.176 0 0 0-.765 2.076c-.007.176.003.351.03.524.03.254.037.51.02.764a13.1 13.1 0 0 1-.16 1.353c-.297 1.747-.734 3.424-1.193 5.102a43.43 43.43 0 0 0-1.25 4.937 22.11 22.11 0 0 0-.388 4.964c.05 1.636.381 3.251.978 4.775a10.83 10.83 0 0 0 1.133 2.115 7.643 7.643 0 0 0 1.543 1.673l.325.243.03.368c.829 10.5 1.732 21.005 2.785 31.487.524 5.24 1.076 10.485 1.956 15.671.236 1.292.483 2.584.798 3.854a25.028 25.028 0 0 0 1.267 3.706 69.502 69.502 0 0 0 3.331 7.136 29.227 29.227 0 0 0 4.572 6.313 16.733 16.733 0 0 0 6.324 4.239 17.217 17.217 0 0 0 7.487.99 18.283 18.283 0 0 0 7.199-2.281 29.084 29.084 0 0 0 5.945-4.9 59.889 59.889 0 0 0 5.023-5.992 84.897 84.897 0 0 0 7.884-13.611l.142.06Z"/>
    <path fill="url(#b)" d="M25.815 38.297v-13.45l-15.29-2.51v43.65l15.26-4.45.03-.01v-.03l-.14-6.2-2.3.44a1.068 1.068 0 0 1-.68-.41v3.11l-9.01 3.69v-36.07l9.01 2.07v11.56a5.357 5.357 0 0 1 3.12-1.39Zm-2.89 12.89c-.08-.07-.16-.15-.23-.22v1.14a2.39 2.39 0 0 1 .23-.22c.197-.17.429-.293.68-.36l-.68-.34Zm-.23-5.5v1.27a4.07 4.07 0 0 1 .4-.46 4.317 4.317 0 0 1-.4-.81Zm0-2.59v.55c.072-.15.174-.282.3-.39a1.81 1.81 0 0 1-.3-.16Z"/>
    <path fill="url(#c)" d="M22.185 53.786c.021.317.081.63.18.93l-8.68 3.91s.28-19.99 4.65-21.34c-4.5 0-4.49-6.97 0-6.97 4.4 0 4.47 6.68.25 6.95.74.03 2.9.96 3.76 10.23a2.705 2.705 0 0 0 .23 3.34c.03.43.04.88.06 1.35a2.27 2.27 0 0 0-.45 1.6Zm2.778 7.985c1.95 6.418 3.605 12.877 5.287 19.332l2.476 9.692a554.194 554.194 0 0 1 2.432 9.729A122.672 122.672 0 0 1 28.75 81.49a149.392 149.392 0 0 1-3.788-19.719Zm3.873 47.864a13.33 13.33 0 0 1 1.264-2.959 18.33 18.33 0 0 1 1.778-2.653c.668-.85 1.433-1.62 2.28-2.292a7.375 7.375 0 0 1 1.407-.888 2.858 2.858 0 0 1 1.638-.319 8.082 8.082 0 0 0-2.205 2.077l-1.914 2.393c-.65.797-1.298 1.604-2.002 2.378a23.13 23.13 0 0 1-2.246 2.263Z"/>
    <path fill="url(#d)" d="M78.549 86.617c-2.405 4.75-4.83 9.485-7.085 14.291a169.39 169.39 0 0 0-3.273 7.241 52.607 52.607 0 0 0-2.618 7.402l-.159.639-.615-.118a56.077 56.077 0 0 1-8.442-2.397 67.106 67.106 0 0 1-7.991-3.526 56.576 56.576 0 0 1-7.362-4.68 36.04 36.04 0 0 1-6.148-6.221l-.124-.16.092-.207c2.874-6.512 5.859-12.974 9.146-19.296 1.64-3.162 3.308-6.315 5.133-9.391.916-1.537 1.863-3.06 2.896-4.542a35.993 35.993 0 0 1 1.651-2.177 10.792 10.792 0 0 1 2.09-2.008l-.078.058a60.417 60.417 0 0 1 6.118-4.224 70.254 70.254 0 0 1 6.488-3.548 66.39 66.39 0 0 1 6.82-2.833 57.73 57.73 0 0 1 7.094-1.977l.037.15a69.523 69.523 0 0 0-6.876 2.493 65.476 65.476 0 0 0-6.574 3.149c-2.136 1.154-4.237 2.374-6.258 3.717a69.574 69.574 0 0 0-5.836 4.277l-.078.058a16.8 16.8 0 0 0-3.24 3.808 82.85 82.85 0 0 0-2.838 4.445 226.579 226.579 0 0 0-5.24 9.237 686.799 686.799 0 0 0-4.956 9.42c-1.621 3.157-3.272 6.306-4.831 9.494l-.033-.366a30.377 30.377 0 0 0 5.857 6.249 40.883 40.883 0 0 0 7.31 4.559 60.293 60.293 0 0 0 8.049 3.091 69.422 69.422 0 0 0 8.342 2.001l-.774.521a44.06 44.06 0 0 1 2.711-7.627c1.069-2.456 2.245-4.857 3.469-7.228 2.485-4.724 5.112-9.363 7.992-13.852l.133.078Z"/>
    <path fill="url(#e)" d="M66.395 58.625a12.428 12.428 0 0 1 4.737-.511 12.05 12.05 0 0 1 4.707 1.305 8.578 8.578 0 0 1 3.514 3.497 8.674 8.674 0 0 1 .988 4.697 15.254 15.254 0 0 0-2.01-4.053 9.59 9.59 0 0 0-3.229-2.78 16.493 16.493 0 0 0-4.144-1.474 36.715 36.715 0 0 0-4.563-.68Zm6.973-46.608a13.947 13.947 0 0 0-1.119 3.385 23.794 23.794 0 0 0-.399 3.517c-.035 1.176 0 2.354.106 3.526.11 1.17.3 2.332.51 3.489l.05.281-.174.248a99.157 99.157 0 0 0-1.696 2.509c-.552.838-1.107 1.69-1.563 2.541a8.316 8.316 0 0 0-.307.625l-.1.27c-.013.039 0 .031-.009.047l-.01.014a.146.146 0 0 0 .004-.073c-.073-.195-.066-.063.12.004.183.091.374.164.57.217.932.24 1.886.387 2.846.44l.55.04.135.522c.362 1.395.8 2.77 1.31 4.117a30.553 30.553 0 0 0 1.78 3.942 15.699 15.699 0 0 0 2.478 3.497 6.42 6.42 0 0 0 3.75 1.984 6.246 6.246 0 0 1-4.162-1.523 14.293 14.293 0 0 1-2.978-3.413 28.141 28.141 0 0 1-2.104-3.986 35.13 35.13 0 0 1-1.52-4.25l.686.56a16.096 16.096 0 0 1-3.192-.457 4.533 4.533 0 0 1-.858-.321 2.186 2.186 0 0 1-.479-.313 1.356 1.356 0 0 1-.255-.29.993.993 0 0 1-.187-.433 1.927 1.927 0 0 1-.04-.259l.02-.174c.013-.11.035-.22.065-.328.054-.148.109-.31.169-.444.12-.261.244-.512.375-.743.52-.939 1.093-1.789 1.673-2.645a69.015 69.015 0 0 1 1.82-2.493l-.123.529-.235-1.824c-.034-.614-.095-1.224-.104-1.837a23.04 23.04 0 0 1 .172-3.672c.15-1.216.421-2.413.811-3.575.362-1.163.907-2.26 1.614-3.251Z"/>
    <path fill="url(#f)" d="M70.672 10.715s7.81 10.412 15.061 11.621c0 0 3.533-7.158 6.694-2.324 3.16 4.834 0 9.576-1.952 10.04 0 0-9.483 8.647-8.925 22.406 0 0 17.943 1.767 29.843-3.44 11.9-5.206 17.478-10.04 17.478-10.04s-13.016-12.458-16.548-21.383C108.79 8.67 107.488-1.185 95.96.116 84.432 1.418 78.853 3.091 70.672 10.715Z"/>
    <path fill="url(#g)" d="M73.667 38.21c.887-.21 1.755-.492 2.597-.842.383-.18.74-.412 1.063-.688a5.62 5.62 0 0 0 .876-1.049 2.38 2.38 0 0 1-.418 1.444 3.118 3.118 0 0 1-1.19.993c-.92.425-1.97.476-2.928.142Zm2.397-12.015a1.163 1.163 0 0 0 0-2.324 1.162 1.162 0 0 0 0 2.324Zm-2.397-3.58a2.46 2.46 0 0 1 1.082-1.08c.442-.25.914-.442 1.405-.57a6.703 6.703 0 0 1 2.978-.116c-.904.356-1.834.645-2.78.865-.46.114-.91.242-1.36.371-.462.12-.907.299-1.325.53Zm17.18 4.963a.872.872 0 0 0 0-1.743.872.872 0 0 0 0 1.743Zm32.032 15.54a29.912 29.912 0 0 1 7.59 2.713 33.731 33.731 0 0 1 6.756 4.515 25.973 25.973 0 0 1 5.226 6.27 20.247 20.247 0 0 1 2.597 7.65 32.04 32.04 0 0 0-3.616-7 33.43 33.43 0 0 0-5.228-5.755 49.016 49.016 0 0 0-6.323-4.629 68.371 68.371 0 0 0-7.002-3.764Z"/>
    <path fill="url(#h)" d="m25.815 61.527-.277-6.228.162.131-2.29.49a.166.166 0 0 1-.056.003l-.011-.002a1.258 1.258 0 0 1-.807-.474l.01.011a2.994 2.994 0 0 1-.583-1.684 2.498 2.498 0 0 1 .483-1.738l-.012.017.073-.1.006-.006c.138-.151.293-.287.46-.404.178-.122.375-.213.583-.268l-.066.48-.684-.332a.241.241 0 0 1-.05-.033l-.006-.005a3.679 3.679 0 0 1-.895-1.13 2.786 2.786 0 0 1-.264-1.452c.05-.486.2-.957.437-1.384.116-.208.249-.402.374-.603.141-.192.312-.372.47-.556l-.054.408a4.998 4.998 0 0 1-.668-1.764 2.457 2.457 0 0 1 .07-1.006c.101-.352.299-.668.57-.914l.083.59a3.119 3.119 0 0 1-.972-.671c-.296-.3-.485-.69-.537-1.11a2.769 2.769 0 0 1 .875-2.114 5.613 5.613 0 0 1 3.9-1.794 11.43 11.43 0 0 1 2.137.018c.353.035.704.089 1.053.154l.525.113c.207.055.403.145.58.266.356.224.638.548.81.93.156.388.201.81.13 1.222a5.13 5.13 0 0 1-.961 2l-.139-.537c.45.223.868.506 1.243.841.392.34.707.76.923 1.232a2.34 2.34 0 0 1 .098 1.59c-.15.496-.4.954-.736 1.347l-.03-.461c.453.441.85.936 1.184 1.474.357.544.591 1.158.688 1.801a2.685 2.685 0 0 1-.49 1.917 4.268 4.268 0 0 1-1.482 1.222l.124-.337a8.69 8.69 0 0 1 .484 2.562 5.378 5.378 0 0 1-.496 2.564 3.792 3.792 0 0 1-1.862 1.812 6 6 0 0 1-1.218.444c-.42.09-.847.135-1.268.204l.035-.01a5.204 5.204 0 0 0-1.609 1.282l-.004.004s-.002-.002-.013-.003l-.014.038a5.136 5.136 0 0 0-1.126 2.422 5.195 5.195 0 0 1 1.033-2.497l-.013.037a.254.254 0 0 1 .046-.083l-.004.005a5.353 5.353 0 0 1 1.612-1.4l.014-.005.02-.004c.409-.086.822-.147 1.222-.252a5.726 5.726 0 0 0 1.135-.471 3.584 3.584 0 0 0 1.641-1.703 4.937 4.937 0 0 0 .392-2.363 8.224 8.224 0 0 0-.509-2.384.274.274 0 0 1 .11-.33l.014-.008c.494-.261.923-.63 1.255-1.08.305-.436.429-.974.347-1.5a5.59 5.59 0 0 0-1.702-2.865.348.348 0 0 1-.036-.454l.005-.007c.27-.32.471-.692.592-1.092a1.64 1.64 0 0 0-.077-1.144 3.888 3.888 0 0 0-1.827-1.694l-.005-.003a.365.365 0 0 1-.162-.488l.029-.047c.388-.5.666-1.078.814-1.694a1.324 1.324 0 0 0-.621-1.403 1.239 1.239 0 0 0-.354-.164l-.486-.1c-.328-.06-.66-.104-.992-.14a10.683 10.683 0 0 0-1.992-.033 4.885 4.885 0 0 0-3.434 1.524 2.12 2.12 0 0 0-.716 1.561 1.693 1.693 0 0 0 1.06 1.224l.013.006a.347.347 0 0 1 .07.583c-.154.16-.269.353-.334.565a1.792 1.792 0 0 0-.054.732c.033.264.101.522.203.767l.357.733a.374.374 0 0 1-.047.402l-.006.006c-.13.157-.27.3-.395.463-.113.176-.238.348-.344.527-.208.35-.342.737-.395 1.14a2.463 2.463 0 0 0 .915 2.124l-.056-.038.676.349a.256.256 0 0 1-.066.48c-.144.039-.282.1-.408.182a2.292 2.292 0 0 0-.368.306l.019-.025-.06.079-.013.016c-.31.4-.46.903-.42 1.408.002.516.155 1.02.441 1.45l.01.011a.89.89 0 0 0 .553.346h-.067l2.309-.389h.006a.134.134 0 0 1 .154.109l.002.022.004 6.234Z"/>
    <path fill="url(#i)" d="M28.917 57.072a2.892 2.892 0 0 0-1.047-1.549 1.296 1.296 0 0 0-.818-.185 4.834 4.834 0 0 0-.908.216c-.654.205-1.32.366-1.994.482-.367.057-.74.054-1.106-.011a1.182 1.182 0 0 1-.951-.828l.012.031a4.074 4.074 0 0 1-.227-1.097c-.028-.37.005-.741.099-1.1a2.56 2.56 0 0 1 .481-.985c.23-.284.504-.528.812-.723l.013.22a3.392 3.392 0 0 1-1.202-.962 2.471 2.471 0 0 1-.514-1.495 3.495 3.495 0 0 1 .393-1.54c.132-.223.255-.455.397-.672l.466-.615.037.507a3.103 3.103 0 0 1-.89-1.309 2.196 2.196 0 0 1 .092-1.638 2.5 2.5 0 0 1 1.1-1.18 5.735 5.735 0 0 1 1.41-.473c.92-.23 1.86-.365 2.808-.403a5.003 5.003 0 0 1 2.76.584.038.038 0 0 1 .012.053.04.04 0 0 1-.047.015 5.692 5.692 0 0 0-2.685-.148c-.9.133-1.786.34-2.652.616-.416.108-.82.26-1.205.453a1.87 1.87 0 0 0-.76.822 1.79 1.79 0 0 0 .52 2.064l.014.014a.36.36 0 0 1 .023.493c-.312.35-.597.722-.853 1.114-.234.387-.39.817-.459 1.264-.048.45.058.903.302 1.285.256.394.613.713 1.034.924l.005.003a.126.126 0 0 1 .008.217 2.355 2.355 0 0 0-.745.656 2.002 2.002 0 0 0-.376.903 3.41 3.41 0 0 0 .336 1.902l.004.007.008.024c.158.423.813.406 1.436.327.65-.094 1.293-.222 1.928-.384a3.737 3.737 0 0 1 1.057-.17 1.78 1.78 0 0 1 1.071.38 2.683 2.683 0 0 1 .877 1.879.039.039 0 0 1-.034.042.043.043 0 0 1-.042-.03Z"/>
    <path fill="url(#j)" d="M23.242 51.14a18.255 18.255 0 0 1 2.26-.65c.385-.08.78-.119 1.168-.173.394-.028.79-.028 1.184 0a4.675 4.675 0 0 1 2.244.681 3.547 3.547 0 0 1 1.445 1.775 3.451 3.451 0 0 0-1.542-1.607 4.388 4.388 0 0 0-2.16-.462 7.94 7.94 0 0 0-1.111.093c-.365.085-.732.152-1.09.257-.717.222-1.418.49-2.1.8l-.016.008a.388.388 0 0 1-.312-.711l.03-.012Zm8.299-4.294a3.888 3.888 0 0 0-1.893-1.134 5.942 5.942 0 0 0-2.195-.162c-.734.072-1.458.224-2.159.454-.347.13-.696.246-1.038.385l-1.034.466a.384.384 0 0 1-.315-.7l.03-.012 1.09-.383c.368-.115.744-.206 1.114-.31a10.556 10.556 0 0 1 2.295-.283 6.226 6.226 0 0 1 2.272.363 3.98 3.98 0 0 1 1.833 1.316Zm-3.48-28.631a34.623 34.623 0 0 1 3.958-2.366c1.35-.718 2.736-1.353 4.129-1.971 1.404-.592 2.816-1.166 4.263-1.657a34.233 34.233 0 0 1 4.437-1.258 34.237 34.237 0 0 1-3.957 2.368c-1.35.717-2.736 1.352-4.13 1.969-1.404.59-2.816 1.164-4.264 1.654-1.449.519-2.93.94-4.435 1.26Zm5.312 6.414a24.126 24.126 0 0 1 3.793-.602c1.264-.123 2.529-.156 3.793-.172 1.264.014 2.529.047 3.793.17 1.279.1 2.547.301 3.793.605a23.866 23.866 0 0 1-3.793.604c-1.264.123-2.529.156-3.793.17-1.264-.016-2.529-.049-3.793-.172a24.126 24.126 0 0 1-3.793-.603Zm0 8.275a15.035 15.035 0 0 1 3.015.136c.981.126 1.953.31 2.911.554.96.236 1.904.532 2.827.885.95.342 1.861.78 2.722 1.307a14.873 14.873 0 0 1-3.016-.134 24.162 24.162 0 0 1-2.91-.556 24.42 24.42 0 0 1-2.827-.888 15.09 15.09 0 0 1-2.722-1.304Z"/>
  </g>
</svg>
