<svg xmlns="http://www.w3.org/2000/svg" width="161" height="130" fill="none" viewBox="0 0 161 130">
  <defs>
    <linearGradient id="a" x1="74.644" x2="22.704" y1="4.716" y2="79.996" gradientUnits="userSpaceOnUse">
      <stop stop-color="#4437FB"/>
      <stop offset="1" stop-color="#1405E6"/>
    </linearGradient>
    <linearGradient id="b" x1="143.437" x2="90.371" y1="48.997" y2="125.668" gradientUnits="userSpaceOnUse">
      <stop stop-color="#4437FB"/>
      <stop offset="1" stop-color="#1405E6"/>
    </linearGradient>
  </defs>  <g opacity=".5">
    <path fill="url(#a)" d="M31.937 63.265c-.134-2.99-.25-5.931-.335-8.844a442.845 442.845 0 0 1-.192-8.68c-.02-2.558-.02-5.117.02-7.675-2.77-.038-5.539-.067-8.308-.134a452.1 452.1 0 0 1-8.786-.288c-.086 2.76-.191 5.529-.201 8.288a169.7 169.7 0 0 0 .125 8.824l.364 8.824c.076 2.674.076 5.347.048 8.01 2.72.039 5.442.125 8.21.25l4.657.239 4.8.259-.402-9.073ZM78.97 22.947c-.144-2.098-.259-4.13-.268-6.16-.614-.01-1.217-.03-1.83-.049l-2.846-.086c-1.734-.038-3.468-.172-5.203-.306a70.2 70.2 0 0 0-.182 3.17c-.019 1.256-.028 2.502.039 3.747.124 2.214.412 4.426.479 6.64a75.29 75.29 0 0 1 4.599.192c1.859.143 3.775.344 5.892.575-.259-2.731-.508-5.28-.68-7.723Zm0 0c-.144-2.098-.259-4.13-.268-6.16-.614-.01-1.217-.03-1.83-.049l-2.846-.086c-1.734-.038-3.468-.172-5.203-.306a70.2 70.2 0 0 0-.182 3.17c-.019 1.256-.028 2.502.039 3.747.124 2.214.412 4.426.479 6.64a75.29 75.29 0 0 1 4.599.192c1.859.143 3.775.344 5.892.575-.259-2.731-.508-5.28-.68-7.723ZM31.937 63.265c-.134-2.99-.25-5.931-.335-8.844a442.845 442.845 0 0 1-.192-8.68c-.02-2.558-.02-5.117.02-7.675-2.77-.038-5.539-.067-8.308-.134a452.1 452.1 0 0 1-8.786-.288c-.086 2.76-.191 5.529-.201 8.288a169.7 169.7 0 0 0 .125 8.824l.364 8.824c.076 2.674.076 5.347.048 8.01 2.72.039 5.442.125 8.21.25l4.657.239 4.8.259-.402-9.073Zm0 0c-.134-2.99-.25-5.931-.335-8.844a442.845 442.845 0 0 1-.192-8.68c-.02-2.558-.02-5.117.02-7.675-2.77-.038-5.539-.067-8.308-.134a452.1 452.1 0 0 1-8.786-.288c-.086 2.76-.191 5.529-.201 8.288a169.7 169.7 0 0 0 .125 8.824l.364 8.824c.076 2.674.076 5.347.048 8.01 2.72.039 5.442.125 8.21.25l4.657.239 4.8.259-.402-9.073ZM78.97 22.947c-.144-2.098-.259-4.13-.268-6.16-.614-.01-1.217-.03-1.83-.049l-2.846-.086c-1.734-.038-3.468-.172-5.203-.306a70.2 70.2 0 0 0-.182 3.17c-.019 1.256-.028 2.502.039 3.747.124 2.214.412 4.426.479 6.64a75.29 75.29 0 0 1 4.599.192c1.859.143 3.775.344 5.892.575-.259-2.731-.508-5.28-.68-7.723Zm0 0c-.144-2.098-.259-4.13-.268-6.16-.614-.01-1.217-.03-1.83-.049l-2.846-.086c-1.734-.038-3.468-.172-5.203-.306a70.2 70.2 0 0 0-.182 3.17c-.019 1.256-.028 2.502.039 3.747.124 2.214.412 4.426.479 6.64a75.29 75.29 0 0 1 4.599.192c1.859.143 3.775.344 5.892.575-.259-2.731-.508-5.28-.68-7.723ZM31.937 63.265c-.134-2.99-.25-5.931-.335-8.844a442.845 442.845 0 0 1-.192-8.68c-.02-2.558-.02-5.117.02-7.675-2.77-.038-5.539-.067-8.308-.134a452.1 452.1 0 0 1-8.786-.288c-.086 2.76-.191 5.529-.201 8.288a169.7 169.7 0 0 0 .125 8.824l.364 8.824c.076 2.674.076 5.347.048 8.01 2.72.039 5.442.125 8.21.25l4.657.239 4.8.259-.402-9.073Zm0 0c-.134-2.99-.25-5.931-.335-8.844a442.845 442.845 0 0 1-.192-8.68c-.02-2.558-.02-5.117.02-7.675-2.77-.038-5.539-.067-8.308-.134a452.1 452.1 0 0 1-8.786-.288c-.086 2.76-.191 5.529-.201 8.288a169.7 169.7 0 0 0 .125 8.824l.364 8.824c.076 2.674.076 5.347.048 8.01 2.72.039 5.442.125 8.21.25l4.657.239 4.8.259-.402-9.073ZM78.97 22.947c-.144-2.098-.259-4.13-.268-6.16-.614-.01-1.217-.03-1.83-.049l-2.846-.086c-1.734-.038-3.468-.172-5.203-.306a70.2 70.2 0 0 0-.182 3.17c-.019 1.256-.028 2.502.039 3.747.124 2.214.412 4.426.479 6.64a75.29 75.29 0 0 1 4.599.192c1.859.143 3.775.344 5.892.575-.259-2.731-.508-5.28-.68-7.723Zm0 0c-.144-2.098-.259-4.13-.268-6.16-.614-.01-1.217-.03-1.83-.049l-2.846-.086c-1.734-.038-3.468-.172-5.203-.306a70.2 70.2 0 0 0-.182 3.17c-.019 1.256-.028 2.502.039 3.747.124 2.214.412 4.426.479 6.64a75.29 75.29 0 0 1 4.599.192c1.859.143 3.775.344 5.892.575-.259-2.731-.508-5.28-.68-7.723ZM31.937 63.265c-.134-2.99-.25-5.931-.335-8.844a442.845 442.845 0 0 1-.192-8.68c-.02-2.558-.02-5.117.02-7.675-2.77-.038-5.539-.067-8.308-.134a452.1 452.1 0 0 1-8.786-.288c-.086 2.76-.191 5.529-.201 8.288a169.7 169.7 0 0 0 .125 8.824l.364 8.824c.076 2.674.076 5.347.048 8.01 2.72.039 5.442.125 8.21.25l4.657.239 4.8.259-.402-9.073ZM82.296 0H9.612A9.564 9.564 0 0 0 .05 9.562v64.711a9.564 9.564 0 0 0 9.562 9.562h58.723V69.77c-2.328.374-4.657.575-6.985.719-2.395.153-4.79.191-7.186.21-2.395-.019-4.79-.067-7.186-.21a69.895 69.895 0 0 1-7.176-.748 67.258 67.258 0 0 1 7.176-.747c2.396-.153 4.79-.192 7.186-.21 2.395.018 4.79.057 7.186.21 2.34.116 4.67.356 6.985.719v-6.956a64.465 64.465 0 0 1-7.138.747c-2.376.153-4.752.201-7.129.21-2.385-.018-4.761-.057-7.138-.21a66.628 66.628 0 0 1-7.128-.747c2.361-.374 4.74-.62 7.128-.738 2.377-.153 4.753-.201 7.139-.22 2.376.019 4.752.057 7.128.21 2.39.126 4.773.376 7.138.748v-6.535a69.025 69.025 0 0 1-6.985.719c-2.395.153-4.79.192-7.186.21-2.395-.018-4.79-.057-7.186-.21a69.725 69.725 0 0 1-7.176-.748 69.838 69.838 0 0 1 7.176-.747c2.396-.153 4.79-.191 7.186-.21 2.395.019 4.79.057 7.186.21 2.339.121 4.67.361 6.985.719v-.958a9.565 9.565 0 0 1 9.562-9.572h13.96V9.562A9.557 9.557 0 0 0 82.294 0Zm-56.3 15.033c4.053-.153 8.106-.192 12.16-.21 4.052.018 8.105.057 12.158.21 4.062.144 8.115.345 12.168.747-4.053.403-8.106.604-12.168.748-4.053.153-8.106.191-12.159.21-4.053-.019-8.106-.057-12.158-.21-4.053-.144-8.106-.355-12.159-.748 4.053-.393 8.106-.603 12.159-.747Zm0 7.579c4.053-.154 8.106-.202 12.16-.22 4.052.018 8.105.057 12.158.21 4.062.144 8.115.354 12.168.747-4.053.403-8.106.614-12.168.747-4.053.154-8.106.202-12.159.212-4.053-.02-8.106-.058-12.158-.212-4.053-.143-8.106-.344-12.159-.747 4.053-.393 8.106-.603 12.159-.737Zm7.416 23.512a551.54 551.54 0 0 1-.2 8.968c-.087 2.97-.196 5.908-.327 8.815a564.59 564.59 0 0 1-.411 8.565l-4.484.268-4.628.24c-3.133.134-6.333.23-9.524.258l-.824.01-.01-.843a193.32 193.32 0 0 1 .049-8.825l.354-8.824c.115-2.941.163-5.882.124-8.824-.01-2.941-.124-5.883-.22-8.824l-.019-.508.546-.019c3.095-.134 6.19-.24 9.284-.297 3.095-.077 6.19-.105 9.284-.154l.959-.019.019.997c.057 2.999.048 6.007.028 9.016Zm4.743-14.43c-4.053-.019-8.106-.057-12.158-.21-4.053-.134-8.106-.345-12.159-.738 4.053-.402 8.106-.613 12.159-.747 4.052-.154 8.105-.192 12.158-.21 4.053.008 8.106.056 12.159.21 4.062.134 8.115.345 12.168.747-4.053.393-8.106.604-12.168.747-4.053.144-8.106.192-12.159.202Zm23.043 18.272c-2.376.153-4.752.191-7.129.21-2.385-.019-4.761-.066-7.138-.22a66.564 66.564 0 0 1-7.128-.738 66.6 66.6 0 0 1 7.128-.747c2.377-.153 4.753-.191 7.139-.21 2.376.01 4.752.057 7.128.21a64.27 64.27 0 0 1 7.138.748 69.265 69.265 0 0 1-7.138.747Zm0-7.3c-2.376.152-4.752.19-7.129.21-2.385-.02-4.761-.058-7.138-.21a69.11 69.11 0 0 1-7.128-.748 69.22 69.22 0 0 1 7.128-.748c2.377-.153 4.753-.191 7.139-.21 2.376.019 4.752.057 7.128.21 2.39.121 4.774.37 7.138.748a64.465 64.465 0 0 1-7.138.747ZM80.465 23.57a154.91 154.91 0 0 1-.68 7.243 90.45 90.45 0 0 1-5.49.575 81.25 81.25 0 0 1-5.96.21l-.861-.009.01-.843c0-2.5.363-4.991.497-7.483.077-1.246.067-2.49.048-3.746-.038-1.245-.134-2.491-.22-3.737l-.029-.479.556-.048c1.897-.153 3.794-.297 5.691-.345l2.845-.086c.95-.019 1.898-.067 2.846-.067l1.016.01.01 1.015c.028 2.616-.106 5.25-.279 7.79Zm-1.762-6.784c-.614-.01-1.217-.028-1.83-.048l-2.846-.086c-1.734-.038-3.468-.172-5.203-.306a70.2 70.2 0 0 0-.182 3.17c-.019 1.256-.028 2.502.039 3.747.124 2.214.412 4.426.479 6.64a75.29 75.29 0 0 1 4.599.192c1.859.143 3.775.344 5.892.575-.259-2.731-.508-5.28-.68-7.723-.144-2.098-.259-4.13-.268-6.16ZM31.6 54.421a442.845 442.845 0 0 1-.191-8.68c-.02-2.558-.02-5.117.02-7.675-2.77-.038-5.539-.067-8.308-.134a452.1 452.1 0 0 1-8.786-.288c-.086 2.76-.191 5.529-.201 8.288a169.7 169.7 0 0 0 .125 8.824l.364 8.824c.076 2.674.076 5.347.048 8.01 2.72.039 5.442.125 8.21.25l4.657.239 4.8.259-.402-9.073c-.134-2.99-.25-5.931-.335-8.844Zm.336 8.844c-.134-2.99-.25-5.931-.335-8.844a442.845 442.845 0 0 1-.192-8.68c-.02-2.558-.02-5.117.02-7.675-2.77-.038-5.539-.067-8.308-.134a452.1 452.1 0 0 1-8.786-.288c-.086 2.76-.191 5.529-.201 8.288a169.7 169.7 0 0 0 .125 8.824l.364 8.824c.076 2.674.076 5.347.048 8.01 2.72.039 5.442.125 8.21.25l4.657.239 4.8.259-.402-9.073ZM78.97 22.947c-.144-2.098-.259-4.13-.268-6.16-.614-.01-1.217-.03-1.83-.049l-2.846-.086c-1.734-.038-3.468-.172-5.203-.306a70.2 70.2 0 0 0-.182 3.17c-.019 1.256-.028 2.502.039 3.747.124 2.214.412 4.426.479 6.64a75.29 75.29 0 0 1 4.599.192c1.859.143 3.775.344 5.892.575-.259-2.731-.508-5.28-.68-7.723Zm0 0c-.144-2.098-.259-4.13-.268-6.16-.614-.01-1.217-.03-1.83-.049l-2.846-.086c-1.734-.038-3.468-.172-5.203-.306a70.2 70.2 0 0 0-.182 3.17c-.019 1.256-.028 2.502.039 3.747.124 2.214.412 4.426.479 6.64a75.29 75.29 0 0 1 4.599.192c1.859.143 3.775.344 5.892.575-.259-2.731-.508-5.28-.68-7.723ZM31.937 63.265c-.134-2.99-.25-5.931-.335-8.844a442.845 442.845 0 0 1-.192-8.68c-.02-2.558-.02-5.117.02-7.675-2.77-.038-5.539-.067-8.308-.134a452.1 452.1 0 0 1-8.786-.288c-.086 2.76-.191 5.529-.201 8.288a169.7 169.7 0 0 0 .125 8.824l.364 8.824c.076 2.674.076 5.347.048 8.01 2.72.039 5.442.125 8.21.25l4.657.239 4.8.259-.402-9.073Zm0 0c-.134-2.99-.25-5.931-.335-8.844a442.845 442.845 0 0 1-.192-8.68c-.02-2.558-.02-5.117.02-7.675-2.77-.038-5.539-.067-8.308-.134a452.1 452.1 0 0 1-8.786-.288c-.086 2.76-.191 5.529-.201 8.288a169.7 169.7 0 0 0 .125 8.824l.364 8.824c.076 2.674.076 5.347.048 8.01 2.72.039 5.442.125 8.21.25l4.657.239 4.8.259-.402-9.073ZM78.97 22.947c-.144-2.098-.259-4.13-.268-6.16-.614-.01-1.217-.03-1.83-.049l-2.846-.086c-1.734-.038-3.468-.172-5.203-.306a70.2 70.2 0 0 0-.182 3.17c-.019 1.256-.028 2.502.039 3.747.124 2.214.412 4.426.479 6.64a75.29 75.29 0 0 1 4.599.192c1.859.143 3.775.344 5.892.575-.259-2.731-.508-5.28-.68-7.723Zm0 0c-.144-2.098-.259-4.13-.268-6.16-.614-.01-1.217-.03-1.83-.049l-2.846-.086c-1.734-.038-3.468-.172-5.203-.306a70.2 70.2 0 0 0-.182 3.17c-.019 1.256-.028 2.502.039 3.747.124 2.214.412 4.426.479 6.64a75.29 75.29 0 0 1 4.599.192c1.859.143 3.775.344 5.892.575-.259-2.731-.508-5.28-.68-7.723ZM31.937 63.265c-.134-2.99-.25-5.931-.335-8.844a442.845 442.845 0 0 1-.192-8.68c-.02-2.558-.02-5.117.02-7.675-2.77-.038-5.539-.067-8.308-.134a452.1 452.1 0 0 1-8.786-.288c-.086 2.76-.191 5.529-.201 8.288a169.7 169.7 0 0 0 .125 8.824l.364 8.824c.076 2.674.076 5.347.048 8.01 2.72.039 5.442.125 8.21.25l4.657.239 4.8.259-.402-9.073ZM78.97 22.947c-.144-2.098-.259-4.13-.268-6.16-.614-.01-1.217-.03-1.83-.049l-2.846-.086c-1.734-.038-3.468-.172-5.203-.306a70.2 70.2 0 0 0-.182 3.17c-.019 1.256-.028 2.502.039 3.747.124 2.214.412 4.426.479 6.64a75.29 75.29 0 0 1 4.599.192c1.859.143 3.775.344 5.892.575-.259-2.731-.508-5.28-.68-7.723Zm0 0c-.144-2.098-.259-4.13-.268-6.16-.614-.01-1.217-.03-1.83-.049l-2.846-.086c-1.734-.038-3.468-.172-5.203-.306a70.2 70.2 0 0 0-.182 3.17c-.019 1.256-.028 2.502.039 3.747.124 2.214.412 4.426.479 6.64a75.29 75.29 0 0 1 4.599.192c1.859.143 3.775.344 5.892.575-.259-2.731-.508-5.28-.68-7.723Z"/>
    <path fill="url(#b)" d="M150.486 129.04c-13.952-.027-27.904.256-41.856.465-6.976.137-13.952.156-20.927.211-3.508.027-6.932.051-10.509-.024a10.309 10.309 0 0 1-8.796-6.135 9.62 9.62 0 0 1-.75-2.701 10.913 10.913 0 0 1-.097-1.399l.012-1.312.062-5.232.126-10.464.128-10.464.057-10.464c.058-6.975.025-13.952-.004-20.928l-.02-5.231c-.03-.895.03-1.791.177-2.675.183-.888.48-1.748.885-2.56a9.941 9.941 0 0 1 3.635-3.97 10.07 10.07 0 0 1 5.196-1.519c13.952-.17 27.904-.285 41.855-.346l20.928-.09c3.512-.01 6.923-.045 10.517.023a10.475 10.475 0 0 1 8.951 6.218c.387.875.65 1.799.78 2.746.068.472.105.948.112 1.425l.001 1.314-.008 5.232c-.004 3.488-.006 6.976-.053 10.464-.074 6.976-.12 13.952-.259 20.928l-.335 20.927-.06 5.232c.018.884-.054 1.768-.213 2.638a10.27 10.27 0 0 1-.906 2.493 9.741 9.741 0 0 1-8.629 5.198Zm0-.176a9.504 9.504 0 0 0 8.358-5.163c.384-.767.669-1.58.845-2.42.144-.849.203-1.71.174-2.57l-.059-5.232-.335-20.927c-.139-6.976-.185-13.952-.259-20.928-.047-3.488-.049-6.976-.053-10.464l-.008-5.232-.006-1.302a9.322 9.322 0 0 0-.098-1.18 8.44 8.44 0 0 0-.651-2.266 8.63 8.63 0 0 0-7.397-5.106 15.71 15.71 0 0 0-1.253-.025l-1.308.002-2.616.004-5.232-.016-20.928-.089a4587.959 4587.959 0 0 1-41.855-.347 9.195 9.195 0 0 0-8.157 4.873 9.743 9.743 0 0 0-.866 2.353 12.479 12.479 0 0 0-.211 2.533l-.02 5.232c-.029 6.975-.062 13.952-.004 20.928l.057 10.463.128 10.464.126 10.464.062 5.232.019 1.303c.012.405.05.807.114 1.207.123.797.351 1.574.68 2.31a8.8 8.8 0 0 0 7.551 5.19l10.418.034c6.976.055 13.952.073 20.928.21 13.952.21 27.904.493 41.856.465ZM84.21 92.171c5.905-.485 11.811-.739 17.717-.91 5.906-.188 11.812-.238 17.718-.261 5.906.02 11.812.07 17.718.256 5.905.172 11.811.427 17.717.915-5.906.488-11.812.743-17.717.915-5.906.186-11.812.236-17.718.256-5.906-.023-11.812-.073-17.718-.26-5.906-.172-11.812-.426-17.717-.911Z"/>
  </g>

</svg>
