<svg width="219" height="146" viewBox="0 0 219 146" fill="none" xmlns="http://www.w3.org/2000/svg">

<defs>
<linearGradient id="paint0_linear_272_6900" x1="64.7227" y1="26.8995" x2="51.0957" y2="67.1669" gradientUnits="userSpaceOnUse">
<stop stop-color="#4437FB"/>
<stop offset="1" stop-color="#1405E6"/>
</linearGradient>
<linearGradient id="paint1_linear_272_6900" x1="36.6811" y1="28.3127" x2="27.7492" y2="47.9177" gradientUnits="userSpaceOnUse">
<stop stop-color="#4437FB"/>
<stop offset="1" stop-color="#1405E6"/>
</linearGradient>
<linearGradient id="paint2_linear_272_6900" x1="64.2116" y1="31.1496" x2="28.0131" y2="92.0436" gradientUnits="userSpaceOnUse">
<stop stop-color="#4437FB"/>
<stop offset="1" stop-color="#1405E6"/>
</linearGradient>
<linearGradient id="paint3_linear_272_6900" x1="72.4958" y1="26.0946" x2="34.0963" y2="61.2117" gradientUnits="userSpaceOnUse">
<stop stop-color="#4437FB"/>
<stop offset="1" stop-color="#1405E6"/>
</linearGradient>
<linearGradient id="paint4_linear_272_6900" x1="57.2848" y1="32.6026" x2="54.0884" y2="34.3593" gradientUnits="userSpaceOnUse">
<stop stop-color="#4437FB"/>
<stop offset="1" stop-color="#1405E6"/>
</linearGradient>
<linearGradient id="paint5_linear_272_6900" x1="154.76" y1="1.53442" x2="143.822" y2="34.0089" gradientUnits="userSpaceOnUse">
<stop stop-color="#4437FB"/>
<stop offset="1" stop-color="#1405E6"/>
</linearGradient>
<linearGradient id="paint6_linear_272_6900" x1="150.032" y1="5.27246" x2="128.124" y2="39.9063" gradientUnits="userSpaceOnUse">
<stop stop-color="#4437FB"/>
<stop offset="1" stop-color="#1405E6"/>
</linearGradient>
<linearGradient id="paint7_linear_272_6900" x1="154.92" y1="21.1695" x2="132.106" y2="57.0514" gradientUnits="userSpaceOnUse">
<stop stop-color="#4437FB"/>
<stop offset="1" stop-color="#1405E6"/>
</linearGradient>
<linearGradient id="paint8_linear_272_6900" x1="154.219" y1="25.1572" x2="132.904" y2="56.1709" gradientUnits="userSpaceOnUse">
<stop stop-color="#4437FB"/>
<stop offset="1" stop-color="#1405E6"/>
</linearGradient>
<linearGradient id="paint9_linear_272_6900" x1="174.482" y1="47.5359" x2="119.92" y2="157.648" gradientUnits="userSpaceOnUse">
<stop stop-color="#4437FB"/>
<stop offset="1" stop-color="#1405E6"/>
</linearGradient>
<linearGradient id="paint10_linear_272_6900" x1="195.056" y1="34.2532" x2="120.501" y2="137.091" gradientUnits="userSpaceOnUse">
<stop stop-color="#4437FB"/>
<stop offset="1" stop-color="#1405E6"/>
</linearGradient>
</defs><g opacity="0.5">
<path d="M54.7386 29.5249L54.7335 29.5251C54.7252 29.5254 54.7171 29.5236 54.7098 29.5198L54.7058 29.5177C54.0297 29.1749 53.3353 28.8694 52.6257 28.6027C51.922 28.3352 51.1927 28.0761 50.4836 27.8684L50.5412 27.8767L50.5308 27.877C50.5132 27.8775 50.4956 27.8752 50.4787 27.8702L50.4645 27.8659C46.7178 26.6907 42.8276 26.0354 38.9027 25.9186C36.9466 25.8606 34.9887 25.923 33.0403 26.1055L27.1345 26.6044C23.196 26.9222 19.2501 27.1493 15.3061 27.4004C11.3612 27.6394 7.418 27.8986 3.4804 28.2266L3.56467 27.9249C4.26143 28.4312 4.89884 29.0146 5.4648 29.6638C6.02478 30.3208 6.50203 31.0439 6.88588 31.8171C7.25728 32.5954 7.55164 33.4082 7.76476 34.2438C7.96666 35.0812 8.09619 35.9344 8.15192 36.7939C8.24768 38.5118 8.13214 40.235 7.80791 41.9247C7.50122 43.6219 7.01994 45.2828 6.37172 46.881L5.90275 46.2774C8.67335 45.754 11.4431 45.2259 14.2173 44.7229L22.5365 43.1956L22.0821 43.6052L22.1423 43.4267L22.124 43.4753C22.5265 42.2018 23.3555 41.1058 24.4714 40.372C25.5804 39.64 26.8959 39.285 28.2226 39.3596C29.555 39.4452 30.8192 39.9795 31.809 40.8756C31.9383 40.9792 32.055 41.0976 32.1567 41.2283L32.4782 41.6061C32.6709 41.8723 32.8487 42.1491 33.0105 42.4351C33.1643 42.7188 33.2694 43.0106 33.4001 43.2982C33.461 43.4429 33.5273 43.586 33.5833 43.732L33.7205 44.1779C34.3826 46.5361 34.6371 48.9901 34.4731 51.434C34.3642 53.8449 34.0258 56.2399 33.4626 58.5866L33.0467 58.1693L38.6392 56.9998L44.2433 55.8794C44.2574 55.8765 44.272 55.8793 44.2841 55.8871C44.2962 55.8949 44.3048 55.9072 44.308 55.9212C44.3112 55.9352 44.3088 55.9499 44.3013 55.9622C44.2938 55.9745 44.2818 55.9834 44.2679 55.987L38.7408 57.4367L33.2038 58.8446C33.1481 58.8587 33.0897 58.8586 33.0341 58.8442C32.9784 58.8299 32.9273 58.8017 32.8854 58.7624C32.8435 58.723 32.8122 58.6738 32.7944 58.6191C32.7765 58.5645 32.7727 58.5062 32.7834 58.4498L32.7878 58.4272C33.2347 56.1113 33.4899 53.7625 33.5509 51.4047C33.6514 49.0776 33.3555 46.7503 32.6758 44.5223L32.5447 44.1154C32.4924 43.9841 32.4307 43.8575 32.3744 43.7283C32.2551 43.4756 32.1549 43.2036 32.0219 42.9664C31.8711 42.7461 31.7529 42.501 31.5818 42.2981L31.3196 41.9985C31.239 41.8933 31.1445 41.7994 31.0387 41.7195C30.237 41.0131 29.2206 40.5976 28.1537 40.5401C27.0818 40.4786 26.0186 40.7636 25.1211 41.3529C24.2274 41.9425 23.5586 42.8163 23.223 43.8331L23.2046 43.8819C23.2018 43.8958 23.1975 43.9094 23.1918 43.9224L23.1547 44.0066C23.1171 44.091 23.0594 44.1647 22.9865 44.2215C22.9137 44.2783 22.8281 44.3163 22.7371 44.3322L14.3975 45.744C11.6187 46.2207 8.83537 46.6724 6.05298 47.1287C5.97575 47.1414 5.89653 47.133 5.82368 47.1044C5.75082 47.0758 5.68702 47.0281 5.639 46.9663C5.59098 46.9045 5.56053 46.8309 5.55084 46.7533C5.54114 46.6756 5.55258 46.5968 5.58393 46.5251C6.24514 44.9973 6.76074 43.4105 7.12388 41.7858C7.5016 40.1587 7.67147 38.4903 7.62943 36.8204C7.60211 35.9881 7.5034 35.1597 7.33437 34.3442C7.15529 33.5318 6.88611 32.7419 6.53184 31.9892C6.17071 31.2402 5.71917 30.5383 5.18729 29.8991C4.64697 29.2648 4.03697 28.6933 3.3688 28.1954L3.36414 28.1918C3.3376 28.1712 3.3179 28.143 3.30764 28.111C3.29738 28.079 3.29703 28.0446 3.30664 28.0124C3.31625 27.9802 3.33537 27.9516 3.3615 27.9304C3.38762 27.9092 3.41953 27.8965 3.45304 27.8937C7.39128 27.5738 11.3241 27.1875 15.2548 26.7766C19.1866 26.3785 23.1164 25.9564 27.0537 25.6249L32.9614 25.1501C34.95 24.9804 36.9479 24.9498 38.9407 25.0585C40.9326 25.1688 42.9134 25.429 44.8662 25.837C46.8172 26.2318 48.7336 26.7818 50.597 27.4817L50.5309 27.4706L50.5412 27.4709L50.5568 27.4714C50.5712 27.4719 50.5854 27.4745 50.599 27.4793C51.3375 27.7431 52.0285 28.0362 52.7315 28.3504C53.4308 28.6626 54.1087 29.0204 54.761 29.4217L54.7336 29.4144L54.7387 29.4145C54.753 29.4151 54.7665 29.4212 54.7764 29.4315C54.7863 29.4417 54.7918 29.4555 54.7918 29.4697C54.7918 29.484 54.7863 29.4977 54.7764 29.508C54.7665 29.5183 54.753 29.5244 54.7387 29.5249L54.7386 29.5249ZM78.8894 44.2441C78.5746 42.6675 77.9429 41.1711 77.0325 39.8459C76.5782 39.2106 76.0557 38.627 75.4743 38.1055C74.8855 37.591 74.2544 37.1271 73.5878 36.7185C72.2183 35.9178 70.7571 35.2854 69.236 34.835C67.6936 34.3679 66.1163 34.0244 64.5193 33.8077L64.4885 33.8047C63.9427 33.6526 63.3988 33.4901 62.8567 33.3173C63.4251 33.3453 63.9912 33.3858 64.5556 33.4356L64.525 33.4325C66.1926 33.3597 67.8623 33.5186 69.4863 33.9048C71.1356 34.2763 72.7133 34.9141 74.1574 35.7931C75.6299 36.6803 76.8558 37.9234 77.7224 39.408C78.5558 40.8793 78.9601 42.5547 78.8894 44.2441V44.2441Z" fill="url(#paint0_linear_272_6900)"/>
<path d="M26.6151 39.697C27.5769 39.3247 28.5494 39.0006 29.5287 38.7066C30.5071 38.4086 31.4906 38.1334 32.4791 37.8811C33.4648 37.6154 34.4612 37.3987 35.4539 37.1645C36.4519 36.9551 37.4481 36.7362 38.4538 36.5603L38.6862 36.5197L38.8323 36.6312C39.2446 36.9498 39.625 37.3075 39.9682 37.6995C40.3088 38.0725 40.6218 38.4698 40.9046 38.8883C41.188 39.3017 41.4423 39.7343 41.6657 40.183C41.8908 40.6268 42.0812 41.0875 42.2352 41.5608C41.9472 41.1577 41.6505 40.7675 41.3453 40.3902C41.0358 40.0134 40.7234 39.6375 40.3976 39.2964C40.065 38.9505 39.7248 38.6159 39.3712 38.3009C39.0258 37.9971 38.6641 37.7125 38.2876 37.4482L38.6659 37.5191C37.6802 37.7833 36.6851 38.005 35.6927 38.2399C34.6945 38.449 33.7003 38.6756 32.6953 38.8532C31.6934 39.0457 30.6862 39.2139 29.6736 39.3576C28.6621 39.5069 27.644 39.6261 26.6151 39.697ZM12.6132 27.308C13.7921 28.3983 14.7199 29.7321 15.332 31.2167C15.9721 32.7011 16.376 34.2764 16.5289 35.8857C16.6568 37.491 16.5583 39.1063 16.2363 40.6841C16.1974 40.8802 16.1676 41.0778 16.1212 41.2718L15.9565 41.848L15.6107 42.9905C15.3314 43.7352 15.0046 44.4613 14.662 45.1697C14.7736 44.3794 14.9577 43.6218 15.086 42.8552L15.2478 41.7032L15.3369 41.1321C15.3609 40.9412 15.3681 40.748 15.3846 40.5565C15.4113 40.1726 15.4419 39.7906 15.4822 39.4103C15.5107 39.029 15.4957 38.6457 15.505 38.2647C15.5221 37.5039 15.4972 36.7428 15.4303 35.9849C15.2902 34.4692 14.9884 32.973 14.53 31.5216C14.0682 30.043 13.4244 28.6276 12.6132 27.308V27.308Z" fill="url(#paint1_linear_272_6900)"/>
<path d="M42.5328 38.7938C43.3577 38.4858 44.1877 38.183 45.023 37.8958C44.9768 38.2367 44.9524 38.5803 44.9499 38.9243C44.2347 39.1488 43.5143 39.3628 42.7886 39.5717C42.2978 39.7126 41.8071 39.8536 41.3112 39.9945C41.2433 39.8901 41.1754 39.7909 41.1075 39.6969C41.0397 39.5977 40.9666 39.5038 40.9039 39.415C41.4469 39.201 41.9898 38.9974 42.5328 38.7938ZM50.7605 37.0292C50.1236 37.2484 49.4971 37.4677 48.8602 37.6818H48.855C48.6566 37.3677 48.4256 37.0755 48.1659 36.8099L48.4008 36.7316C49.1056 36.5019 49.8104 36.2722 50.5152 36.0477C50.5987 36.4027 50.6874 36.7316 50.7605 37.0292ZM47.1739 33.5888C48.2233 33.2494 49.2727 32.9101 50.3272 32.5812C50.2132 32.9316 50.1585 33.2986 50.1654 33.6671C49.2831 33.9804 48.3904 34.2779 47.5028 34.5807C45.5347 35.2228 43.556 35.8546 41.5617 36.4236C40.6377 36.6951 39.7084 36.9544 38.7739 37.2015C37.6985 37.4886 36.623 37.7601 35.5319 37.995C35.9652 37.8018 36.3985 37.6087 36.8371 37.4207C36.8423 37.4207 36.8423 37.4207 36.8475 37.4155C38.3197 36.7891 39.8128 36.2095 41.3059 35.6509C43.248 34.9201 45.211 34.2518 47.1739 33.5888ZM55.386 31.7407C55.2972 31.7772 55.2085 31.8138 55.1197 31.8451C54.8915 31.6541 54.6342 31.5008 54.3576 31.3909C54.6395 31.3126 54.9214 31.2343 55.2033 31.156C55.2712 31.3752 55.3338 31.5736 55.386 31.7407ZM5.97889 46.7011C-5.8074 35.9435 3.46874 28.0623 3.46874 28.0623C11.7065 34.0274 5.97889 46.7011 5.97889 46.7011ZM33.1244 58.505C23.3985 61.4061 22.6374 43.7631 22.6374 43.7631C22.6488 43.7269 22.6603 43.6909 22.6719 43.6552C24.1343 39.1632 30.4024 38.5822 32.5649 42.7823C35.4952 48.4738 33.1244 58.505 33.1244 58.505ZM40.4607 56.3979C38.8498 60.3671 37.2018 64.2953 35.6853 68.2597C34.1355 72.1754 32.8294 76.1833 31.7747 80.2603C31.5259 81.2608 31.3348 82.2748 31.2024 83.2972C31.0585 84.2871 31.0629 85.2928 31.2156 86.2814C31.2958 86.7463 31.4535 87.1945 31.6823 87.6071C31.9156 87.9992 32.239 88.33 32.6256 88.5722C33.5082 89.0196 34.5118 89.1698 35.4867 89.0004C37.5575 88.6409 39.5497 87.9234 41.3741 86.88C41.8375 86.6233 42.3015 86.3698 42.759 86.102L44.1117 85.2602C45.0245 84.719 45.8799 84.0853 46.7556 83.49C47.6281 82.8892 48.4579 82.2265 49.3086 81.6L50.5442 80.6044C50.9555 80.2725 51.3786 79.9572 51.7754 79.6074C52.5729 78.914 53.403 78.2639 54.1788 77.5475L55.3612 76.4976L56.5132 75.4143C58.0432 73.9647 59.515 72.4578 60.9287 70.8936C62.3522 69.3411 63.7182 67.7371 65.0521 66.1063C67.7264 62.8369 70.2166 59.4211 72.511 55.8746C73.6621 54.098 74.7666 52.2882 75.8246 50.4453C76.8841 48.6042 77.8981 46.7285 78.8216 44.8061L79.0296 44.8799C77.7802 49.0072 76.0962 52.9901 74.0059 56.7618C71.9426 60.5628 69.5612 64.1822 66.8871 67.5813C64.1842 70.9673 61.1834 74.1043 57.9205 76.9546L56.6959 78.0193L55.4369 79.0432C54.603 79.7316 53.7303 80.3723 52.8579 81.0098C51.9839 81.6454 51.0765 82.2352 50.1771 82.8308C49.2512 83.3889 48.3496 83.9801 47.4084 84.5071C46.4684 85.0356 45.5407 85.5803 44.5819 86.07C43.6316 86.5724 42.684 87.0789 41.7129 87.5487C39.7789 88.5478 37.716 89.275 35.5829 89.7096C34.4454 89.9496 33.2614 89.8303 32.1946 89.3682C31.6438 89.0919 31.1673 88.6876 30.8049 88.1892C30.4643 87.6962 30.2041 87.1522 30.0342 86.5775C29.7332 85.4758 29.6011 84.3348 29.6424 83.1934C29.6725 82.0865 29.7835 80.9833 29.9746 79.8926C30.3644 77.7494 30.9361 75.6433 31.6836 73.5971C32.3997 71.555 33.2182 69.5599 34.1068 67.6001C34.5419 66.6164 35.015 65.6505 35.4913 64.6878C35.9637 63.7232 36.4618 62.7715 36.9746 61.8284C37.9964 59.9405 39.0735 58.0836 40.2662 56.2934L40.4607 56.3979ZM14.5127 30.3487C17.5193 29.8963 20.5339 29.5525 23.5514 29.2468C26.5685 28.9343 29.5902 28.6861 32.6129 28.4505C35.6372 28.2354 38.6624 28.0341 41.6925 27.8969C44.722 27.7528 47.7544 27.6478 50.7949 27.6522C47.7885 28.106 44.7738 28.4505 41.7563 28.7558C38.7393 29.068 35.7175 29.3162 32.6947 29.5505C29.6703 29.7642 26.6451 29.9655 23.615 30.1024C20.5855 30.2462 17.5531 30.3518 14.5127 30.3487Z" fill="url(#paint2_linear_272_6900)"/>
<path d="M51.4394 80.997C51.007 77.1628 50.5912 73.3224 50.2188 69.4779L50.0762 68.0363L50.0049 67.3154C49.9977 67.2592 49.9956 67.1866 49.9844 67.1438C49.9714 67.1096 49.9607 67.0746 49.9526 67.0389C49.9165 66.9426 49.8754 66.8482 49.8294 66.7562C49.4035 65.9489 48.8445 65.1414 48.3257 64.3354C47.2671 62.722 46.2461 61.0678 45.3335 59.3457C44.882 58.4817 44.4566 57.6008 44.0848 56.6918C43.717 55.7712 43.4086 54.8545 43.0892 53.9494C42.4477 52.132 41.8118 50.3128 41.1997 48.4854L40.2709 45.7478L40.0386 45.0634C39.9481 44.8044 39.8874 44.5359 39.8578 44.2632C39.793 43.7084 39.8712 43.1463 40.085 42.6302C40.2977 42.081 40.7021 41.6274 41.2235 41.3533C41.7625 41.1166 42.371 41.0922 42.9272 41.285C43.8837 41.6439 44.7566 42.195 45.4921 42.9042L44.9181 43.2266C44.7854 42.2956 44.7002 41.3584 44.6628 40.4188C44.6447 39.9499 44.6418 39.4757 44.6607 39.0064C44.7004 38.5331 44.7194 38.0522 44.7992 37.5826C44.8679 37.0825 45.0464 36.6037 45.322 36.1807C45.4864 35.9432 45.7291 35.7709 46.0076 35.6941C46.275 35.6392 46.5522 35.6545 46.812 35.7384C47.7496 36.0572 48.5365 36.7111 49.0216 37.5746L48.8551 37.4838H48.8602L48.9682 37.4844L49.0256 37.5727C49.3463 38.0867 49.6366 38.6191 49.895 39.1671C50.015 39.4277 50.1557 39.6782 50.3159 39.9161C50.4147 40.0332 50.4132 40.0315 50.5537 40.0397C50.5978 40.0442 50.6423 40.035 50.681 40.0135C50.7198 39.992 50.7511 39.9592 50.7706 39.9194C50.868 39.6694 50.9071 39.4005 50.8848 39.1331C50.8772 38.8399 50.8541 38.5474 50.8158 38.2566C50.7409 37.6689 50.6252 37.087 50.4695 36.5154C50.3107 35.9333 50.1827 35.3433 50.0861 34.7478C49.9763 34.1387 49.9678 33.5157 50.061 32.9038C50.1194 32.5867 50.2372 32.2834 50.4082 32.0099C50.5879 31.7335 50.8331 31.5057 51.1221 31.3468C51.6927 31.0677 52.3272 30.9454 52.9607 30.9925L52.9281 30.994C53.1982 30.968 53.4706 30.977 53.7384 31.0207C54.0035 31.0635 54.2628 31.1368 54.511 31.2392C55.013 31.4496 55.4481 31.7929 55.7693 32.2323L55.7491 32.2088C55.7909 32.2531 55.8152 32.3109 55.8176 32.3718L55.8137 33.2619L55.4055 32.4697L55.4002 32.4594L55.395 32.4495L55.3863 32.4245C54.6552 30.4864 54.1626 28.4666 53.9194 26.4095C53.8679 25.8765 53.8752 25.3395 53.9412 24.8082C53.9906 24.2157 54.2473 23.6596 54.6662 23.2377C54.9108 23.026 55.2097 22.8871 55.5291 22.8367C55.8386 22.8005 56.1523 22.8325 56.4482 22.9303C56.9768 23.1286 57.46 23.4317 57.8685 23.8213C58.6359 24.5505 59.3103 25.3717 59.8764 26.2661C60.447 27.1352 60.9713 28.0337 61.4472 28.958C62.4383 30.7909 63.2204 32.7293 63.7786 34.7368C64.3106 36.7245 64.8129 38.694 65.4951 40.5947C66.1834 42.4718 67.0138 44.3606 68.3351 45.7295C68.9481 46.4012 69.7696 46.8464 70.667 46.9933C71.1278 47.0413 71.5931 47.0224 72.0485 46.9372C72.5337 46.8703 73.0141 46.7718 73.4866 46.6422C74.4342 46.3855 75.348 46.0171 76.2087 45.5447C77.06 45.0796 77.8465 44.5046 78.5479 43.8344L79.1116 43.2748L79.4119 43.9596C79.7373 44.7289 79.935 45.5461 79.9972 46.3791C80.0648 47.1867 80.0359 47.9996 79.9109 48.8003C79.6454 50.3847 79.0721 51.9017 78.2233 53.2656C77.8019 53.9583 77.2892 54.5912 76.6991 55.1472C76.0987 55.6806 75.4428 56.1482 74.7428 56.5419C74.0541 56.929 73.3484 57.2503 72.7016 57.611C72.0699 57.9168 71.5296 58.3829 71.1347 58.963C70.8053 59.5915 70.6311 60.2897 70.6266 60.9992C70.5762 61.7543 70.5476 62.5157 70.5386 63.2795C70.5195 64.8071 70.549 66.3397 70.6034 67.8714C70.6622 69.4029 70.7217 70.9359 70.821 72.4666C70.9294 73.9945 71.0141 75.5336 71.2711 77.0391L71.1694 77.0625C70.8415 75.5514 70.6895 74.0208 70.512 72.4931C70.3502 70.9639 70.2026 69.4324 70.1018 67.897C69.9999 66.3617 69.9227 64.8241 69.8945 63.2806C69.8798 62.5088 69.8859 61.734 69.9127 60.9562C69.8994 60.126 70.087 59.305 70.4595 58.563C70.9124 57.8553 71.5434 57.2792 72.2894 56.8927C72.9768 56.4932 73.6652 56.1647 74.3081 55.7863C74.9406 55.4148 75.5319 54.9771 76.0719 54.4807C76.5907 53.9721 77.0387 53.3961 77.4039 52.7681C78.1584 51.5024 78.6592 50.1018 78.8782 48.6446C78.9875 47.9265 79.0108 47.198 78.9477 46.4743C78.8918 45.7735 78.7276 45.0856 78.461 44.435L79.3248 44.5601C77.7679 46.0558 75.8578 47.1332 73.7725 47.692C73.2574 47.8353 72.7336 47.945 72.2043 48.0203C71.9339 48.0495 71.6863 48.1003 71.3969 48.1109L70.9627 48.1239C70.8176 48.1153 70.6721 48.0986 70.5268 48.0849C69.3816 47.9152 68.33 47.3553 67.5499 46.4998C66.0303 44.8768 65.2201 42.8886 64.519 40.9393C63.8369 38.9736 63.3476 36.9612 62.8411 34.9867C62.712 34.4949 62.5832 34.0051 62.4276 33.5409C62.2689 33.0677 62.0897 32.5961 61.9028 32.1272C61.5278 31.1893 61.1142 30.2628 60.6631 29.3571C60.2176 28.451 59.7247 27.569 59.1864 26.7149C58.6691 25.8678 58.0544 25.0843 57.3548 24.3803C57.0304 24.0504 56.6439 23.7881 56.2176 23.6084C56.0276 23.5393 55.8253 23.5109 55.6237 23.525C55.434 23.5504 55.255 23.6273 55.106 23.7474C54.7975 24.0595 54.606 24.4685 54.5638 24.9053C54.4908 25.3898 54.4712 25.8808 54.5051 26.3696C54.695 28.3917 55.1309 30.383 55.8034 32.2994L55.7896 32.2647L55.7946 32.2752L55.3825 32.3731C55.3819 32.3996 55.3867 32.4259 55.3967 32.4503C55.4068 32.4748 55.4217 32.4969 55.4407 32.5154L55.4204 32.4918C55.153 32.1038 54.7839 31.7969 54.3537 31.6048C53.9215 31.415 53.4492 31.3344 52.9785 31.3704L52.9579 31.3724L52.9456 31.372C52.3803 31.323 51.8121 31.4241 51.2983 31.665C51.06 31.801 50.8555 31.9892 50.7003 32.2154C50.5451 32.4417 50.4431 32.7002 50.402 32.9715C50.3116 33.5444 50.3157 34.1283 50.4142 34.6999C50.5041 35.2864 50.625 35.8678 50.7763 36.4417C50.9359 37.0244 51.059 37.6166 51.1448 38.2147C51.1882 38.5166 51.2157 38.8207 51.2271 39.1255C51.2579 39.4561 51.2064 39.7892 51.0771 40.095C51.0237 40.1839 50.9492 40.2582 50.8601 40.3113C50.771 40.3644 50.6702 40.3947 50.5666 40.3993C50.463 40.404 50.3599 40.383 50.2664 40.3381C50.1729 40.2933 50.0919 40.226 50.0307 40.1423C49.8515 39.8874 49.6943 39.6178 49.5607 39.3363C49.3024 38.8049 49.0134 38.2889 48.695 37.7912L48.8602 37.8801L48.8551 37.8801L48.7476 37.8807L48.6884 37.7892C48.2548 37.0172 47.5434 36.4393 46.6989 36.1731C46.527 36.0989 46.3343 36.088 46.1551 36.1422C45.9759 36.1964 45.8216 36.3123 45.7196 36.4693C45.5036 36.8363 45.3692 37.2456 45.3255 37.6692C45.2639 38.1163 45.2615 38.5663 45.2361 39.0173C45.2315 39.4752 45.2482 39.9292 45.2796 40.3864C45.3436 41.2995 45.4533 42.2089 45.6082 43.111L45.7682 44.0408L45.0342 43.4334C44.3604 42.8177 43.5699 42.3433 42.7095 42.0385C42.343 41.9154 41.9435 41.9352 41.5909 42.0937C41.2613 42.2925 41.0105 42.5992 40.8811 42.9617C40.7283 43.343 40.6756 43.7571 40.728 44.1645C40.7524 44.3713 40.8004 44.5747 40.8712 44.7705L41.11 45.4536L42.0655 48.1859C42.7095 50.0051 43.3298 51.8325 43.9446 53.6616C44.2559 54.5786 44.5534 55.494 44.8914 56.3679C45.2397 57.2482 45.6436 58.1104 46.0754 58.9604C46.9436 60.6606 47.9508 62.2922 48.962 63.9321C49.4619 64.762 49.9868 65.5563 50.4363 66.468C50.4949 66.5929 50.5454 66.7215 50.5876 66.8528C50.6074 66.9347 50.6248 67.0175 50.6395 67.0997C50.6508 67.175 50.6499 67.224 50.6557 67.2874L50.7067 68.0077L50.8084 69.4483C51.0879 73.29 51.324 77.1358 51.5434 80.9878L51.4394 80.997Z" fill="url(#paint3_linear_272_6900)"/>
<path d="M57.7296 37.9947L55.3572 32.4661L55.8454 32.2812L57.7296 37.9947Z" fill="url(#paint4_linear_272_6900)"/>
<path d="M135.031 19.108C133.107 19.9234 131.101 20.609 129.092 21.238C127.073 21.8606 125.021 22.3709 122.946 22.7665C120.859 23.1937 118.734 23.4055 116.604 23.3984C115.523 23.3885 114.445 23.278 113.385 23.0681C112.293 22.86 111.247 22.4553 110.3 21.8738L110.346 21.9002C108.752 21.1051 107.15 20.3267 105.565 19.514L105.036 19.2428L105.355 18.7848C105.393 18.7233 105.441 18.6684 105.496 18.6221C105.523 18.5969 105.552 18.5739 105.582 18.5532C105.63 18.5202 105.687 18.477 105.729 18.4546C105.817 18.4063 105.911 18.3466 105.995 18.3108C106.167 18.2257 106.337 18.1527 106.505 18.0891C106.842 17.9578 107.177 17.8413 107.512 17.7418C108.182 17.5294 108.856 17.3689 109.529 17.2113C110.876 16.9006 112.228 16.6378 113.584 16.4229C114.94 16.1951 116.297 15.9951 117.656 15.8107C119.014 15.6183 120.375 15.4581 121.734 15.2877L121.55 15.3891L124.331 12.2068C125.259 11.1446 126.154 10.0662 127.114 9.0159C129.053 6.93761 131.299 5.16911 133.774 3.77215C135.016 3.08154 136.306 2.48207 137.635 1.97847C138.969 1.48861 140.335 1.08797 141.722 0.779204C144.503 0.0721127 147.383 -0.156212 150.24 0.10403C153.132 0.461423 155.889 1.53593 158.259 3.22986C160.618 4.94877 162.539 7.19808 163.868 9.79624C164.526 11.0943 165.039 12.4609 165.398 13.8713L165.631 14.9374C165.695 15.2905 165.758 15.641 165.811 15.995C165.924 16.7011 166.016 17.4111 166.086 18.1251C166.239 19.5584 166.274 21.0018 166.191 22.4408C166.113 23.9018 165.847 25.3466 165.398 26.7392L165.218 27.2807L164.673 27.1168L157.307 24.9028L149.922 22.7528C147.46 22.0363 144.993 21.3409 142.514 20.6917C141.277 20.3576 140.035 20.0426 138.79 19.7466C138.165 19.617 137.543 19.4497 136.913 19.3505L135.97 19.1815L135.031 19.108ZM135.006 18.9951L135.989 19.0053L136.95 19.1151C137.593 19.1829 138.22 19.3176 138.857 19.4157C140.122 19.6479 141.385 19.8963 142.639 20.1735C145.148 20.7303 147.646 21.3332 150.137 21.9573C152.629 22.5798 155.107 23.2534 157.586 23.9224C160.063 24.5998 162.541 25.269 165.008 25.9898L164.282 26.3673C165.11 23.8004 165.104 20.9862 164.855 18.2463C164.789 17.5582 164.702 16.8714 164.593 16.1859C164.541 15.8435 164.481 15.5003 164.419 15.1608L164.203 14.1625C163.881 12.8373 163.417 11.551 162.817 10.3264C161.6 7.87088 159.823 5.73559 157.63 4.09263C155.417 2.46259 152.839 1.3982 150.121 0.992141C147.362 0.666126 144.568 0.800135 141.852 1.3887C139.097 1.87985 136.437 2.80553 133.972 4.13116C131.508 5.4671 129.281 7.20224 127.384 9.26605C125.539 11.3719 123.781 13.5909 121.999 15.7678L121.931 15.8502L121.814 15.8693C120.465 16.089 119.115 16.3005 117.77 16.5403C116.424 16.7724 115.081 17.0197 113.745 17.2937C112.409 17.5646 111.078 17.8543 109.764 18.1797C109.108 18.344 108.455 18.5231 107.819 18.7225C107.499 18.8185 107.187 18.9296 106.888 19.0474C106.735 19.1057 106.592 19.1684 106.457 19.2356C106.383 19.2673 106.334 19.3033 106.272 19.3359C106.249 19.3494 106.227 19.3641 106.206 19.38C106.194 19.3876 106.184 19.3944 106.191 19.3902C106.198 19.3779 106.172 19.4205 106.243 19.3182L106.032 18.5891C107.627 19.3816 109.205 20.2086 110.791 21.0187L110.816 21.0316L110.837 21.0453C112.483 22.1178 114.588 22.4269 116.624 22.4999C117.658 22.5252 118.692 22.4946 119.723 22.4084C120.758 22.3338 121.792 22.2087 122.823 22.048C124.886 21.7393 126.928 21.271 128.961 20.7675C130.996 20.2562 132.998 19.662 135.006 18.9951Z" fill="url(#paint5_linear_272_6900)"/>
<path d="M147.753 3.21448C146.764 4.3759 145.752 5.50479 144.734 6.6276L141.685 9.99068C140.668 11.1097 139.66 12.2357 138.66 13.3687C137.667 14.5087 136.685 15.6553 135.71 16.8288C136.434 15.4847 137.264 14.2006 138.193 12.9887C139.106 11.7663 140.099 10.6089 141.113 9.47276C142.14 8.34861 143.2 7.25551 144.305 6.20867C145.401 5.1515 146.552 4.15208 147.753 3.21448ZM153.032 3.77016C153.85 5.25373 154.573 6.78751 155.197 8.36232C155.831 9.93285 156.385 11.534 156.859 13.1657C157.329 14.7985 157.696 16.4593 157.956 18.1382C158.216 19.8187 158.288 21.5228 158.172 23.2192C157.989 21.5486 157.719 19.8885 157.364 18.2459C157.003 16.6104 156.579 14.9901 156.118 13.3789C155.663 11.7654 155.147 10.1681 154.633 8.56772C154.103 6.97243 153.581 5.37084 153.032 3.77016ZM121.774 15.5785C122.687 15.5911 123.597 15.6549 124.502 15.7696C125.405 15.8711 126.299 16.017 127.192 16.1715C128.082 16.3402 128.971 16.5185 129.851 16.7409C130.739 16.952 131.614 17.2132 132.471 17.5234C131.559 17.5118 130.648 17.4483 129.743 17.3335C128.841 17.2318 127.947 17.0858 127.054 16.9304C126.164 16.7607 125.276 16.5825 124.395 16.3599C123.508 16.1486 122.633 15.8878 121.774 15.5785V15.5785ZM121.774 22.5852C121.789 23.3599 121.748 24.1333 121.693 24.9079C121.643 25.6897 121.532 26.4663 121.36 27.2305C121.274 27.6434 121.119 28.0385 120.899 28.3985C120.702 28.6932 120.51 29.0376 120.318 29.3655C119.933 30.0279 119.56 30.7019 119.189 31.3753C118.437 32.7182 117.698 34.0678 116.972 35.4239C116.615 36.1045 116.246 36.7788 115.905 37.4634C115.733 37.805 115.571 38.1498 115.411 38.4921C115.333 38.6637 115.259 38.8358 115.195 39.0055C115.166 39.0887 115.132 39.1761 115.115 39.2504C115.105 39.2817 115.097 39.3141 115.094 39.347C115.093 39.3533 115.087 39.3843 115.088 39.3706C115.088 39.3577 115.084 39.3449 115.078 39.3336C115.072 39.3222 115.063 39.3127 115.052 39.3059L114.91 39.2064C115.173 39.269 115.444 39.2945 115.714 39.2822C116.003 39.2707 116.291 39.232 116.572 39.1667C116.859 39.0994 117.141 39.0145 117.418 38.9123C117.697 38.8059 117.97 38.6843 118.235 38.5481L118.275 38.5285L118.3 38.5336C118.572 38.5849 118.826 38.7026 119.04 38.8761C119.245 39.0487 119.391 39.2805 119.459 39.5398C119.358 39.3052 119.186 39.1077 118.968 38.9744C118.761 38.8434 118.524 38.7648 118.28 38.7455L118.345 38.731C117.832 39.0861 117.273 39.3675 116.682 39.567C116.379 39.6648 116.068 39.7337 115.752 39.7729C115.417 39.8192 115.078 39.808 114.747 39.7397L114.652 39.7186L114.605 39.6402C114.568 39.5772 114.543 39.5082 114.53 39.4363C114.525 39.3964 114.525 39.3562 114.528 39.3163C114.53 39.2529 114.538 39.1898 114.553 39.1281C114.574 39.0231 114.601 38.9194 114.633 38.8172C114.693 38.6217 114.761 38.4349 114.831 38.2503C114.972 37.8817 115.131 37.5249 115.292 37.1704C115.616 36.4627 115.951 35.7635 116.31 35.0769C117.015 33.6976 117.769 32.3469 118.546 31.0085C118.941 30.3426 119.342 29.6814 119.757 29.0242C119.968 28.6943 120.175 28.3771 120.426 28.0438C120.62 27.7503 120.767 27.428 120.86 27.0888C121.273 25.6116 121.579 24.1064 121.774 22.5852V22.5852Z" fill="url(#paint6_linear_272_6900)"/>
<path d="M123.719 41.4642C121.497 38.0375 118.29 39.5397 118.29 39.5397C118.29 39.5397 117.051 56.5603 124.646 57.0234C130.425 57.3758 135.398 53.8662 138.895 50.0868C140.706 48.1195 141.852 45.6322 142.171 42.9773C142.645 39.1006 143.358 33.244 143.539 31.5544C143.817 28.9612 144.868 22.1713 148.633 22.5851C148.633 22.5851 156.505 22.6635 152.43 36.2778C152.43 36.2778 151.319 44.7983 158.542 43.7796C158.542 43.7796 157.061 39.5193 159.006 36.2778C160.95 33.0363 163.507 28.9382 163.387 26.125C163.387 26.125 137.889 18.5884 135.018 19.0515C136.785 19.9843 138.207 21.4592 139.074 23.2596C139.94 25.0599 140.207 27.0908 139.834 29.0539C138.987 34.5592 134.913 41.9473 133.022 45.1509C132.723 45.6619 132.29 46.0821 131.77 46.3669C131.251 46.6516 130.664 46.7902 130.072 46.768C128.977 46.724 127.721 46.5637 127.123 46.0949C125.942 45.1688 123.719 41.4642 123.719 41.4642Z" fill="url(#paint7_linear_272_6900)"/>
<path d="M123.447 25.1366C123.988 24.7198 124.608 24.416 125.269 24.2432C125.941 24.054 126.644 23.9954 127.338 24.0705C128.048 24.1554 128.724 24.4246 129.298 24.8513C129.855 25.2678 130.284 25.834 130.532 26.4841C130.064 26.0442 129.541 25.6665 128.976 25.3604C128.434 25.0838 127.847 24.9061 127.243 24.8358C126.624 24.7673 126 24.7661 125.381 24.8325C124.748 24.8986 124.108 25.0025 123.447 25.1366ZM145.298 34.6107C146.54 35.0976 147.977 35.0427 148.896 34.2276C149.36 33.8166 149.73 33.311 149.982 32.7448C150.253 32.1628 150.47 31.5571 150.631 30.9354C150.989 29.6818 151.201 28.3909 151.262 27.0886C151.29 26.4349 151.274 25.78 151.212 25.1286C151.182 24.8011 151.134 24.4754 151.07 24.1527C151.041 23.9896 151 23.8308 150.957 23.6707C150.923 23.5088 150.857 23.3553 150.763 23.2192C150.995 23.4688 151.17 23.7665 151.275 24.0912C151.399 24.4084 151.503 24.7332 151.586 25.0636C151.744 25.7279 151.837 26.4058 151.864 27.088C151.913 28.4569 151.748 29.8251 151.374 31.1427C151.002 32.4227 150.463 33.8395 149.259 34.7055C148.667 35.1294 147.946 35.3343 147.22 35.2851C146.53 35.2394 145.866 35.0063 145.298 34.6107V34.6107ZM136.314 52.5584C136.768 52.8357 137.188 53.1655 137.565 53.5412C137.944 53.9064 138.293 54.3011 138.609 54.7216C138.93 55.1462 139.206 55.6025 139.434 56.0834C139.7 56.5679 139.807 57.1232 139.742 57.6717C139.519 57.2137 139.242 56.7842 138.917 56.3923C138.612 55.9899 138.292 55.5947 137.991 55.1835C137.685 54.7752 137.388 54.3572 137.104 53.925C136.807 53.4894 136.543 53.0327 136.314 52.5584V52.5584ZM158.542 43.7796C159.033 44.5387 159.48 45.3251 159.881 46.135C160.084 46.5223 160.285 46.9046 160.51 47.2689C160.733 47.6525 161.006 48.0051 161.321 48.3177C160.831 48.2494 160.38 48.0134 160.044 47.6499C159.701 47.3133 159.415 46.9229 159.198 46.494C158.981 46.0776 158.813 45.6367 158.699 45.1808C158.574 44.7247 158.521 44.2519 158.542 43.7796V43.7796Z" fill="url(#paint8_linear_272_6900)"/>
<path d="M169.844 41.8322C169.844 41.8322 160.911 42.4848 159.402 46.0505L159.674 46.5621L160.671 46.0505C165.463 43.6647 168.173 46.8336 164.842 47.3922C161.506 47.9456 141.642 57.0452 141.642 57.0452C133.028 59.4832 127.979 72.5818 127.979 72.5818C129.368 71.9867 130.783 71.4542 132.187 70.8851C133.628 70.4205 135.058 69.9193 136.515 69.5069C139.44 68.6811 142.422 68.0755 145.437 67.6953C148.457 67.3065 151.508 67.2121 154.547 67.4134C155.304 67.4969 156.061 67.5439 156.818 67.6535C157.565 67.7841 158.322 67.8728 159.063 68.0503C160.554 68.3433 162.006 68.8075 163.391 69.4338C161.951 69.0033 160.474 68.7079 158.979 68.5515C158.238 68.4366 157.486 68.4001 156.745 68.3322C155.998 68.2852 155.252 68.2591 154.505 68.2226C151.516 68.1772 148.527 68.3464 145.562 68.729L143.338 69.0161L141.125 69.4077L140.018 69.5904L138.922 69.8306C138.186 69.9924 137.455 70.149 136.719 70.3004C135.257 70.6398 133.805 71.0261 132.338 71.3759C130.887 71.7726 129.446 72.2112 127.979 72.5818C105.384 76.2885 83.3374 90.1806 81.86 89.81C80.3773 89.4393 79.0774 77.7712 79.0774 74.7693C79.0774 71.7726 78.524 66.0978 74.076 66.0978C69.6332 66.0978 70.1866 69.9872 70.1866 69.9872C78.524 72.2112 59.2598 73.8818 53.5171 74.6179C47.7744 75.3592 50.9224 73.1404 50.9224 73.1404C50.9224 73.1404 49.257 71.3602 47.4716 73.5738C46.9144 74.2878 46.5387 75.1263 46.3769 76.0174C46.215 76.9086 46.2718 77.8256 46.5423 78.69C47.1113 80.5903 47.9519 83.4721 48.5157 85.7327C49.445 89.4393 52.7757 116.112 53.8877 118.706C54.9997 121.296 77.9654 128.15 126.867 124.632C130.83 124.01 134.776 123.353 138.723 122.695C142.665 122.021 146.606 121.332 150.517 120.534C152.474 120.142 154.432 119.735 156.369 119.27C158.316 118.826 160.248 118.334 162.164 117.793C164.081 117.254 165.97 116.62 167.823 115.892C169.7 115.217 171.448 114.227 172.992 112.964C172.311 113.708 171.531 114.354 170.674 114.885C169.825 115.433 168.943 115.926 168.032 116.362C166.203 117.214 164.324 117.951 162.404 118.571C158.572 119.788 154.672 120.785 150.726 121.557C146.784 122.34 142.823 122.987 138.843 123.499C134.865 124.026 130.871 124.412 126.867 124.632C126.867 124.632 125.087 135.454 124.158 145.191H193.812C193.738 135.684 193.723 123.086 194.015 111.758C194.569 89.904 194.015 79.6193 194.015 79.6193C193.014 79.5086 192.025 79.3059 191.06 79.0137C190.094 78.737 189.149 78.4081 188.205 78.0688C186.32 77.3901 184.482 76.5966 182.655 75.7821C180.838 74.9521 179.042 74.0854 177.273 73.1509C175.503 72.2269 173.754 71.2506 172.062 70.1751C173.947 70.8643 175.79 71.6317 177.622 72.4201C179.455 73.1979 181.266 74.0228 183.088 74.832L188.513 77.317C190.335 78.121 192.115 78.9876 194.015 79.6193C194.015 79.6193 203.183 83.7906 204.018 73.2292C204.848 62.673 194.845 39.8901 169.844 41.8322ZM173.691 76.1319C174.612 77.0016 175.416 77.988 176.082 79.0659C176.411 79.6036 176.693 80.1727 176.991 80.7365C177.246 81.316 177.455 81.9111 177.695 82.5011C177.809 82.7966 177.899 83.1002 177.967 83.4095L178.207 84.3283C178.369 84.9387 178.488 85.5598 178.562 86.1869L178.687 87.1266L178.75 87.5964L178.771 88.0663L178.833 89.9509L178.849 90.4208L178.818 90.8906L178.75 91.8304C178.708 92.4568 178.666 93.0781 178.599 93.6993C178.39 94.9314 178.191 96.1635 177.925 97.3799C177.586 98.5807 177.257 99.7762 176.881 100.956C177.032 99.7188 177.225 98.5023 177.419 97.2859C177.565 96.0643 177.648 94.8374 177.789 93.621L177.836 91.7886L177.862 90.875L177.878 90.4208L177.847 89.9666L177.753 88.1446L177.732 87.6904L177.664 87.2414L177.528 86.3435C177.222 83.9435 176.496 81.6161 175.383 79.4679C174.806 78.4031 174.117 77.4037 173.326 76.4869C172.537 75.5486 171.613 74.7322 170.585 74.0645C171.738 74.558 172.791 75.2587 173.691 76.1319ZM186.852 54.9882C186.479 55.7746 185.839 56.4034 185.046 56.7633C184.654 56.9422 184.242 57.0753 183.819 57.16C183.397 57.2199 182.972 57.2565 182.545 57.2697C182.122 57.2488 181.694 57.2488 181.277 57.1966L180.034 56.993C179.622 56.9094 179.225 56.7894 178.818 56.685L177.643 56.3665C176.877 56.1666 176.097 56.027 175.31 55.9488C173.714 55.8 172.108 55.7948 170.512 55.9332C167.285 56.2244 164.088 56.7797 160.953 57.5933C159.376 57.9901 157.799 58.4182 156.238 58.8828C154.667 59.3266 153.122 59.8382 151.566 60.355C154.524 58.9299 157.591 57.7445 160.739 56.8102C163.893 55.8369 167.141 55.1947 170.428 54.8943C172.092 54.7621 173.765 54.7866 175.424 54.9673C176.26 55.0748 177.085 55.2476 177.894 55.4842L180.217 56.1994L181.381 56.45C181.773 56.5179 182.164 56.5335 182.556 56.5857C182.947 56.6118 183.339 56.5805 183.725 56.57C184.108 56.5187 184.485 56.4259 184.848 56.2934C185.586 56.0394 186.21 55.5303 186.607 54.8577C186.812 54.5163 186.967 54.147 187.066 53.7613C187.184 53.3716 187.247 52.9676 187.254 52.5606C187.345 53.3914 187.206 54.2311 186.852 54.9882Z" fill="url(#paint9_linear_272_6900)"/>
<path d="M94.8236 145.192C105.104 144.894 115.384 144.694 125.664 144.592C130.804 144.521 135.944 144.506 141.085 144.464L156.505 144.421L171.925 144.462C177.065 144.505 182.205 144.518 187.345 144.59C197.626 144.691 207.906 144.892 218.186 145.192C207.906 145.492 197.626 145.693 187.345 145.795C182.205 145.866 177.065 145.88 171.925 145.923L156.505 145.964L141.085 145.921C135.944 145.879 130.804 145.863 125.664 145.792C115.384 145.691 105.104 145.491 94.8236 145.192ZM125.178 30.7274C127.194 30.7274 127.197 27.595 125.178 27.595C123.162 27.595 123.159 30.7274 125.178 30.7274Z" fill="url(#paint10_linear_272_6900)"/>
</g>
</svg>
